<?xml version="1.0" encoding="UTF-8"?>
<svg width="90px" height="53.9466812px" viewBox="0 0 90 53.9466812" version="1.1" xmlns="http://www.w3.org/2000/svg" xmlns:xlink="http://www.w3.org/1999/xlink">
    <title>HM_Revenue_&amp;_Customs</title>
    <g id="Page-1" stroke="none" stroke-width="1" fill="none" fill-rule="evenodd">
        <g id="HM_Revenue_&amp;_Customs" fill-rule="nonzero">
            <path d="M72.1838333,51.980406 C72.301238,52.1706929 72.4629707,52.3297237 72.6552084,52.4439061 C72.8592314,52.5613525 73.0813193,52.6441508 73.3124335,52.6889311 C73.5576835,52.7400061 73.8108085,52.7643061 74.0693336,52.7643061 C74.2686836,52.7643061 74.4788336,52.7508061 74.6968586,52.7211061 C74.9151087,52.6889311 75.1169337,52.6349311 75.3027837,52.5541561 C75.4822746,52.4787489 75.6391707,52.3581311 75.7581838,52.204056 C75.8792338,52.047906 75.9386338,51.851256 75.9386338,51.614106 C75.9386338,51.2856059 75.8146588,51.0351809 75.5642337,50.8653059 C75.3162837,50.6956559 75.0039837,50.5584058 74.6295836,50.4533308 C74.2279033,50.3420283 73.8217193,50.2476699 73.4121085,50.1705058 C72.9731334,50.0843308 72.5663334,49.9657558 72.1919333,49.8096058 C71.8175333,49.6561557 71.5079333,49.4406057 71.2572832,49.1604807 C71.0095582,48.8803556 70.8828832,48.4924556 70.8828832,47.9943055 C70.8828832,47.6037055 70.9717582,47.2722805 71.1470332,46.9921554 C71.3161065,46.7172497 71.5453641,46.4842994 71.8175333,46.3108553 C72.0922583,46.1358053 72.4020834,46.0064303 72.7467834,45.9229553 C73.0887834,45.8394803 73.4307835,45.7962803 73.7703085,45.7962803 C74.2092836,45.7962803 74.6133836,45.8340803 74.9823837,45.9067553 C75.3486837,45.9821303 75.6771837,46.1115053 75.9600088,46.2973553 C76.2457588,46.4805054 76.4718838,46.7309304 76.6415339,47.0434554 C76.8111839,47.3584555 76.9108589,47.7490555 76.9405589,48.2179556 L75.6693087,48.2179556 C75.6504087,47.9700055 75.5829087,47.7625555 75.4753587,47.5983055 C75.3671541,47.4360962 75.2234172,47.3006696 75.0550587,47.2023055 C74.8808793,47.1006879 74.6918283,47.0270415 74.4948086,46.9840554 C74.2900586,46.9383804 74.0828336,46.9167804 73.8753835,46.9167804 C73.6841335,46.9167804 73.4928835,46.9329804 73.2989335,46.9624554 C73.1049834,46.9921554 72.9272334,47.0434554 72.7683834,47.1188304 C72.6095334,47.1942055 72.4774584,47.2938805 72.3804834,47.4176305 C72.2781083,47.5416055 72.2297333,47.7058555 72.2297333,47.9052055 C72.2297333,48.1234556 72.3078084,48.3066056 72.4614834,48.4492556 C72.6149334,48.5948306 72.8140584,48.7131806 73.0509834,48.8074556 C73.2908335,48.9044306 73.5601585,48.9825057 73.8591835,49.0473057 C74.1582086,49.1118807 74.4572336,49.1791557 74.7560336,49.2491307 C75.0718076,49.3182374 75.3837781,49.4037025 75.6906837,49.5051807 C75.9951088,49.6048557 76.2644338,49.7369307 76.4986588,49.9011808 C76.7307895,50.0639939 76.9247234,50.2753558 77.0670089,50.5206058 C77.2125839,50.7710309 77.2852589,51.0781559 77.2852589,51.4471559 C77.2852589,51.918531 77.1882839,52.306206 76.9916339,52.6160311 C76.8004212,52.9217642 76.5391032,53.1775288 76.2293338,53.3621312 C75.9170338,53.5506812 75.5615337,53.6825312 75.1682337,53.7581312 C74.7812014,53.8329422 74.3879296,53.8707626 73.9937335,53.8710812 C73.5655585,53.8710812 73.1562835,53.8254062 72.7683834,53.7365312 C72.3804834,53.6476562 72.0357833,53.4993812 71.7367583,53.2948562 C71.4377333,53.0901061 71.1981082,52.8207811 71.0176582,52.4866561 C70.8399082,52.152756 70.7402332,51.748656 70.7186332,51.2694059 L71.9898833,51.2694059 C72.0006833,51.549531 72.0654833,51.783756 72.1838333,51.980406 M59.8020819,45.9740303 L59.8020819,47.1107304 L59.8317819,47.1107304 C60.410932,46.2354803 61.2432071,45.7962803 62.3286072,45.7962803 C62.8080823,45.7962803 63.2416573,45.8959553 63.6322574,46.0953053 C64.0201574,46.2946553 64.2948824,46.6339554 64.4537324,47.1107304 C64.7124825,46.6931304 65.0544825,46.3700304 65.4774826,46.1409803 C65.9027326,45.9092303 66.3687077,45.7962803 66.8751827,45.7962803 C67.2657828,45.7962803 67.6158828,45.8367803 67.9308828,45.9229553 C68.2434079,46.0062053 68.5127329,46.1412053 68.7390829,46.3189554 C68.962508,46.4991804 69.137558,46.7307054 69.261533,47.0137554 C69.385283,47.2992805 69.447383,47.6415055 69.447383,48.0397555 L69.447383,53.7068312 L68.1761329,53.7068312 L68.1761329,48.6378056 C68.1761329,48.3981806 68.1572329,48.1745306 68.1169579,47.9646055 C68.0791579,47.7544555 68.0037829,47.5740055 67.8933078,47.4178555 C67.7830578,47.2641805 67.6320828,47.1429054 67.4381328,47.0513304 C67.2414828,46.9624554 66.9910577,46.9167804 66.6812327,46.9167804 C66.0534826,46.9167804 65.5607326,47.0972304 65.1998325,47.4554305 C64.8416325,47.8136305 64.6638825,48.2931056 64.6638825,48.8909306 L64.6638825,53.7068312 L63.3926323,53.7068312 L63.3926323,48.6378056 C63.3926323,48.3873806 63.3710323,48.1585556 63.3251323,47.9484055 C63.2794573,47.7382555 63.2013823,47.5578055 63.0933823,47.4043555 C62.9831323,47.2479805 62.8350823,47.1296304 62.6519322,47.0434554 C62.4660822,46.9597554 62.2316322,46.9167804 61.9409322,46.9167804 C61.5719321,46.9167804 61.2567071,46.9921554 60.992782,47.1429054 C60.728857,47.2911805 60.513307,47.4714055 60.349057,47.6790805 C60.184807,47.8890055 60.0662319,48.1072556 59.9908569,48.3309056 C59.9152569,48.5543306 59.8776819,48.7404056 59.8776819,48.8911556 L59.8776819,53.7068312 L58.6064318,53.7068312 L58.6064318,45.9742553 L59.8020819,45.9740303 Z M49.8447058,48.2555306 C50.0035558,47.7625555 50.2431808,47.3341555 50.5611058,46.9707804 C50.8815059,46.6042554 51.2748059,46.3187304 51.743481,46.1088053 C52.212156,45.9013553 52.7508061,45.7962803 53.3567312,45.7962803 C53.9763812,45.7962803 54.5177313,45.9013553 54.9810064,46.1088053 C55.4442814,46.3187304 55.8348814,46.6042554 56.1555065,46.9705554 C56.4732065,47.3341555 56.7128316,47.7625555 56.8716816,48.2553056 C57.0307566,48.7482806 57.1115316,49.2790557 57.1115316,49.8471808 C57.1115316,50.4155308 57.0305316,50.9433809 56.8716816,51.4336559 C56.7128316,51.921231 56.4732065,52.346706 56.1552815,52.7130061 C55.8348814,53.0766061 55.4442814,53.3594312 54.9807814,53.5641812 C54.5177313,53.7689312 53.9763812,53.8713062 53.3567312,53.8713062 C52.7508061,53.8713062 52.212156,53.7689312 51.743481,53.5641812 C51.2748059,53.3594312 50.8817309,53.0766061 50.5611058,52.7130061 C50.2431808,52.346706 50.0035558,51.921006 49.8447058,51.4336559 C49.6829307,50.9433809 49.6048557,50.4155308 49.6048557,49.8474058 C49.6048557,49.2788307 49.6829307,48.7482806 49.8447058,48.2553056 M51.1373309,51.0970559 C51.2613059,51.4606559 51.4336559,51.764856 51.651906,52.010106 C51.872631,52.252431 52.128681,52.4409811 52.4223061,52.5703561 C52.7157061,52.6995061 53.0282311,52.7643061 53.3567312,52.7643061 C53.6881562,52.7643061 53.9979812,52.6995061 54.2913813,52.5703561 C54.5852021,52.4406932 54.8478812,52.2496678 55.0617814,52.010106 C55.2827314,51.764856 55.4523814,51.4606559 55.5788314,51.0970559 C55.7028064,50.7334559 55.7646814,50.3185558 55.7646814,49.8471808 C55.7646814,49.3785057 55.7028064,48.9638307 55.5788314,48.6002306 C55.4523814,48.2366306 55.2827314,47.9295055 55.0617814,47.6790805 C54.8489522,47.4363123 54.5861477,47.2424325 54.2913813,47.1107304 C53.9969404,46.9810617 53.6784549,46.9149724 53.3567312,46.9167443 C53.0282311,46.9167443 52.7157061,46.9813554 52.4223061,47.1107304 C52.1279452,47.243127 51.865279,47.4369047 51.651906,47.6790805 C51.4336559,47.9295055 51.2613059,48.2366306 51.1373309,48.6002306 C51.0135809,48.9638307 50.9490059,49.3787307 50.9490059,49.8471808 C50.9490059,50.3185558 51.0135809,50.7334559 51.1373309,51.0970559 M48.6164306,45.9740303 L48.6164306,47.0972304 L47.0758554,47.0972304 L47.0758554,51.896931 C47.0758554,52.044981 47.0893554,52.166256 47.1134304,52.255131 C47.1404304,52.346706 47.1861055,52.4139811 47.2563055,52.4652811 C47.3260555,52.5163561 47.4232555,52.5485311 47.5470055,52.5620311 C47.6736805,52.5782311 47.8352305,52.5836311 48.0345805,52.5836311 L48.6164306,52.5836311 L48.6164306,53.7068312 L47.6439805,53.7068312 C47.3154805,53.7068312 47.0353554,53.6825312 46.8009054,53.6393312 C46.5666804,53.5938812 46.3756554,53.5128812 46.2327803,53.3918312 C46.0872053,53.2732562 45.9794303,53.1036061 45.9094553,52.8853561 C45.8394803,52.6644061 45.8070803,52.3761811 45.8070803,52.015281 L45.8070803,47.0972304 L44.4901551,47.0972304 L44.4901551,45.9740303 L45.8070803,45.9740303 L45.8070803,43.657655 L47.0758554,43.657655 L47.0758554,45.9740303 L48.6164306,45.9740303 Z M38.8068795,51.980406 C38.9243126,52.1706108 39.0860431,52.3295621 39.2782545,52.4436811 C39.4821938,52.5611828 39.7042045,52.6440567 39.9352546,52.6889311 C40.1805046,52.7400061 40.4338547,52.7643061 40.6923797,52.7643061 C40.8917297,52.7643061 41.0989547,52.7508061 41.3199048,52.7211061 C41.5381548,52.6889311 41.7399798,52.6349311 41.9258298,52.5541561 C42.1052442,52.4787245 42.2620615,52.3581077 42.3810049,52.204056 C42.5025049,52.047906 42.5614549,51.851256 42.5614549,51.614106 C42.5614549,51.2856059 42.4377049,51.0351809 42.1872799,50.8653059 C41.9366298,50.6956559 41.6270298,50.5584058 41.2526298,50.4533308 C40.850113,50.3417421 40.4430176,50.2473813 40.0324546,50.1705058 C39.5959546,50.0843308 39.1893795,49.9657558 38.8152045,49.8096058 C38.4405794,49.6561557 38.1309794,49.4406057 37.8803294,49.1604807 C37.6299043,48.8803556 37.5059293,48.4924556 37.5059293,47.9943055 C37.5059293,47.6037055 37.5948043,47.2722805 37.7671544,46.9921554 C37.9372929,46.7171093 38.1675298,46.48418 38.4405794,46.3108553 C38.7153045,46.1358053 39.0251295,46.0064303 39.3671295,45.9229553 C39.7029514,45.8400788 40.0474598,45.7975535 40.3933547,45.7962803 C40.8323297,45.7962803 41.2364298,45.8340803 41.6054298,45.9067553 C41.9717298,45.9821303 42.3002299,46.1115053 42.5830549,46.2973553 C42.868805,46.4805054 43.09493,46.7309304 43.26458,47.0434554 C43.43423,47.3584555 43.533905,47.7490555 43.563605,48.2179556 L42.2923549,48.2179556 C42.2707549,47.9700055 42.2059549,47.7625555 42.0981799,47.5983055 C41.9900394,47.4361216 41.8463816,47.300697 41.6781048,47.2023055 C41.5039255,47.1006879 41.3148745,47.0270415 41.1178547,46.9840554 C40.9131047,46.9383804 40.7058797,46.9167804 40.4984297,46.9167804 C40.3071797,46.9167804 40.1159296,46.9329804 39.9219796,46.9624554 C39.7280296,46.9921554 39.5502796,47.0434554 39.3914296,47.1188304 C39.2298795,47.1942055 39.1005045,47.2938805 39.0008295,47.4176305 C38.9011545,47.5416055 38.8527795,47.7058555 38.8527795,47.9052055 C38.8527795,48.1234556 38.9308545,48.3066056 39.0845295,48.4492556 C39.2379795,48.5948306 39.4344046,48.7131806 39.6740296,48.8074556 C39.9138796,48.9044306 40.1832046,48.9825057 40.4822297,49.0473057 C40.7812547,49.1118807 41.0802797,49.1791557 41.3790798,49.2491307 C41.6947683,49.318584 42.0067211,49.4040443 42.3137299,49.5051807 C42.6181549,49.6048557 42.88748,49.7369307 43.121705,49.9011808 C43.3538356,50.0639939 43.5477696,50.2753558 43.690055,50.5206058 C43.8356301,50.7710309 43.9083051,51.0781559 43.9083051,51.4471559 C43.9083051,51.918531 43.8086301,52.306206 43.61468,52.6160311 C43.4234673,52.9217642 43.1621493,53.1775288 42.85238,53.3621312 C42.5373799,53.5506812 42.1845799,53.6825312 41.7912798,53.7581312 C41.3952798,53.8335062 41.0046797,53.8710812 40.6167797,53.8710812 C40.1886046,53.8710812 39.7793296,53.8254062 39.3914296,53.7365312 C39.0008295,53.6476562 38.6588295,53.4993812 38.3598044,53.2948562 C38.0607794,53.0901061 37.8211544,52.8207811 37.6407043,52.4866561 C37.4602543,52.152756 37.3605793,51.748656 37.3416793,51.2694059 L38.6129295,51.2694059 C38.6237295,51.549531 38.6883045,51.783756 38.8068795,51.980406 M34.723579,53.7068312 L34.723579,52.4814811 L34.694104,52.4814811 C34.424779,52.9580311 34.0825539,53.3110562 33.6624789,53.5344812 C33.2448788,53.7581312 32.7521288,53.8713062 32.1837787,53.8713062 C31.6746037,53.8713062 31.2491286,53.8038062 30.9125286,53.6692562 C30.5730035,53.5344812 30.2982785,53.3432312 30.0883535,53.0928061 C29.8809035,52.8450811 29.7328534,52.5487561 29.6491534,52.204056 C29.5629784,51.859131 29.5200034,51.4766309 29.5200034,51.0592559 L29.5200034,45.9742553 L30.7912536,45.9742553 L30.7912536,51.2100059 C30.7912536,51.687006 30.9314286,52.066581 31.2113286,52.344006 C31.4887536,52.6241311 31.8739537,52.7643061 32.3615287,52.7643061 C32.7521288,52.7643061 33.0860288,52.7049061 33.3715539,52.5836311 C33.644344,52.4718258 33.887656,52.2985816 34.0825539,52.077381 C34.2745543,51.8516391 34.419311,51.5896693 34.508254,51.3069809 C34.602529,51.0133559 34.650904,50.6902559 34.650904,50.3428558 L34.650904,45.9740303 L35.9221541,45.9740303 L35.9221541,53.7068312 L34.723579,53.7068312 Z M25.4018279,44.5385301 C24.8575529,44.1614301 24.2111278,43.9701801 23.4652527,43.9701801 C22.8267026,43.9701801 22.2799526,44.0914551 21.8274775,44.3310801 C21.3826811,44.5600715 20.9979352,44.8904043 20.7042774,45.2954302 C20.4108774,45.6995303 20.1953273,46.1601053 20.0553773,46.6771554 C19.9143622,47.2041792 19.843699,47.7475444 19.8452273,48.2931056 C19.8452273,48.9019556 19.9152023,49.4784057 20.0553773,50.0197558 C20.1953273,50.5638058 20.4108774,51.0378809 20.7042774,51.4417559 C20.9979024,51.845856 21.3750025,52.166256 21.8355775,52.4061061 C22.2934526,52.6457311 22.8429026,52.7643061 23.4785277,52.7643061 C23.9472028,52.7643061 24.3648028,52.6889311 24.7284029,52.5325561 C25.0833949,52.3848621 25.4042733,52.1658377 25.671153,51.889056 C25.935078,51.614106 26.142528,51.2883059 26.290578,50.9112059 C26.4413281,50.5314058 26.5302031,50.1221308 26.5599031,49.6829307 L27.9794282,49.6829307 C27.8421782,51.0297809 27.3759782,52.077381 26.5896031,52.8234811 C25.803003,53.5722812 24.7257029,53.9466812 23.3601777,53.9466812 C22.5333026,53.9466812 21.8088025,53.8040312 21.1918524,53.5212062 C20.5724274,53.2354561 20.0605523,52.8450811 19.6512773,52.346706 C19.2417772,51.845856 18.9348772,51.2586059 18.7328272,50.5800058 C18.5280771,49.9038808 18.4257021,49.1737557 18.4257021,48.3981806 C18.4257021,47.6196805 18.5361771,46.8900054 18.7542022,46.2057803 C18.9724522,45.5242553 19.2957772,44.9291302 19.7185523,44.4199551 C20.1415523,43.9110051 20.6694024,43.509605 21.3050275,43.216205 C21.9379525,42.92258 22.6624526,42.7743049 23.4785277,42.7743049 C24.0387778,42.7743049 24.5668528,42.8496799 25.0650029,42.997955 C25.563378,43.148705 26.007753,43.366955 26.395653,43.65788 C26.7884465,43.9505982 27.1189595,44.3186678 27.3678782,44.7405802 C27.6266282,45.1741552 27.7962782,45.6752303 27.8770532,46.2435803 L26.4550531,46.2435803 C26.295978,45.4866803 25.945878,44.9183302 25.4018279,44.5385301 M11.2558513,53.4969062 C10.7010012,53.7473312 10.1299512,53.8713062 9.5429261,53.8713062 C8.82360102,53.8713062 8.24737595,53.7610562 7.8081759,53.5428062 C7.36942585,53.3218562 7.02967581,53.0579311 6.79005078,52.7508061 C6.55042576,52.4409811 6.39405074,52.120581 6.31867573,51.792081 C6.24330072,51.4635809 6.20842572,51.1886309 6.20842572,50.9703809 C6.20842572,50.5503058 6.27592572,50.1840058 6.41025074,49.8633808 C6.54059878,49.5489244 6.72274894,49.2585489 6.9491258,49.0043307 C7.17255083,48.7485056 7.43647586,48.5194556 7.74112589,48.3147056 C8.05238029,48.1069393 8.37418635,47.9154328 8.70525101,47.7409555 C8.55450099,47.5310305 8.41162597,47.3314555 8.27145096,47.1431304 C8.13150094,46.9518804 8.00482592,46.7606304 7.88895091,46.5666804 C7.77629155,46.3727459 7.68594164,46.1666847 7.61962588,45.9524303 C7.55505087,45.7398053 7.52287587,45.4974803 7.52287587,45.2279302 C7.52287587,44.9372302 7.57665088,44.6625052 7.68172589,44.3985801 C7.78513047,44.1343085 7.9429734,43.894746 8.14500094,43.695455 C8.34975096,43.490705 8.60017599,43.329155 8.89897603,43.208105 C9.19822606,43.08953 9.5429261,43.030355 9.93060115,43.030355 C10.2591012,43.030355 10.5824262,43.073105 10.8949513,43.164905 C11.2099513,43.25378 11.4873763,43.391255 11.7245264,43.574405 C11.9640432,43.7600501 12.16067,43.9952041 12.3009764,44.2638051 C12.4463264,44.5360551 12.5192264,44.8537552 12.5192264,45.2119552 C12.5192264,45.5323553 12.4625264,45.8286803 12.3547514,46.1034053 C12.2439185,46.376197 12.0921781,46.630514 11.9047514,46.8576054 C11.714693,47.088054 11.498776,47.295893 11.2612513,47.4770305 C11.0249522,47.6618183 10.7756022,47.8292798 10.5151512,47.9781055 L12.4436264,50.3266558 C12.6429765,49.7691057 12.7586265,49.2142557 12.7883265,48.6675056 L13.9977016,48.6675056 C13.9737199,48.9396251 13.941455,49.2109509 13.9009516,49.4811057 C13.8699223,49.6912678 13.8248209,49.89911 13.7659516,50.1032308 C13.7121766,50.2917808 13.6449016,50.4803308 13.5641266,50.6634809 C13.4860516,50.8493309 13.3917765,51.0594809 13.2813015,51.2991059 L15.3605268,53.7070562 L13.6986766,53.7070562 L12.5622015,52.3764061 C12.2442764,52.8747811 11.8080014,53.2491812 11.2558513,53.4969062 M8.697151,48.9800307 C8.4804192,49.1249055 8.28228797,49.2958333 8.10720094,49.4889807 C7.93811131,49.6770088 7.80154046,49.8919026 7.70310089,50.1248308 C7.60365088,50.3590558 7.55235087,50.6364808 7.55235087,50.9544059 C7.55235087,51.2237309 7.61152588,51.4714559 7.72470089,51.695106 C7.84057591,51.918531 7.99132592,52.109781 8.18257595,52.263231 C8.37672541,52.4210937 8.59620229,52.544944 8.83170102,52.6295311 C9.07412039,52.7185871 9.33034131,52.7642103 9.58860111,52.7643061 C10.0761762,52.7643061 10.5124512,52.6484311 10.8949513,52.4196061 C11.2801513,52.190556 11.6005513,51.883656 11.8590764,51.4930559 L9.40815109,48.5464556 C9.16614252,48.6826026 8.92899598,48.8272169 8.697151,48.9800307 M10.3050012,46.8117054 C10.473458,46.6939897 10.6288416,46.5585947 10.7685012,46.4078304 C10.9088714,46.2598376 11.0251824,46.0907615 11.1132013,45.9067553 C11.2020763,45.7236053 11.2477513,45.5163803 11.2477513,45.2873302 C11.2477513,44.9775052 11.1375013,44.7108802 10.9192513,44.4874551 C10.6983012,44.2638051 10.3995012,44.1506301 10.0221762,44.1506301 C9.72067612,44.1506301 9.44325109,44.2422051 9.18450106,44.4280551 C8.92350103,44.6112052 8.79412602,44.8994302 8.79412602,45.2873302 C8.79412602,45.4461802 8.82630102,45.6052553 8.89087603,45.7665803 C8.95567603,45.9256553 9.03915104,46.0818053 9.13882606,46.2354803 C9.23850107,46.3916304 9.34897608,46.5423804 9.46732609,46.6933554 C9.58860111,46.8414054 9.70717612,46.9923804 9.82552614,47.1431304 C9.97627615,47.0407554 10.1353512,46.9329804 10.3050012,46.8117054 M88.7539603,38.2574294 C88.1748102,38.6964045 87.4476101,38.9173545 86.569435,38.9173545 C85.9527099,38.9173545 85.4167599,38.8176795 84.9642848,38.6183295 C84.5091098,38.4189794 84.1293097,38.1390794 83.8194847,37.7806544 C83.5096596,37.4197543 83.2781346,36.9915793 83.1246846,36.4932042 C82.9683096,35.9950542 82.8821346,35.4537041 82.8632346,34.863754 C82.8632346,34.276504 82.9521096,33.7378539 83.1300846,33.2475788 C83.3105346,32.7602288 83.5609597,32.3372287 83.8867597,31.9790287 C84.2068819,31.62191 84.5988404,31.3364519 85.0369598,31.1413536 C85.4813349,30.9420036 85.9662099,30.8425536 86.49676,30.8425536 C87.1836851,30.8425536 87.7545101,30.9825036 88.2069852,31.2678036 C88.6497343,31.5401121 89.0238872,31.9106467 89.3004853,32.3507287 C89.575084,32.790973 89.7676442,33.2773283 89.8688354,33.7862289 C89.9739104,34.306204 90.0144104,34.799179 89.9955104,35.2678541 L84.2073847,35.2678541 C84.1950129,35.59369 84.2359779,35.9193577 84.3286597,36.2319792 C84.4140888,36.5290701 84.5619021,36.8045229 84.7622348,37.0399543 C84.9615848,37.2744043 85.2144848,37.4602543 85.5245349,37.6002043 C85.8314349,37.7403794 86.197735,37.8103544 86.615335,37.8103544 C87.1539851,37.8103544 87.5956601,37.6866044 87.9405852,37.4359543 C88.2825852,37.1882293 88.5114102,36.8082043 88.6191852,36.2992542 L89.8769354,36.2992542 C89.7045854,37.1666293 89.3328853,37.8211544 88.7539603,38.2574294 M88.4468352,33.2934788 C88.3392253,33.0337479 88.1817579,32.7976232 87.9833352,32.5984538 C87.7862063,32.4015454 87.5530806,32.244346 87.2966351,32.1354037 C87.0327101,32.0195287 86.739085,31.9628287 86.421385,31.9628287 C86.0928849,31.9628287 85.7965599,32.0195287 85.5326349,32.1354037 C85.2754354,32.2439595 85.0433608,32.4043437 84.8508848,32.6065538 C84.6599432,32.8083729 84.5083926,33.0440928 84.4040348,33.3015788 C84.2928862,33.5709209 84.2264623,33.8566045 84.2073847,34.1473539 L88.6488852,34.1473539 C88.6312902,33.8532054 88.5629319,33.5643192 88.4468352,33.2934788 M80.1699843,38.7531045 L80.1699843,37.5275293 L80.1402843,37.5275293 C79.8709592,38.0043044 79.5260342,38.3571044 79.1086591,38.5805295 C78.6912841,38.8041795 78.195609,38.9173545 77.627259,38.9173545 C77.1210089,38.9173545 76.6953089,38.8498545 76.3560088,38.7153045 C76.0194088,38.5807545 75.7446837,38.3895044 75.5345337,38.1388544 C75.3243837,37.8913544 75.1790337,37.5921043 75.0928587,37.2501043 C75.0091587,36.9054043 74.9661837,36.5229042 74.9661837,36.1053042 L74.9661837,31.0203036 L76.2374338,31.0203036 L76.2374338,36.2535792 C76.2374338,36.7328292 76.3776088,37.1128543 76.6550339,37.3902793 C76.9351589,37.6704044 77.3201339,37.8103544 77.807709,37.8103544 C78.195609,37.8103544 78.5322091,37.7511794 78.8179591,37.6299043 C79.1005591,37.5113293 79.3377092,37.3419043 79.5260342,37.1236543 C79.7172842,36.9027043 79.8574592,36.6466542 79.9544342,36.3532542 C80.0487092,36.0596292 80.0970843,35.7363041 80.0970843,35.3862041 L80.0970843,31.0203036 L81.3658594,31.0203036 L81.3658594,38.7531045 L80.1699843,38.7531045 Z M67.8474078,31.0203036 L67.8474078,32.2456537 L67.8771078,32.2456537 C68.4076579,31.3110036 69.242858,30.8425536 70.3901331,30.8425536 C70.8990832,30.8425536 71.3220832,30.9123036 71.6613833,31.0497786 C72.0006833,31.1899536 72.2756333,31.3839036 72.4828584,31.6343287 C72.6930084,31.8847537 72.8410584,32.1810787 72.9245334,32.5230788 C73.0107084,32.8680038 73.0512084,33.2502788 73.0512084,33.6678789 L73.0512084,38.7528795 L71.7799583,38.7528795 L71.7799583,33.5171289 C71.7799583,33.0401288 71.6427083,32.6605538 71.3623582,32.3831287 C71.0822332,32.1030037 70.6997332,31.9628287 70.2123831,31.9628287 C69.8217831,31.9628287 69.485183,32.0222287 69.202133,32.1432787 C68.916833,32.2618537 68.6796829,32.4315037 68.4911329,32.6495288 C68.2991867,32.8753565 68.154506,33.1374039 68.0656579,33.4201539 C67.9713829,33.7162539 67.9230078,34.0366539 67.9230078,34.386979 L67.9230078,38.7531045 L66.6517577,38.7531045 L66.6517577,31.0203036 L67.8474078,31.0203036 Z M64.0955324,38.2574294 C63.5163823,38.6964045 62.7891823,38.9173545 61.9112322,38.9173545 C61.2942821,38.9173545 60.758332,38.8176795 60.303157,38.6183295 C59.8506819,38.4189794 59.4684069,38.1390794 59.1610568,37.7806544 C58.8514568,37.4197543 58.6197068,36.9915793 58.4635568,36.4932042 C58.3101067,35.9950542 58.2239317,35.4537041 58.2023317,34.863754 C58.2023317,34.276504 58.2939067,33.7378539 58.4716568,33.2475788 C58.6521068,32.7602288 58.9025318,32.3372287 59.2285568,31.9790287 C59.5480797,31.6213451 59.940095,31.3357898 60.378532,31.1413536 C60.822907,30.9420036 61.3077821,30.8425536 61.8356321,30.8425536 C62.5252572,30.8425536 63.0963073,30.9825036 63.5487823,31.2678036 C64.0012574,31.5508536 64.3675574,31.9144537 64.6422825,32.3507287 C64.916032,32.7911142 65.1076806,33.2774778 65.2079325,33.7862289 C65.3130075,34.306204 65.3559825,34.799179 65.3370825,35.2678541 L59.5489569,35.2678541 C59.5370408,35.5934864 59.5770672,35.9189384 59.6675319,36.2319792 C59.7591069,36.5364042 59.9017569,36.8057293 60.1011069,37.0399543 C60.300457,37.2744043 60.556282,37.4602543 60.863407,37.6002043 C61.1732321,37.7403794 61.5368321,37.8103544 61.9569072,37.8103544 C62.4955572,37.8103544 62.9347573,37.6866044 63.2794573,37.4359543 C63.6241573,37.1882293 63.8505074,36.8082043 63.9607574,36.2992542 L65.2160325,36.2992542 C65.0463825,37.1666293 64.6719825,37.8211544 64.0955324,38.2574294 M63.7884074,33.2934788 C63.6727574,33.0241538 63.5190823,32.7924038 63.3251323,32.5986788 C63.1270555,32.4015524 62.8930344,32.2442145 62.6357322,32.1351787 C62.3718072,32.0195287 62.0808822,31.9628287 61.7629571,31.9628287 C61.4344571,31.9628287 61.1354321,32.0195287 60.871507,32.1354037 C60.6152008,32.2440309 60.384097,32.4044324 60.192682,32.6065538 C60.0008279,32.8082333 59.8482923,33.0439424 59.7429069,33.3015788 C59.6313868,33.5706653 59.5658259,33.8565625 59.5489569,34.1473539 L63.9904574,34.1473539 C63.9702653,33.8535933 63.9020085,33.5651364 63.7884074,33.2934788 M53.2678562,38.7531045 L50.3968558,31.0203036 L51.816156,31.0203036 L53.9844812,37.4656543 L54.0139562,37.4656543 L56.1228815,31.0203036 L57.4562316,31.0203036 L54.6279813,38.7531045 L53.2678562,38.7531045 Z M48.5867306,38.2574294 C48.0102805,38.6964045 47.2803805,38.9173545 46.4051304,38.9173545 C45.7857053,38.9173545 45.2495302,38.8176795 44.7970552,38.6183295 C44.3418801,38.4189794 43.9623051,38.1390794 43.65248,37.7806544 C43.342655,37.4197543 43.11113,36.9915793 42.957455,36.4932042 C42.8013049,35.9950542 42.7151299,35.4537041 42.6962299,34.863754 C42.6962299,34.276504 42.7851049,33.7378539 42.965555,33.2475788 C43.143305,32.7602288 43.39643,32.3372287 43.7197551,31.9790287 C44.0398164,31.6219406 44.4316949,31.336485 44.8697302,31.1413536 C45.3143302,30.9420036 45.8016803,30.8425536 46.3297554,30.8425536 C47.0164554,30.8425536 47.5875055,30.9825036 48.0426805,31.2678036 C48.4840445,31.5409498 48.8571438,31.9113555 49.1334807,32.3507287 C49.4080794,32.790973 49.6006395,33.2773283 49.7018307,33.7862289 C49.8069058,34.306204 49.8498808,34.799179 49.8285058,35.2678541 L44.0401551,35.2678541 C44.0322801,35.6071541 44.0698551,35.9275542 44.1616551,36.2319792 C44.2470108,36.5290538 44.3947473,36.8045064 44.5950052,37.0399543 C44.7943552,37.2744043 45.0477052,37.4602543 45.3573052,37.6002043 C45.6671303,37.7403794 46.0307303,37.8103544 46.4481054,37.8103544 C46.9869804,37.8103544 47.4286555,37.6866044 47.7733555,37.4359543 C48.1153556,37.1882293 48.3444056,36.8082043 48.4521806,36.2992542 L49.7099307,36.2992542 C49.5402807,37.1666293 49.1658807,37.8211544 48.5867306,38.2574294 M48.2796056,33.2934788 C48.1666556,33.0241538 48.0129805,32.7924038 47.8163305,32.5986788 C47.6192445,32.4016047 47.3861153,32.2442502 47.1296304,32.1351787 C46.8657054,32.0195287 46.5747804,31.9628287 46.2543803,31.9628287 C45.9256553,31.9628287 45.6293303,32.0195287 45.3656302,32.1354037 C45.1084308,32.2439595 44.8763562,32.4043437 44.6838802,32.6065538 C44.4928581,32.8083541 44.3412305,33.0440752 44.2368051,33.3015788 C44.1256604,33.5709222 44.0592366,33.8566051 44.0401551,34.1473539 L48.4816556,34.1473539 C48.4640606,33.8532054 48.3957023,33.5643192 48.2796056,33.2934788 M38.1039794,28.0764032 C39.1221045,28.0764032 39.9165796,28.3239033 40.4903297,28.8222783 C41.0613797,29.3206534 41.3496048,30.0048785 41.3496048,30.8720286 C41.3496048,31.5184536 41.2013298,32.0870287 40.9077047,32.5770788 C40.6143047,33.0644288 40.1427046,33.3983289 39.4965046,33.5790039 L39.4965046,33.6087039 C39.8034046,33.6678789 40.0567546,33.7675539 40.2507046,33.9075039 C40.4379787,34.0408543 40.5956972,34.2114415 40.7139797,34.408579 C40.8296297,34.602529 40.9131047,34.818079 40.9671047,35.057704 C41.0235797,35.2973291 41.0667797,35.5479791 41.0962547,35.8065041 C41.1151547,36.0650292 41.1313548,36.3289542 41.1394548,36.5985042 C41.1495078,36.8644687 41.1746734,37.1296466 41.2148298,37.3927543 C41.2553298,37.6515043 41.3118048,37.8967544 41.3871798,38.1307544 C41.4625548,38.3652044 41.5730298,38.5726545 41.7240048,38.7531045 L40.1375296,38.7531045 C40.0378546,38.6426295 39.9705796,38.4918794 39.9354796,38.3031044 C39.8986144,38.0930777 39.8760625,37.8807887 39.8679796,37.6677044 C39.8601046,37.4332543 39.8493046,37.1828293 39.8385046,36.9135043 C39.8281849,36.6476938 39.798481,36.3829908 39.7496296,36.1215042 C39.711925,35.8724019 39.6624445,35.625225 39.6013546,35.3808041 C39.5394796,35.1465791 39.4452046,34.942054 39.3158295,34.766779 C39.1866795,34.591729 39.0170295,34.454254 38.8068795,34.349404 C38.5994295,34.244329 38.3193044,34.1903289 37.9692044,34.1903289 L34.500154,34.1903289 L34.500154,38.7531045 L33.0806288,38.7531045 L33.0806288,28.0764032 L38.1039794,28.0764032 Z M38.4030044,32.9190788 C38.7018045,32.8707038 38.9632545,32.7737288 39.1893795,32.6281538 C39.4130296,32.4855038 39.5934796,32.2888537 39.7280296,32.0463037 C39.8628046,31.8012787 39.9300796,31.4835786 39.9300796,31.0956786 C39.9300796,30.5570285 39.7793296,30.1178285 39.4800796,29.7785284 C39.1812795,29.4419284 38.6964045,29.2722784 38.0310794,29.2722784 L34.500154,29.2722784 L34.500154,32.9944538 L37.4602543,32.9944538 C37.7760728,32.9960967 38.091459,32.9708809 38.4030044,32.9190788 M19.3819522,28.0764032 L22.7459276,37.0480543 L26.126328,28.0764032 L28.0710032,28.0764032 L28.0710032,38.7531045 L26.7241531,38.7531045 L26.7241531,29.8701035 L26.6944531,29.8701035 L23.3599527,38.7531045 L22.1481026,38.7531045 L18.8136022,29.8701035 L18.7839022,29.8701035 L18.7839022,38.7531045 L17.437277,38.7531045 L17.437277,28.0764032 L19.3819522,28.0764032 Z M8.18257595,28.0764032 L8.18257595,32.6659538 L13.8037516,32.6659538 L13.8037516,28.0764032 L15.2257518,28.0764032 L15.2257518,38.7531045 L13.8037516,38.7531045 L13.8037516,33.8616039 L8.18257595,33.8616039 L8.18257595,38.7531045 L6.76057578,38.7531045 L6.76057578,28.0764032 L8.18257595,28.0764032 Z M28.7012283,11.2504513 C28.7012283,17.464277 23.6643777,22.5009026 17.453477,22.5009026 C11.2396513,22.5009026 6.20302572,17.464277 6.20302572,11.2504513 C6.20302572,5.03662558 11.2396513,0 17.453252,0 C23.6641527,0 28.7010033,5.03662558 28.7010033,11.2504513 M17.453252,1.28745015 C11.9504264,1.28745015 7.48755086,5.74785066 7.48755086,11.2504513 C7.48755086,16.7530519 11.9504264,21.2134525 17.453252,21.2134525 C22.9558527,21.2134525 27.4162532,16.7530519 27.4162532,11.2504513 C27.4162532,5.74785066 22.9558527,1.28745015 17.453252,1.28745015 M17.450327,16.6023019 C19.4382022,16.6023019 21.3207775,16.7370769 22.9988277,16.976702 C23.4729027,14.9755517 24.0518278,13.8280516 24.6525778,13.0119765 L23.5242027,12.6105765 C23.6371527,13.1816265 23.6560527,13.4482516 23.5296027,13.8172516 C23.3437527,13.6341016 23.1687027,13.3002015 23.0312277,12.7912515 L22.4844776,14.6092517 C22.8159026,14.3802017 23.0717277,14.2321516 23.3653527,14.2240516 C22.8456026,15.3445518 22.1964776,15.6325518 21.7761775,15.5544768 C21.2645275,15.4602018 21.0273774,15.0023267 21.1081524,14.6146517 C21.2240275,14.0649766 21.7896775,13.9196266 22.0536025,14.5606517 C22.5573776,13.5317266 21.7035025,13.2113265 21.1513524,13.5155266 C21.9971275,12.6726765 22.0941026,11.9211764 21.4098775,11.0135263 C20.4590274,11.7407264 20.4482274,12.4625264 20.8766274,13.4750266 C20.3217773,12.8396265 19.4571022,13.1789265 19.7696273,14.2078516 C20.1708023,13.5884266 20.7015774,13.9788016 20.6178774,14.5660517 C20.5452024,15.0804017 19.8693023,15.4953018 19.0235272,15.4199268 C17.8141521,15.3121518 17.744177,14.4771767 17.714477,13.7850766 C18.0108021,13.7310766 18.5469771,14.0058016 19.0019272,14.6468267 L19.1688772,12.7185765 C18.6734272,13.2383265 18.2236521,13.3350765 17.722577,13.3512765 C17.8868271,12.8315265 18.6545272,11.9776514 18.6545272,11.9776514 L16.2495019,11.9776514 C16.2495019,11.9776514 17.014502,12.8315265 17.181452,13.3512765 C16.6803769,13.3350765 16.2306019,13.2381015 15.7324518,12.7183515 L15.9021018,14.6468267 C16.3599769,14.0058016 16.893227,13.7310766 17.192252,13.7850766 C17.159852,14.4771767 17.089877,15.3121518 15.8805018,15.4199268 C15.0347267,15.4953018 14.3588267,15.0804017 14.2859267,14.5660517 C14.2051516,13.9788016 14.7330017,13.5884266 15.1344017,14.2078516 C15.4469268,13.1789265 14.5822517,12.8396265 14.0274016,13.4752516 C14.4555767,12.4625264 14.4450017,11.7405014 13.4914516,11.0135263 C12.8099265,11.9211764 12.9069015,12.6726765 13.7526766,13.5155266 C13.2005265,13.2113265 12.3466514,13.5317266 12.8504265,14.5606517 C13.1143515,13.9196266 13.6800016,14.0649766 13.7958766,14.6146517 C13.8766516,15.0023267 13.6395016,15.4602018 13.1276265,15.5544768 C12.7048515,15.6325518 12.0584264,15.3445518 11.5386763,14.2240516 C11.8296014,14.2321516 12.0881264,14.3802017 12.4195514,14.6092517 L11.8728014,12.7912515 C11.7353264,13.3002015 11.5600513,13.6341016 11.3744263,13.8172516 C11.2477513,13.4482516 11.2666513,13.1816265 11.3771263,12.6105765 L10.2512262,13.0119765 C10.8492763,13.8280516 11.4311263,14.9755517 11.9049764,16.976477 C13.5830266,16.7370769 15.4631268,16.6023019 17.450777,16.6023019 M10.7820012,11.6732263 C11.2101763,11.8485014 11.6950514,11.6462263 11.8701014,11.2261513 C12.0450132,10.8007342 11.8426127,10.3140069 11.4176263,10.1380512 C10.9973263,9.96570115 10.5099762,10.1731512 10.3376262,10.5959262 C10.163607,11.016126 10.3623394,11.4979138 10.7820012,11.6732263 M12.2553014,9.4835261 C12.678484,9.65900548 13.1638762,9.459073 13.3407015,9.03645104 C13.4253299,8.83219016 13.4251806,8.60264563 13.3402867,8.39849497 C13.2553928,8.19434432 13.0927359,8.03237689 12.8882265,7.94835092 C12.4706264,7.7760009 11.9832764,7.98052592 11.8082264,8.40622597 C11.7245544,8.60836129 11.7246567,8.83546531 11.8085107,9.03752518 C11.8923647,9.23958505 12.0530935,9.40002973 12.2553014,9.4835261 M14.4774017,8.15580094 C14.6809576,8.24128954 14.910185,8.24215866 15.1143834,8.15821608 C15.3185818,8.07427349 15.4809235,7.91243675 15.5655018,7.70850089 C15.6496294,7.50425885 15.6488999,7.27491217 15.5634748,7.07120942 C15.4780497,6.86750666 15.314972,6.70624257 15.1103267,6.62310077 C14.6927267,6.45075075 14.2053766,6.65550077 14.0303266,7.07827582 C13.8577516,7.49857587 14.0573266,7.98592592 14.4774017,8.15580094 M17.8926771,5.51340064 L17.8953771,5.51070064 L18.9459022,6.0628507 L18.9459022,4.51417552 L17.8951521,4.84537556 L17.8926771,4.84290056 C17.8634358,4.80421835 17.8289843,4.76976686 17.7903021,4.74052555 L17.7876021,4.73782555 L18.2103771,3.40987539 L16.6938769,3.40987539 L17.116877,4.73782555 L17.114177,4.74052555 C17.073677,4.77000055 17.041502,4.80510056 17.011802,4.84290056 L17.009102,4.84537556 L15.9585768,4.51417552 L15.9585768,6.0628507 L17.009102,5.51070064 L17.011802,5.51340064 C17.044202,5.55390064 17.079302,5.59147565 17.119577,5.62140065 L16.5188269,7.44187586 C16.5161269,7.44187586 16.5161269,7.44457586 16.5161269,7.44727586 L16.5161269,7.44997586 C16.4858869,7.54221122 16.4704703,7.63865984 16.4704519,7.73572589 C16.4708258,8.22183592 16.8272189,8.63432523 17.308127,8.70525101 C17.316002,8.70772601 17.321627,8.70772601 17.329502,8.70772601 C17.4108923,8.71857181 17.4933618,8.71857181 17.574752,8.70772601 C17.582627,8.70772601 17.588252,8.70772601 17.596127,8.70525101 C18.0771196,8.63431271 18.4335397,8.22169631 18.4338021,7.73550089 C18.4338021,7.63582588 18.4176021,7.54155087 18.3881271,7.44997586 L18.3881271,7.44750086 C18.3881271,7.44480086 18.3881271,7.44210086 18.3852021,7.44210086 L17.7819771,5.62140065 C17.8249521,5.59170065 17.8600521,5.55390064 17.8922271,5.51362564 M24.1065028,11.6734513 C23.6783277,11.8487264 23.1934527,11.6464513 23.0211027,11.2263763 C22.9364614,11.0221437 22.9365786,10.7926227 23.0214284,10.5884767 C23.1062782,10.3843306 23.2688839,10.2223452 23.4733527,10.1382762 C23.8909528,9.96592615 24.3785278,10.1733762 24.5535778,10.5961512 C24.6372498,10.7982865 24.6371475,11.0253906 24.5532935,11.2274504 C24.4694395,11.4295103 24.3087107,11.589955 24.1065028,11.6734513 M22.6359026,9.4837511 C22.2075026,9.65880112 21.7228525,9.45675109 21.5478025,9.03667604 C21.3728649,8.61132108 21.5751541,8.12461938 22.0000525,7.94857592 C22.4203526,7.7762259 22.9079276,7.98075092 23.0829777,8.40645097 C23.2553277,8.82652602 23.0532777,9.31140108 22.6359026,9.4837511 M17.7714021,11.0970013 C17.3474751,11.2717787 16.8621294,11.0698031 16.6873519,10.6458762 C16.5125745,10.2219493 16.7145501,9.73660354 17.138477,9.5618261 C17.558777,9.38947608 18.0463521,9.59422611 18.2184771,10.0170012 C18.3024479,10.2194731 18.3025429,10.4470106 18.2187411,10.6495526 C18.1349394,10.8520946 17.9741063,11.013048 17.7716271,11.0970013 M20.4138024,8.15602594 C20.2102464,8.24151454 19.981019,8.24238366 19.7768206,8.15844108 C19.5726223,8.07449849 19.4102806,7.91266175 19.3257022,7.70872589 C19.2417202,7.50482277 19.2421885,7.27590734 19.3270043,7.07234958 C19.41182,6.86879183 19.5740337,6.70727029 19.7779523,6.62332577 C20.1982523,6.45097575 20.6858274,6.65572577 20.8581774,7.07850082 C21.0332274,7.49880087 20.8311774,7.98615092 20.4138024,8.15602594" id="Shape" fill="#000000"></path>
            <polygon id="Path" fill="#747474" points="0 53.7070562 1.42200016 53.7070562 1.42200016 0.0189000022 0 0.0189000022"></polygon>
        </g>
    </g>
</svg>