<?xml version="1.0" encoding="UTF-8"?>
<svg width="90px" height="18.75px" viewBox="0 0 90 18.75" version="1.1" xmlns="http://www.w3.org/2000/svg" xmlns:xlink="http://www.w3.org/1999/xlink">
    <title>leeds-building-society-logo-vector</title>
    <g id="Page-1" stroke="none" stroke-width="1" fill="none" fill-rule="evenodd">
        <g id="leeds-building-society-logo-vector" fill-rule="nonzero">
            <polygon id="Path" fill="#D1D1D1" points="0 0 11.775 0 1.0658141e-15 8.295"></polygon>
            <polygon id="Path" fill="#B7B7B7" points="11.775 0 23.55 0 23.55 8.295"></polygon>
            <path d="M85.11,18.39 C85.275,18.51 85.455,18.6 85.635,18.66 C85.83,18.72 86.04,18.75 86.28,18.75 C86.58,18.75 86.835,18.69 87.045,18.57 C87.24,18.45 87.42,18.3 87.555,18.105 C87.69,17.91 87.81,17.7 87.915,17.46 C88.005,17.22 88.11,16.98 88.215,16.74 L90,12.405 L88.575,12.405 L87.585,15.165 L86.49,12.405 L84.96,12.405 L86.955,16.725 L86.82,17.085 C86.73,17.295 86.64,17.46 86.55,17.55 C86.46,17.64 86.34,17.685 86.19,17.685 C86.085,17.685 85.98,17.67 85.89,17.625 C85.8,17.58 85.725,17.535 85.65,17.475 L85.11,18.39 Z M82.035,15.105 C82.035,15.375 82.065,15.63 82.125,15.855 C82.185,16.08 82.275,16.275 82.41,16.425 C82.545,16.59 82.71,16.71 82.92,16.8 C83.13,16.89 83.385,16.935 83.7,16.935 C84.195,16.935 84.66,16.77 85.08,16.425 L84.54,15.6 C84.45,15.66 84.36,15.72 84.255,15.765 C84.15,15.81 84.045,15.84 83.895,15.84 C83.715,15.84 83.58,15.78 83.505,15.675 C83.415,15.555 83.385,15.39 83.385,15.18 L83.385,13.455 L84.51,13.455 L84.51,12.405 L83.385,12.405 L83.385,11.085 L82.05,11.085 L82.05,12.405 L81.36,12.405 L81.36,13.455 L82.05,13.455 L82.035,15.105 L82.035,15.105 Z M77.835,14.13 C77.835,14.04 77.85,13.935 77.895,13.845 C77.94,13.755 78,13.665 78.075,13.575 C78.15,13.5 78.255,13.425 78.375,13.38 C78.495,13.32 78.63,13.305 78.78,13.305 C78.93,13.305 79.065,13.335 79.185,13.38 C79.29,13.44 79.395,13.5 79.47,13.575 C79.545,13.65 79.605,13.74 79.635,13.845 C79.665,13.935 79.695,14.04 79.695,14.13 L77.835,14.13 Z M80.295,15.45 C80.19,15.525 80.04,15.615 79.815,15.72 C79.605,15.825 79.32,15.87 78.96,15.87 C78.6,15.87 78.33,15.78 78.12,15.6 C77.925,15.42 77.82,15.21 77.805,14.985 L80.91,14.985 L80.91,14.76 C80.91,14.4 80.865,14.055 80.775,13.755 C80.685,13.44 80.55,13.185 80.355,12.96 C80.175,12.735 79.95,12.57 79.68,12.45 C79.41,12.33 79.095,12.27 78.75,12.27 C78.39,12.27 78.075,12.33 77.805,12.465 C77.535,12.6 77.295,12.765 77.1,12.975 C76.905,13.185 76.755,13.44 76.65,13.71 C76.545,13.995 76.5,14.28 76.5,14.595 C76.5,14.94 76.56,15.255 76.665,15.555 C76.77,15.84 76.935,16.095 77.145,16.29 C77.355,16.5 77.61,16.65 77.91,16.77 C78.21,16.89 78.54,16.935 78.915,16.935 C79.2,16.935 79.44,16.905 79.665,16.86 C79.875,16.8 80.07,16.74 80.235,16.68 C80.4,16.605 80.52,16.545 80.625,16.47 C80.73,16.395 80.805,16.35 80.85,16.32 L80.295,15.45 Z M74.535,16.785 L75.87,16.785 L75.87,12.42 L74.535,12.42 L74.535,16.785 Z M74.49,11.76 L75.93,11.76 L75.93,10.56 L74.49,10.56 L74.49,11.76 Z M73.11,15.33 C73.02,15.435 72.9,15.54 72.735,15.63 C72.585,15.72 72.39,15.765 72.15,15.765 C71.985,15.765 71.85,15.735 71.715,15.66 C71.595,15.585 71.475,15.51 71.385,15.39 C71.295,15.285 71.22,15.15 71.175,15.015 C71.13,14.88 71.1,14.73 71.1,14.595 C71.1,14.445 71.13,14.295 71.175,14.145 C71.22,14.01 71.295,13.89 71.385,13.77 C71.475,13.665 71.58,13.575 71.715,13.515 C71.835,13.455 71.985,13.41 72.15,13.41 C72.39,13.41 72.57,13.455 72.72,13.545 C72.87,13.635 72.99,13.725 73.08,13.845 L73.89,12.975 C73.695,12.75 73.44,12.585 73.155,12.45 C72.87,12.315 72.525,12.255 72.12,12.255 C71.775,12.255 71.46,12.315 71.175,12.435 C70.89,12.555 70.635,12.72 70.425,12.93 C70.215,13.14 70.05,13.395 69.93,13.665 C69.81,13.95 69.75,14.25 69.75,14.58 C69.75,14.925 69.81,15.24 69.915,15.525 C70.035,15.81 70.185,16.065 70.395,16.26 C70.605,16.47 70.845,16.635 71.13,16.74 C71.415,16.86 71.745,16.905 72.09,16.905 C72.495,16.905 72.84,16.83 73.14,16.695 C73.44,16.545 73.68,16.38 73.86,16.185 L73.11,15.33 Z M64.83,15.495 C64.95,15.78 65.1,16.02 65.31,16.23 C65.52,16.44 65.76,16.605 66.045,16.74 C66.33,16.86 66.645,16.92 67.005,16.92 C67.35,16.92 67.665,16.86 67.95,16.74 C68.235,16.62 68.475,16.455 68.685,16.23 C68.895,16.02 69.045,15.765 69.165,15.495 C69.285,15.21 69.33,14.91 69.33,14.58 C69.33,14.25 69.27,13.95 69.165,13.665 C69.045,13.38 68.895,13.14 68.685,12.93 C68.475,12.72 68.235,12.555 67.95,12.435 C67.665,12.315 67.35,12.255 67.005,12.255 C66.66,12.255 66.345,12.315 66.045,12.435 C65.76,12.555 65.505,12.72 65.31,12.93 C65.1,13.14 64.95,13.395 64.83,13.665 C64.71,13.95 64.665,14.25 64.665,14.58 C64.665,14.91 64.725,15.21 64.83,15.495 Z M66.555,15.66 C66.42,15.6 66.315,15.51 66.225,15.39 C66.135,15.285 66.075,15.15 66.03,15.015 C65.985,14.88 65.955,14.73 65.955,14.58 C65.955,14.43 65.985,14.28 66.03,14.145 C66.075,14.01 66.15,13.875 66.225,13.77 C66.315,13.665 66.42,13.575 66.555,13.515 C66.69,13.455 66.84,13.41 67.005,13.41 C67.17,13.41 67.32,13.44 67.455,13.515 C67.59,13.575 67.695,13.665 67.785,13.77 C67.875,13.875 67.935,14.01 67.98,14.145 C68.025,14.28 68.04,14.43 68.04,14.58 C68.04,14.73 68.025,14.88 67.98,15.015 C67.935,15.15 67.875,15.285 67.785,15.39 C67.695,15.495 67.59,15.585 67.455,15.66 C67.32,15.72 67.17,15.765 67.005,15.765 C66.84,15.765 66.69,15.735 66.555,15.66 Z M59.265,15.9 C59.385,16.035 59.52,16.155 59.685,16.275 C59.85,16.395 60.03,16.515 60.24,16.605 C60.45,16.695 60.675,16.785 60.93,16.845 C61.185,16.905 61.47,16.935 61.785,16.935 C62.115,16.935 62.43,16.89 62.715,16.785 C63,16.695 63.255,16.56 63.465,16.38 C63.675,16.2 63.855,16.005 63.975,15.765 C64.095,15.525 64.155,15.27 64.155,14.985 C64.155,14.655 64.095,14.385 63.99,14.16 C63.885,13.935 63.75,13.74 63.57,13.59 C63.39,13.44 63.195,13.305 62.985,13.215 C62.76,13.125 62.535,13.05 62.31,12.99 C61.92,12.9 61.605,12.795 61.38,12.66 C61.155,12.525 61.05,12.36 61.05,12.15 C61.05,12.075 61.08,12 61.125,11.925 C61.17,11.85 61.23,11.79 61.305,11.745 C61.38,11.685 61.47,11.655 61.56,11.625 C61.65,11.595 61.755,11.58 61.86,11.58 C62.01,11.58 62.145,11.595 62.28,11.64 C62.415,11.67 62.535,11.73 62.655,11.775 C62.775,11.82 62.865,11.895 62.955,11.955 C63.045,12.015 63.12,12.075 63.195,12.135 L64.005,11.235 C63.945,11.175 63.87,11.1 63.765,11.01 C63.66,10.92 63.51,10.815 63.345,10.725 C63.18,10.635 62.97,10.56 62.73,10.485 C62.49,10.41 62.205,10.38 61.89,10.38 C61.5,10.38 61.17,10.425 60.885,10.53 C60.6,10.635 60.36,10.77 60.18,10.95 C59.985,11.13 59.85,11.325 59.76,11.565 C59.67,11.79 59.625,12.045 59.625,12.3 C59.625,12.54 59.67,12.75 59.745,12.945 C59.82,13.14 59.94,13.305 60.09,13.455 C60.24,13.605 60.405,13.725 60.615,13.83 C60.81,13.935 61.035,14.01 61.275,14.07 C61.755,14.19 62.115,14.325 62.34,14.445 C62.565,14.565 62.67,14.745 62.67,14.985 C62.67,15.09 62.64,15.18 62.595,15.27 C62.535,15.36 62.475,15.42 62.385,15.48 C62.295,15.54 62.205,15.585 62.1,15.615 C61.995,15.645 61.89,15.66 61.785,15.66 C61.605,15.66 61.44,15.63 61.275,15.585 C61.11,15.54 60.975,15.48 60.84,15.405 C60.705,15.33 60.585,15.255 60.48,15.165 C60.375,15.075 60.27,14.985 60.195,14.895 L59.265,15.9 Z M55.95,14.835 C55.95,15.12 55.875,15.33 55.725,15.465 C55.575,15.6 55.365,15.66 55.095,15.66 C54.81,15.66 54.585,15.57 54.435,15.375 C54.285,15.195 54.21,14.94 54.21,14.625 C54.21,14.46 54.24,14.31 54.285,14.16 C54.33,14.01 54.405,13.89 54.495,13.785 C54.585,13.68 54.705,13.59 54.855,13.53 C55.005,13.47 55.17,13.425 55.365,13.425 C55.515,13.425 55.62,13.44 55.71,13.455 C55.8,13.47 55.89,13.5 55.965,13.53 L55.965,14.835 L55.95,14.835 Z M53.22,18.285 C53.46,18.45 53.73,18.57 54.015,18.645 C54.3,18.72 54.645,18.75 55.035,18.75 C55.725,18.75 56.265,18.57 56.67,18.24 C57.06,17.895 57.27,17.355 57.27,16.635 L57.27,12.645 C57.015,12.555 56.715,12.48 56.385,12.405 C56.055,12.33 55.71,12.315 55.35,12.315 C54.975,12.315 54.63,12.375 54.315,12.48 C54.015,12.585 53.745,12.75 53.52,12.96 C53.295,13.17 53.13,13.41 53.01,13.71 C52.89,13.995 52.83,14.325 52.83,14.67 C52.83,14.97 52.875,15.255 52.965,15.51 C53.055,15.765 53.19,15.99 53.355,16.17 C53.52,16.35 53.73,16.5 53.97,16.605 C54.21,16.71 54.495,16.755 54.81,16.755 C55.275,16.755 55.65,16.635 55.935,16.395 L55.935,16.695 C55.935,17.025 55.845,17.265 55.68,17.415 C55.5,17.58 55.26,17.655 54.96,17.655 C54.72,17.655 54.51,17.625 54.315,17.565 C54.12,17.505 53.94,17.43 53.76,17.325 L53.22,18.285 Z M48,16.785 L49.335,16.785 L49.335,14.43 C49.335,14.295 49.35,14.175 49.395,14.055 C49.425,13.935 49.485,13.845 49.56,13.755 C49.635,13.665 49.725,13.605 49.845,13.545 C49.95,13.485 50.085,13.47 50.235,13.47 C50.445,13.47 50.625,13.545 50.745,13.68 C50.865,13.83 50.925,14.01 50.925,14.265 L50.925,16.785 L52.26,16.785 L52.26,14.085 C52.26,13.5 52.11,13.065 51.81,12.765 C51.51,12.465 51.12,12.315 50.61,12.315 C50.355,12.315 50.115,12.375 49.875,12.48 C49.635,12.585 49.455,12.72 49.305,12.9 L49.275,12.42 L47.985,12.42 L47.985,16.785 L48,16.785 Z M45.81,16.785 L47.145,16.785 L47.145,12.42 L45.81,12.42 L45.81,16.785 Z M45.765,11.76 L47.205,11.76 L47.205,10.56 L45.765,10.56 L45.765,11.76 Z M43.635,14.805 C43.635,14.925 43.62,15.045 43.59,15.165 C43.56,15.285 43.5,15.39 43.44,15.48 C43.365,15.57 43.275,15.63 43.17,15.69 C43.065,15.75 42.93,15.765 42.78,15.765 C42.465,15.765 42.24,15.66 42.075,15.465 C41.925,15.27 41.835,15 41.835,14.685 C41.835,14.325 41.925,14.025 42.12,13.8 C42.315,13.575 42.57,13.455 42.915,13.455 C43.08,13.455 43.215,13.47 43.32,13.485 C43.425,13.515 43.53,13.545 43.62,13.605 L43.635,14.805 L43.635,14.805 L43.635,14.805 Z M43.725,16.785 L44.97,16.785 L44.97,10.575 L43.635,10.575 L43.635,12.48 C43.515,12.435 43.395,12.405 43.275,12.375 C43.155,12.345 42.99,12.33 42.78,12.33 C42.525,12.33 42.255,12.375 41.985,12.48 C41.715,12.57 41.475,12.72 41.25,12.915 C41.025,13.11 40.845,13.35 40.71,13.65 C40.575,13.95 40.5,14.295 40.5,14.685 C40.5,15.03 40.545,15.345 40.65,15.615 C40.755,15.885 40.89,16.125 41.055,16.32 C41.22,16.515 41.43,16.665 41.655,16.77 C41.895,16.875 42.135,16.935 42.405,16.935 C42.675,16.935 42.915,16.875 43.14,16.77 C43.35,16.665 43.53,16.53 43.665,16.365 L43.725,16.785 Z M38.55,16.785 L39.885,16.785 L39.885,10.575 L38.55,10.575 L38.55,16.785 Z M36.375,16.785 L37.71,16.785 L37.71,12.42 L36.375,12.42 L36.375,16.785 Z M36.33,11.76 L37.77,11.76 L37.77,10.56 L36.33,10.56 L36.33,11.76 Z M31.275,15.12 C31.275,15.705 31.425,16.14 31.71,16.44 C31.995,16.74 32.4,16.89 32.91,16.89 C33.165,16.89 33.405,16.83 33.645,16.725 C33.885,16.62 34.065,16.485 34.215,16.305 L34.245,16.77 L35.535,16.77 L35.535,12.405 L34.2,12.405 L34.2,14.76 C34.2,14.88 34.185,15 34.14,15.12 C34.11,15.24 34.05,15.345 33.975,15.435 C33.9,15.525 33.81,15.585 33.705,15.645 C33.6,15.705 33.48,15.72 33.345,15.72 C33.105,15.72 32.925,15.645 32.805,15.51 C32.685,15.36 32.625,15.165 32.625,14.925 L32.625,12.405 L31.29,12.405 L31.275,15.12 L31.275,15.12 Z M27.24,15.705 L27.24,14.085 L28.155,14.085 C28.26,14.085 28.38,14.1 28.5,14.115 C28.62,14.13 28.74,14.175 28.845,14.235 C28.95,14.295 29.04,14.37 29.1,14.475 C29.175,14.58 29.205,14.715 29.205,14.88 C29.205,15.06 29.175,15.21 29.1,15.315 C29.025,15.42 28.935,15.495 28.83,15.555 C28.725,15.615 28.605,15.645 28.485,15.66 C28.365,15.675 28.245,15.69 28.155,15.69 L27.24,15.69 L27.24,15.705 Z M27.24,13.05 L27.24,11.655 L28.065,11.655 C28.17,11.655 28.26,11.67 28.365,11.685 C28.47,11.7 28.56,11.745 28.635,11.79 C28.71,11.85 28.785,11.91 28.83,12 C28.875,12.09 28.905,12.21 28.905,12.345 C28.905,12.48 28.875,12.585 28.83,12.675 C28.785,12.765 28.71,12.84 28.635,12.885 C28.56,12.945 28.47,12.975 28.365,13.005 C28.26,13.035 28.155,13.035 28.05,13.035 L27.24,13.035 L27.24,13.05 Z M25.875,16.785 L28.2,16.785 C28.575,16.785 28.905,16.755 29.205,16.68 C29.505,16.62 29.76,16.515 29.97,16.365 C30.18,16.215 30.345,16.035 30.45,15.81 C30.57,15.585 30.615,15.315 30.615,14.985 C30.615,14.73 30.57,14.52 30.48,14.34 C30.39,14.16 30.285,14.01 30.15,13.89 C30.015,13.77 29.88,13.68 29.73,13.605 C29.58,13.545 29.46,13.5 29.34,13.47 C29.415,13.455 29.505,13.41 29.61,13.35 C29.715,13.29 29.82,13.2 29.91,13.095 C30,12.99 30.09,12.855 30.165,12.705 C30.24,12.555 30.27,12.375 30.27,12.18 C30.27,11.97 30.24,11.76 30.165,11.565 C30.09,11.37 29.97,11.19 29.805,11.055 C29.64,10.92 29.415,10.785 29.16,10.695 C28.89,10.605 28.56,10.56 28.185,10.56 L25.86,10.56 L25.86,16.785 L25.875,16.785 Z M19.74,16.29 C19.95,16.515 20.235,16.665 20.595,16.77 C20.94,16.875 21.315,16.935 21.705,16.935 C21.945,16.935 22.185,16.905 22.425,16.845 C22.665,16.785 22.86,16.71 23.055,16.59 C23.235,16.47 23.385,16.335 23.49,16.155 C23.595,15.975 23.655,15.78 23.655,15.525 C23.655,15.165 23.55,14.88 23.355,14.655 C23.16,14.445 22.83,14.265 22.38,14.145 C22.05,14.055 21.795,13.98 21.6,13.905 C21.405,13.83 21.315,13.725 21.315,13.59 C21.315,13.485 21.36,13.41 21.45,13.35 C21.54,13.29 21.69,13.26 21.9,13.26 C22.125,13.26 22.335,13.29 22.515,13.365 C22.695,13.44 22.86,13.53 23.01,13.62 L23.58,12.735 C23.34,12.57 23.085,12.45 22.8,12.36 C22.515,12.27 22.2,12.24 21.825,12.24 C21.57,12.24 21.315,12.27 21.09,12.345 C20.865,12.405 20.67,12.51 20.505,12.63 C20.34,12.75 20.205,12.9 20.115,13.065 C20.025,13.23 19.98,13.41 19.98,13.62 C19.98,13.815 20.025,13.995 20.1,14.145 C20.175,14.295 20.28,14.415 20.4,14.52 C20.52,14.625 20.67,14.715 20.835,14.79 C21,14.865 21.165,14.925 21.33,14.955 C21.54,15.015 21.705,15.06 21.84,15.105 C21.975,15.15 22.08,15.195 22.155,15.225 C22.23,15.27 22.275,15.315 22.305,15.36 C22.335,15.405 22.35,15.465 22.35,15.51 C22.35,15.66 22.29,15.75 22.155,15.795 C22.02,15.84 21.855,15.87 21.66,15.87 C21.45,15.87 21.21,15.825 20.985,15.735 C20.745,15.645 20.565,15.54 20.415,15.405 L19.74,16.29 Z M17.82,14.805 C17.82,14.925 17.805,15.045 17.775,15.165 C17.745,15.285 17.685,15.39 17.625,15.48 C17.55,15.57 17.46,15.63 17.355,15.69 C17.25,15.75 17.115,15.765 16.965,15.765 C16.65,15.765 16.425,15.66 16.26,15.465 C16.11,15.27 16.02,15 16.02,14.685 C16.02,14.325 16.11,14.025 16.305,13.8 C16.5,13.575 16.755,13.455 17.1,13.455 C17.265,13.455 17.4,13.47 17.505,13.485 C17.61,13.515 17.715,13.545 17.805,13.605 L17.82,14.805 L17.82,14.805 L17.82,14.805 Z M17.91,16.785 L19.155,16.785 L19.155,10.575 L17.82,10.575 L17.82,12.48 C17.7,12.435 17.58,12.405 17.46,12.375 C17.34,12.345 17.175,12.33 16.965,12.33 C16.71,12.33 16.44,12.375 16.17,12.48 C15.9,12.57 15.66,12.72 15.435,12.915 C15.21,13.11 15.03,13.35 14.895,13.65 C14.76,13.95 14.685,14.295 14.685,14.685 C14.685,15.03 14.73,15.345 14.835,15.615 C14.94,15.885 15.075,16.125 15.24,16.32 C15.405,16.515 15.615,16.665 15.84,16.77 C16.08,16.875 16.32,16.935 16.59,16.935 C16.86,16.935 17.1,16.875 17.325,16.77 C17.535,16.665 17.715,16.53 17.85,16.365 L17.91,16.785 Z M10.995,14.13 C10.995,14.04 11.01,13.935 11.055,13.845 C11.1,13.755 11.16,13.665 11.235,13.575 C11.31,13.5 11.415,13.425 11.535,13.38 C11.655,13.32 11.79,13.305 11.94,13.305 C12.09,13.305 12.225,13.335 12.345,13.38 C12.45,13.44 12.555,13.5 12.63,13.575 C12.705,13.65 12.765,13.74 12.795,13.845 C12.825,13.935 12.855,14.04 12.855,14.13 L10.995,14.13 Z M13.47,15.45 C13.365,15.525 13.215,15.615 12.99,15.72 C12.78,15.825 12.495,15.87 12.135,15.87 C11.775,15.87 11.505,15.78 11.295,15.6 C11.1,15.42 10.995,15.21 10.98,14.985 L14.115,14.985 L14.115,14.76 C14.115,14.4 14.07,14.055 13.98,13.755 C13.89,13.44 13.755,13.185 13.56,12.96 C13.38,12.735 13.155,12.57 12.885,12.45 C12.615,12.33 12.3,12.27 11.955,12.27 C11.595,12.27 11.28,12.33 11.01,12.465 C10.725,12.585 10.5,12.765 10.305,12.975 C10.11,13.185 9.96,13.44 9.855,13.71 C9.75,13.995 9.705,14.28 9.705,14.595 C9.705,14.94 9.765,15.255 9.87,15.555 C9.975,15.84 10.14,16.095 10.35,16.29 C10.56,16.5 10.815,16.65 11.115,16.77 C11.415,16.89 11.745,16.935 12.12,16.935 C12.405,16.935 12.645,16.905 12.87,16.86 C13.08,16.8 13.275,16.74 13.44,16.68 C13.605,16.605 13.725,16.545 13.83,16.47 C13.935,16.395 14.01,16.35 14.055,16.32 L13.47,15.45 Z M6.015,14.13 C6.015,14.04 6.03,13.935 6.075,13.845 C6.12,13.755 6.18,13.665 6.255,13.575 C6.33,13.5 6.435,13.425 6.555,13.38 C6.675,13.32 6.81,13.305 6.96,13.305 C7.11,13.305 7.245,13.335 7.365,13.38 C7.47,13.44 7.575,13.5 7.65,13.575 C7.725,13.65 7.785,13.74 7.815,13.845 C7.845,13.935 7.875,14.04 7.875,14.13 L6.015,14.13 Z M8.49,15.45 C8.385,15.525 8.235,15.615 8.01,15.72 C7.8,15.825 7.515,15.87 7.155,15.87 C6.795,15.87 6.525,15.78 6.315,15.6 C6.12,15.42 6.015,15.21 6,14.985 L9.105,14.985 L9.105,14.76 C9.105,14.4 9.06,14.055 8.97,13.755 C8.88,13.44 8.745,13.185 8.55,12.96 C8.37,12.735 8.145,12.57 7.875,12.45 C7.605,12.33 7.29,12.27 6.945,12.27 C6.585,12.27 6.27,12.33 6,12.465 C5.715,12.585 5.49,12.765 5.295,12.975 C5.1,13.185 4.95,13.44 4.845,13.71 C4.74,13.98 4.695,14.28 4.695,14.595 C4.695,14.94 4.755,15.255 4.86,15.555 C4.965,15.84 5.13,16.095 5.34,16.29 C5.55,16.5 5.805,16.65 6.105,16.77 C6.405,16.89 6.735,16.935 7.11,16.935 C7.395,16.935 7.635,16.905 7.86,16.86 C8.07,16.8 8.265,16.74 8.43,16.68 C8.595,16.605 8.715,16.545 8.82,16.47 C8.925,16.395 9,16.35 9.045,16.32 L8.49,15.45 Z M0,16.785 L4.38,16.785 L4.38,15.525 L1.41,15.525 L1.41,10.56 L0,10.56 L0,16.785 Z" id="Shape" fill="#262626"></path>
        </g>
    </g>
</svg>