<?xml version="1.0" encoding="UTF-8"?>
<svg width="60px" height="46.7521968px" viewBox="0 0 60 46.7521968" version="1.1" xmlns="http://www.w3.org/2000/svg" xmlns:xlink="http://www.w3.org/1999/xlink">
    <title>NHS_Digital_logo</title>
    <g id="Page-1" stroke="none" stroke-width="1" fill="none" fill-rule="evenodd">
        <g id="NHS_Digital_logo" transform="translate(-0.000000, 0.000000)" fill-rule="nonzero">
            <g id="g25717" transform="translate(30.000000, 23.376098) scale(-1, 1) rotate(-180.000000) translate(-30.000000, -23.376098) translate(0.000000, -0.000000)">
                <polygon id="path25645" fill="#FFFFFF" points="1.12363142 22.5909147 59.9984017 22.5909147 59.9984017 46.4453158 1.12363142 46.4453158"></polygon>
                <g id="g25647" transform="translate(0.000000, 3.784865)">
                    <g id="g25649-Clipped" transform="translate(0.000000, 0.000000)">
                        <g id="g25649" transform="translate(0.000000, 0.000000)">
                            <g id="g25655" transform="translate(0.000000, 18.806049)" fill="#515151">
                                <path d="M57.751938,21.3002564 L56.4900503,17.4274825 C55.4830976,17.8997915 54.1101255,18.3169578 52.1793335,18.3169578 C50.108687,18.3169578 48.4264365,18.0132735 48.4264365,16.4508978 C48.4264365,13.6945632 56.015344,14.7238932 56.015344,8.8164345 C56.015344,3.44122253 51.0021578,2.0466723 46.4668745,2.0466723 C44.4505714,2.0466723 42.1257892,2.52217796 40.4195637,3.05202714 L41.651882,7.00871379 C42.6844082,6.33901001 44.7590506,5.89307361 46.4668745,5.89307361 C48.0923839,5.89307361 50.6385359,6.20075374 50.6385359,8.20586924 C50.6385359,11.3266249 43.0488292,10.1558421 43.0488292,15.6421386 C43.0488292,20.6593227 47.4738272,22.1641583 51.7597698,22.1641583 C54.169264,22.1641583 56.4357069,21.9108217 57.751938,21.3002564 M42.7139775,21.8301056 L38.6534005,2.38312252 L33.4180452,2.38312252 L35.1546392,10.712863 L28.963478,10.712863 L27.2276832,2.38312252 L21.9931271,2.38312252 L26.0545033,21.8301056 L31.2882602,21.8301056 L29.7506593,14.3906396 L35.9386238,14.3906396 L37.4794214,21.8301056 L42.7139775,21.8301056 Z M24.1237113,21.8301056 L19.9816191,2.38312252 L13.4811796,2.38312252 L9.39502917,15.8395333 L9.33908735,15.8395333 L6.62031487,2.38312252 L1.69184049,2.38312252 L5.86669863,21.8301056 L12.3879166,21.8301056 L16.3949493,8.34412551 L16.4500919,8.34412551 L19.1936386,21.8301056 L24.1237113,21.8301056 Z M60,24.1612821 L4.31274307e-14,24.1612821 L4.31274307e-14,0 L60,0 L60,24.1612821 Z" id="path25657"></path>
                            </g>
                            <g id="g25659" transform="translate(10.580197, 0.000000)" fill="#000000">
                                <path d="M4.08243539e-14,11.8980309 L3.25581395,11.8980309 C6.90322065,11.8980309 10.1254695,10.670507 10.1254695,5.94901545 C10.1254695,1.22672471 6.90322065,0 3.25581395,0 L4.08243539e-14,0 L4.08243539e-14,11.8980309 Z M2.38631823,1.87485092 L3.71613522,1.87485092 C5.71006154,1.87485092 7.63685767,3.35810894 7.63685767,5.94901545 C7.63685767,8.53992196 5.71006154,10.02318 3.71613522,10.02318 L2.38631823,10.02318 L2.38631823,1.87485092 Z" id="path25661"></path>
                            </g>
                        </g>
                    </g>
                </g>
                <path d="M36.8656597,16.3478049 L39.1496843,16.3478049 L39.1496843,14.1660731 L36.8656597,14.1660731 L36.8656597,16.3478049 Z M36.8656597,12.5637388 L39.1496843,12.5637388 L39.1496843,3.78486528 L36.8656597,3.78486528 L36.8656597,12.5637388 Z" id="path25663" fill="#000000"></path>
                <g id="g25665" transform="translate(40.616159, 3.580278)" fill="#000000">
                    <g id="g25667-Clipped" transform="translate(0.000000, 0.000000)">
                        <g id="g25667" transform="translate(0.000000, 0.000000)">
                            <g id="g25673" transform="translate(0.000000, 0.000000)">
                                <path d="M1.68784464,7.31319726 L4.07992992e-14,7.31319726 L4.07992992e-14,8.98346086 L1.68784464,8.98346086 L1.68784464,10.7400347 L3.97186926,11.4728729 L3.97186926,8.98346086 L6.000959,8.98346086 L6.000959,7.31319726 L3.97186926,7.31319726 L3.97186926,3.22225017 C3.97186926,2.4718303 4.17645649,1.77335643 5.04595221,1.77335643 C5.45512667,1.77335643 5.84671941,1.85886754 6.0856709,2.01150885 L6.15360026,0.204587313 C5.67649644,0.0687285503 5.14824582,0 4.46655478,0 C2.67641653,0 1.68784464,1.10844767 1.68784464,2.84743982 L1.68784464,7.31319726 Z" id="path25675"></path>
                            </g>
                            <g id="g25677" transform="translate(7.347559, 0.000000)">
                                <path d="M0.954207624,8.52313941 C1.84048589,8.93231403 3.03364501,9.18804818 4.00543435,9.18804818 C6.68185088,9.18804818 7.79029809,8.07960051 7.79029809,5.488694 L7.79029809,4.36346378 C7.79029809,3.47718514 7.80708064,2.81307555 7.82386318,2.16494934 C7.8414449,1.50004057 7.87500999,0.886278632 7.9261568,0.204587313 L5.91464877,0.204587313 C5.8291377,0.664908766 5.8291377,1.24430643 5.81235515,1.51682312 L5.77879006,1.51682312 C5.24974027,0.545832557 4.10772796,0 3.06800927,0 C1.5168225,0 4.07992992e-14,0.93742546 4.07992992e-14,2.60768907 C4.07992992e-14,3.92072405 0.630544234,4.68792647 1.50003996,5.11388365 C2.36953568,5.53984082 3.49476544,5.62535193 4.44897307,5.62535193 L5.71006154,5.62535193 C5.71006154,7.03988139 5.0795173,7.51778457 3.73291777,7.51778457 C2.76112843,7.51778457 1.79013826,7.14217505 1.02293615,6.56277739 L0.954207624,8.52313941 Z M3.63062415,1.67026361 C4.32989691,1.67026361 4.87493007,1.97714458 5.23295772,2.45504775 C5.60776792,2.94893431 5.71006154,3.5794788 5.71006154,4.26196929 L4.72148965,4.26196929 C3.6985535,4.26196929 2.181731,4.09094708 2.181731,2.744347 C2.181731,1.9947263 2.81227523,1.67026361 3.63062415,1.67026361" id="path25679"></path>
                            </g>
                        </g>
                    </g>
                </g>
                <polygon id="path25681" fill="#000000" points="57.714377 16.569974 59.9984017 16.569974 59.9984017 3.78566445 57.714377 3.78566445"></polygon>
                <path d="M22.3935107,16.3478049 L24.6775354,16.3478049 L24.6775354,14.1660731 L22.3935107,14.1660731 L22.3935107,16.3478049 Z M22.3935107,12.5637388 L24.6775354,12.5637388 L24.6775354,3.78486528 L22.3935107,3.78486528 L22.3935107,12.5637388 Z" id="path25683" fill="#000000"></path>
                <g id="g25685" transform="translate(26.177575, 0.000000)" fill="#000000">
                    <g id="g25687-Clipped" transform="translate(0.000000, 0.000000)">
                        <g id="g25687" transform="translate(0.000000, 0.000000)">
                            <g id="g25693" transform="translate(0.000000, 0.000000)">
                                <path d="M8.62542955,12.5637388 L8.62542955,4.63677964 C8.62542955,2.25046044 7.67122193,0 3.9886518,0 C3.08559099,0 2.04587229,0.136657931 0.954207624,0.596979385 L1.14201231,2.54055885 C1.84128506,2.16494934 2.98329737,1.77335643 3.69935267,1.77335643 C6.22232878,1.77335643 6.34140494,3.6649899 6.34140494,5.1826122 L6.30704068,5.1826122 C5.88108367,4.43219233 4.85814753,3.78486528 3.57947734,3.78486528 C0.988571885,3.78486528 4.03608416e-14,5.86430352 4.03608416e-14,8.21625844 C4.03608416e-14,10.3308601 1.0908655,12.7683261 3.71613522,12.7683261 C4.87493007,12.7683261 5.77879006,12.3759341 6.40933429,11.3697801 L6.44369855,11.3697801 L6.44369855,12.5637388 L8.62542955,12.5637388 Z M6.34140494,8.26820444 C6.34140494,9.76824501 5.76200751,10.9949697 4.43219052,10.9949697 C2.88100376,10.9949697 2.38631823,9.56365769 2.38631823,8.21625844 C2.38631823,7.02309884 3.01686246,5.55742255 4.32989691,5.55742255 C5.76200751,5.55742255 6.34140494,6.80172897 6.34140494,8.26820444" id="path25695"></path>
                            </g>
                        </g>
                    </g>
                </g>
            </g>
        </g>
    </g>
</svg>