<?xml version="1.0" encoding="UTF-8"?>
<svg width="60px" height="46.4836228px" viewBox="0 0 60 46.4836228" version="1.1" xmlns="http://www.w3.org/2000/svg" xmlns:xlink="http://www.w3.org/1999/xlink">
    <title>NHS_England_logo</title>
    <g id="Page-1" stroke="none" stroke-width="1" fill="none" fill-rule="evenodd">
        <g id="NHS_England_logo" transform="translate(-0.000000, 0.000000)" fill-rule="nonzero">
            <rect id="rect360" fill="#FFFFFF" x="0.000842311624" y="2.79481549e-06" width="59.9991559" height="24.160955"></rect>
            <g id="g20" transform="translate(30.000000, 23.241811) scale(-1, 1) rotate(-180.000000) translate(-30.000000, -23.241811) ">
                <g id="g22-Clipped" transform="translate(0.000000, 0.000000)">
                    <g id="g22" transform="translate(0.000000, 0.000000)">
                        <g id="g28" transform="translate(0.000000, 0.000000)" fill="#202020">
                            <path d="M57.8825211,3.61602826 L60,3.61602826 L60,15.8306353 L57.8169281,15.8306353 L57.8169281,11.0263634 L57.7849725,11.0263634 C57.1332464,11.8244124 56.3679939,12.1986293 55.276458,12.1986293 C52.7031914,12.1986293 51.7588193,10.1467435 51.7588193,7.83416726 C51.7588193,5.53756885 52.7031914,3.42093092 55.276458,3.42093092 C56.3024009,3.42093092 57.1979986,3.74637346 57.8497246,4.56040029 L57.8825211,4.56040029 L57.8825211,3.61602826 Z M54.038599,7.83416726 C54.038599,8.95765883 54.4296346,10.5049826 55.8466131,10.5049826 C57.2476138,10.5049826 57.8009503,9.0072741 57.8009503,7.83416726 C57.8009503,6.64508262 57.3291847,5.11457764 55.8794097,5.11457764 C54.4456124,5.11457764 54.038599,6.67787916 54.038599,7.83416726 M42.3453727,3.61602826 L44.5276038,3.61602826 L44.5276038,7.72064079 C44.5276038,8.79535803 44.869865,10.5049826 46.4499853,10.5049826 C47.8501451,10.5049826 47.8661229,9.12080057 47.8661229,8.09485767 L47.8661229,3.61602826 L50.0483539,3.61602826 L50.0483539,8.9088845 C50.0483539,10.7984695 49.1855527,12.1986293 47.198419,12.1986293 C46.0581087,12.1986293 45.1297145,11.8244124 44.4460329,10.8632216 L44.4132363,10.8632216 L44.4132363,12.0035319 L42.3453727,12.0035319 L42.3453727,3.61602826 Z M34.836648,6.04297187 C34.836648,7.32960518 36.2864231,7.49190598 37.2635916,7.49190598 L38.2079637,7.49190598 C38.2079637,6.8410209 38.110415,6.23806921 37.7521759,5.76546273 C37.4107556,5.30967498 36.8893748,5.01702897 36.2216709,5.01702897 C35.4395997,5.01702897 34.836648,5.32649371 34.836648,6.04297187 M33.7299752,9.69095572 C34.4624311,10.2451331 35.3908254,10.6025312 36.3192196,10.6025312 C37.6058529,10.6025312 38.2079637,10.1467435 38.2079637,8.79535803 L37.0029012,8.79535803 C36.0913257,8.79535803 35.0166085,8.71378716 34.1857629,8.30677375 C33.3549174,7.89976033 32.7519657,7.16646344 32.7519657,5.91262667 C32.7519657,4.31652861 34.2017407,3.42093092 35.6843123,3.42093092 C36.6774587,3.42093092 37.7689947,3.9414708 38.2735567,4.86986503 L38.3063533,4.86986503 C38.3223311,4.60917462 38.3223311,4.0558382 38.4039019,3.61602826 L40.3254425,3.61602826 C40.2766682,4.26775428 40.2438717,4.85388723 40.2278939,5.48879452 C40.2119161,6.107724 40.1959383,6.74263129 40.1959383,7.58945465 L40.1959383,8.66501282 C40.1959383,11.1407308 39.1363579,12.1986293 36.57991,12.1986293 C35.6515158,12.1986293 34.5112055,11.9547576 33.6643821,11.563722 L33.7299752,9.69095572 Z M28.8113358,3.61602826 L30.9935668,3.61602826 L30.9935668,15.8306353 L28.8113358,15.8306353 L28.8113358,3.61602826 Z M24.4300551,12.0035319 L24.4300551,10.8632216 L24.3972585,10.8632216 C23.7951478,11.8244124 22.9315057,12.1986293 21.8239919,12.1986293 C19.3163184,12.1986293 18.2735567,9.87007526 18.2735567,7.85014506 C18.2735567,5.60316192 19.2187697,3.61602826 21.6936467,3.61602826 C22.9155279,3.61602826 23.8926965,4.23495774 24.2997099,4.9514359 L24.3325064,4.9514359 C24.3325064,3.50166085 24.218139,1.69448766 21.8080141,1.69448766 C21.1243325,1.69448766 20.0327965,2.06870454 19.3650927,2.42694362 L19.1859732,0.570155153 C20.2278939,0.130345205 21.2218812,0 22.0846823,0 C25.6031619,0 26.5147374,2.15027541 26.5147374,4.43005508 L26.5147374,12.0035319 L24.4300551,12.0035319 Z M22.4109658,5.30967498 C21.1562881,5.30967498 20.5541774,6.71067569 20.5541774,7.85014506 C20.5541774,9.13761931 21.0259429,10.5049826 22.5085145,10.5049826 C23.77917,10.5049826 24.3325064,9.33271665 24.3325064,7.89976033 C24.3325064,6.49875962 23.77917,5.30967498 22.4109658,5.30967498 M8.86011016,3.61602826 L11.0423412,3.61602826 L11.0423412,7.72064079 C11.0423412,8.79535803 11.3846024,10.5049826 12.9647227,10.5049826 C14.3648825,10.5049826 14.3817012,9.12080057 14.3817012,8.09485767 L14.3817012,3.61602826 L16.5639322,3.61602826 L16.5639322,8.9088845 C16.5639322,10.7984695 15.7002901,12.1986293 13.7139974,12.1986293 C12.5736871,12.1986293 11.6452929,11.8244124 10.9616112,10.8632216 L10.9288147,10.8632216 L10.9288147,12.0035319 L8.86011016,12.0035319 L8.86011016,3.61602826 Z M4.03937324e-14,3.61602826 L6.74263129,3.61602826 L6.74263129,5.40722365 L2.28062061,5.40722365 L2.28062061,8.59941975 L6.33561788,8.59941975 L6.33561788,10.3914561 L2.28062061,10.3914561 L2.28062061,13.1926166 L6.71067569,13.1926166 L6.71067569,14.983812 L4.03937324e-14,14.983812 L4.03937324e-14,3.61602826 Z" id="path30"></path>
                        </g>
                        <g id="g32" transform="translate(0.000841, 22.322667)" fill="#636363">
                            <path d="M57.751335,21.2992474 L56.4899298,17.4275743 C55.4816466,17.8993399 54.1092377,18.3164445 52.1784468,18.3164445 C50.1072194,18.3164445 48.4261868,18.0128663 48.4261868,16.4504058 C48.4261868,13.6946558 56.0148005,14.7231216 56.0148005,8.81638145 C56.0148005,3.44027246 51.0011353,2.04599924 46.4659631,2.04599924 C44.4502376,2.04599924 42.1250473,2.52196947 40.4187865,3.0526006 L41.6507589,7.00836732 C42.6842703,6.33898163 44.7588614,5.89244418 46.4659631,5.89244418 C48.0914939,5.89244418 50.6370096,6.19938612 50.6370096,8.20502039 C50.6370096,11.3265778 43.0483959,10.1559938 43.0483959,15.6414245 C43.0483959,20.6584535 47.4742463,22.1628895 51.7588193,22.1628895 C54.1681033,22.1628895 56.434428,21.9106084 57.751335,21.2992474 M42.7137031,21.8298785 L38.6528192,2.38237396 L33.4179876,2.38237396 L35.1545221,10.711853 L28.9635454,10.711853 L27.2278518,2.38237396 L21.9930202,2.38237396 L26.053904,21.8298785 L31.2887357,21.8298785 L29.7506622,14.3901106 L35.9382752,14.3901106 L37.4797124,21.8298785 L42.7137031,21.8298785 Z M24.1231131,21.8298785 L19.9806585,2.38237396 L13.4810579,2.38237396 L9.39410503,15.8390447 L9.33944414,15.8390447 L6.62069545,2.38237396 L1.69196485,2.38237396 L5.86721608,21.8298785 L12.388681,21.8298785 L16.394063,8.34377497 L16.4495648,8.34377497 L19.1935416,21.8298785 L24.1231131,21.8298785 Z M59.9991591,24.1609553 L4.31274708e-14,24.1609553 L4.31274708e-14,0 L59.9991591,0 L59.9991591,24.1609553 Z" id="path34"></path>
                        </g>
                    </g>
                </g>
            </g>
        </g>
    </g>
</svg>