<?xml version="1.0" encoding="UTF-8"?>
<svg width="101px" height="22px" viewBox="0 0 101 22" version="1.1" xmlns="http://www.w3.org/2000/svg" xmlns:xlink="http://www.w3.org/1999/xlink">
    <title>Artboard</title>
    <g id="Artboard" stroke="none" stroke-width="1" fill="none" fill-rule="evenodd">
        <g id="sky-sports" transform="translate(0.042863, 0.042863)" fill="#515151" fill-rule="nonzero">
            <path d="M98.9141237,0.0158436348 C99.1440323,0.137294856 99.3826162,0.207068453 99.5464301,0.357982983 C99.7325023,0.529408658 99.8517157,0.773406387 100,0.985854951 C100,7.45961123 100,13.9333673 99.9849204,20.4306199 C99.7850349,20.9528956 99.4297595,21.2700704 98.9284184,21.4316331 C77.7096994,21.4316331 56.4909803,21.4316331 35.248742,21.41653 C34.5143815,21.1169109 34.1986888,20.5970617 34.1998237,19.8270612 C34.208897,13.692909 34.2043789,7.55873515 34.2065189,1.42456901 C34.2066183,1.14460064 34.2771397,0.884284612 34.4352608,0.640841449 C34.6423461,0.322016845 34.9470195,0.148928204 35.2764681,0 C56.4808976,0 77.6853324,0 98.9141237,0.0158436348 Z M53.0263078,5.66379829 C52.4239355,5.76027201 51.848672,5.96469533 51.3425642,6.30853279 C51.0524104,6.50565371 50.8040369,6.76535727 50.5427604,7.00337475 C50.4293338,7.10670416 50.3307881,7.22636957 50.1928847,7.37336211 C50.1928847,7.00334792 50.1785586,6.68967878 50.1963119,6.37783571 C50.2215527,5.93451847 49.9229801,5.76970459 49.5833075,5.74850317 C49.2347871,5.72674848 48.8838441,5.74367964 48.5212174,5.74367964 L48.5212174,17.0288099 C48.5212174,17.6858326 48.5244143,18.342884 48.5182659,18.9998491 C48.5171832,19.119056 48.5504713,19.1925336 48.6687377,19.2006529 C48.9503994,19.2199877 49.2329244,19.2472599 49.5145495,19.2419373 C49.9701967,19.2333236 50.1928847,18.988627 50.1928847,18.5312466 L50.1928847,14.375693 C50.2579122,14.4109524 50.2952972,14.4221352 50.3203077,14.446183 C50.5860736,14.7017301 50.8305805,14.9836769 51.1180448,15.2115319 C51.8237085,15.7708578 52.651406,16.0280165 53.5409181,16.0665814 C53.888727,16.0816623 54.2421658,16.0321892 54.5892473,15.9845279 C55.1922736,15.9017158 55.7394186,15.6546072 56.2548766,15.343358 C56.7754099,15.0290465 57.2075796,14.6125738 57.5898067,14.0996652 L57.9271278,13.4856202 C57.9821596,13.3827099 58.0356067,13.2790402 58.0859836,13.1738995 C58.3735892,12.5736372 58.5076834,11.928853 58.5454818,11.2703077 C58.5781629,10.7008769 58.5442103,10.1329753 58.4280316,9.56735298 C58.2322848,8.61437715 57.8188573,7.77660489 57.153493,7.07416099 C56.5507545,6.43783352 55.8131945,6.01268886 54.9620248,5.7841138 C54.3231937,5.61256065 53.6764146,5.55967943 53.0263078,5.66379829 Z M41.6033651,5.66683172 C41.2057759,5.69314771 40.8042885,5.76929713 40.4211117,5.88039919 C39.7571706,6.07290973 39.1950507,6.43772756 38.7878601,7.01232203 C38.4342277,7.51133871 38.3174813,8.06990133 38.3610091,8.67353849 C38.4089399,9.33817745 38.7073581,9.86953583 39.2133953,10.2843663 C39.7386403,10.7149421 40.3575703,10.9613215 41.0044305,11.1448456 C41.8575099,11.3868749 42.7187152,11.6047623 43.5588839,11.8855293 C43.8890022,11.9958465 44.2458159,12.1869953 44.4608072,12.4480979 C44.9267045,13.0139249 44.7277032,13.9074987 44.0376161,14.2720248 C43.5296927,14.540327 42.97269,14.5822171 42.4218457,14.6067031 C41.9882738,14.6259764 41.5448388,14.5940422 41.1165724,14.5213258 C40.5051692,14.4175111 39.9015176,14.2641973 39.2985201,14.1159077 C38.8069634,13.9950238 38.5317663,14.1540606 38.4089661,14.5452206 C38.3457202,14.7466772 38.3312397,14.9693508 38.3325714,15.1822021 C38.3330841,15.2647605 38.347371,15.386369 38.4922622,15.4346321 C39.5785702,15.7964832 40.6973449,15.9903672 41.8346813,16.0674983 C42.410366,16.1065381 42.9855851,16.0569683 43.5595667,15.9527834 C44.4285289,15.7950586 45.2007583,15.4767628 45.7902591,14.7958506 C46.1501912,14.3801039 46.3407004,13.8927226 46.3780593,13.3037045 C46.354901,13.010121 46.3667156,12.7085516 46.3018504,12.4244922 C46.1262062,11.6552387 45.5858318,11.1676297 44.9283003,10.8062973 C44.0817195,10.3410775 43.1292832,10.1770198 42.2170418,9.89826987 C41.7057854,9.74204745 41.1927264,9.58115718 40.7018159,9.37223146 C40.3045589,9.20316498 40.0373489,8.8790913 40.0386099,8.42030669 C40.0403026,7.80535984 40.3202769,7.47753262 40.8696639,7.29167561 C41.4494325,7.09554098 42.0468942,7.06522092 42.6633964,7.1035739 C43.44045,7.1519141 44.1884695,7.32032392 44.9412033,7.48908105 C45.3818494,7.58787008 45.5895625,7.52560862 45.7746353,7.25177647 C45.9652282,6.96978513 45.9101266,6.64358453 45.8940162,6.33072379 C45.8916146,6.28405791 45.8015452,6.22311367 45.7404002,6.2011045 C44.9285149,5.9088853 44.0844874,5.74752409 43.2306073,5.66740206 C42.6924384,5.61690416 42.1439016,5.63105435 41.6033651,5.66683172 Z M64.8493486,5.65357231 C64.1403938,5.73504694 63.4734755,5.92195302 62.8479554,6.26868075 C62.1665435,6.64639168 61.6019435,7.15593519 61.1708464,7.79656099 C60.3871058,8.96123699 60.1332016,10.2609228 60.3155222,11.6401996 C60.404226,12.3112397 60.6281802,12.9472284 60.9671517,13.5422008 C61.4172631,14.3322503 62.0377392,14.9459754 62.8223588,15.3948873 C63.6551002,15.8713277 64.5578135,16.0825962 65.55631,16.0737248 C65.8809605,16.0311729 66.2080074,16.0018928 66.5298273,15.9436974 C67.7207427,15.7283438 68.6995551,15.1314825 69.4441526,14.1926438 C70.4041862,12.9821646 70.7399136,11.5765025 70.5450406,10.0554871 C70.4555677,9.35715054 70.2313518,8.68955791 69.8624985,8.07735675 C69.4056688,7.31914994 68.805018,6.70835426 68.0274045,6.28506905 C67.0361287,5.74548084 65.9804533,5.5235829 64.8493486,5.65357231 Z M91.0131658,5.66217364 C90.6232943,5.71760887 90.2283892,5.77008264 89.8518183,5.87953712 C89.1367991,6.08735949 88.5377076,6.47959931 88.1373923,7.12810047 C87.8507128,7.59251835 87.7020727,8.09747767 87.788605,8.64399087 C87.8366901,8.94760219 87.8837707,9.26856781 88.0190893,9.53755354 C88.2928449,10.0817337 88.7616619,10.4421139 89.301356,10.7202405 C90.0573443,11.1098295 90.8931361,11.2403853 91.6924168,11.4895307 C92.2555936,11.6650793 92.8194297,11.8427327 93.3694316,12.0545846 C93.639242,12.1585118 93.873797,12.3474121 94.0039356,12.6283125 C94.282934,13.2305565 94.0562275,13.9555145 93.4627345,14.2676545 C92.9361631,14.5445992 92.3577078,14.5741999 91.7838465,14.6116595 C91.5606143,14.6262315 91.3334788,14.5925339 91.1088966,14.5723215 C90.8232426,14.5466084 90.5343028,14.5327794 90.2539963,14.477335 C89.6853988,14.3648634 89.1196476,14.2359623 88.5568684,14.0970295 C88.327305,14.0403594 88.1497301,14.1000838 87.9950101,14.2567307 C87.7341417,14.5208497 87.7267693,14.8565757 87.7522403,15.1951561 C87.7625899,15.3327925 87.8398296,15.4048509 87.9874441,15.4520518 C88.7072142,15.6822168 89.4374699,15.8526339 90.1880061,15.9487348 C90.9085401,16.040994 91.6242186,16.1112995 92.3540347,16.0382666 C92.9032831,15.9832997 93.4385612,15.8908038 93.9488915,15.6852948 C95.0184953,15.2545718 95.8314009,14.3475025 95.8069031,13.0749548 C95.7894795,12.1699667 95.4018474,11.5053022 94.6425208,10.994815 C94.5441739,10.9305554 94.450107,10.858219 94.3467894,10.8033051 C93.4930611,10.3495677 92.5460718,10.1757614 91.6331972,9.89795135 C91.1216216,9.74226657 90.6135622,9.5694727 90.1175999,9.37030266 C89.8595098,9.26665607 89.6456749,9.07287664 89.5415201,8.79516211 C89.2907763,8.12653086 89.6133914,7.51900146 90.2956456,7.28491869 C91.0099741,7.03983429 91.7465191,7.03799057 92.4759585,7.12616845 C93.1126496,7.20313408 93.7378087,7.37311753 94.3694663,7.49472606 C94.9075803,7.59832495 95.1578009,7.47707154 95.3061585,6.97977694 C95.3512821,6.82852263 95.3209869,6.65520553 95.3283749,6.49213403 C95.3360665,6.32201127 95.2638812,6.2127216 95.095442,6.17256931 C94.6129895,6.05755808 94.1350474,5.91478868 93.6468394,5.83492169 C93.0339658,5.73466301 92.4137252,5.67348135 91.7944996,5.62108281 C91.5367339,5.59927184 91.2708059,5.62554273 91.0131658,5.66217364 Z M81.2536104,3.56376018 C80.8470686,3.57567943 80.4836308,3.78375752 80.4885101,4.31092087 C80.5091175,6.51001616 80.4972139,8.70941397 80.4972139,10.9515645 C80.5114877,11.8332413 80.4903334,12.7173786 80.551311,13.5958126 C80.599527,14.2904727 80.9171348,14.8835275 81.4606747,15.3499585 C82.0315849,15.8398683 82.7109876,16.0238424 83.4318826,16.064924 C83.8073862,16.0863243 84.1890325,16.0256737 84.5662104,15.9859982 C85.1535711,15.9242188 85.7041642,15.7231599 86.2522772,15.5159372 C86.4459886,15.4427042 86.5943618,15.3427536 86.5536595,15.1001264 C86.5430117,15.0366373 86.5430483,14.9711063 86.5412275,14.9064281 C86.5241387,14.2984547 86.1552907,14.0461346 85.5659626,14.2275212 C84.9141239,14.4281498 84.2779769,14.6575889 83.5629107,14.5846697 C82.6356158,14.4901111 82.1875921,13.9169064 82.1765362,13.0840447 C82.1519861,11.2349699 82.1688813,9.38534496 82.1688813,7.53594441 L82.1688813,7.32961852 L85.476249,7.32953939 C85.8412356,7.32946614 86.0397817,7.21822803 86.1023394,6.85345534 C86.1587701,6.52444826 86.1142482,6.17812803 86.1142482,5.82300703 L82.1649989,5.82300703 L82.1649989,3.62580386 C81.852545,3.60244376 81.5522562,3.5550042 81.2536104,3.56376018 Z M72.8393084,5.79807887 L72.8393084,15.945135 C73.1720638,15.945135 73.4898234,15.9515381 73.8072323,15.9436765 C74.3208015,15.9309554 74.5384246,15.7134042 74.538749,15.2193948 C74.539942,13.4052354 74.5388641,11.5910745 74.5404652,9.77691637 C74.5405333,9.70169113 74.5413338,9.61848723 74.5713935,9.55248071 C74.9294264,8.76627634 75.4756295,8.14698144 76.245855,7.74762889 C76.7991166,7.46077021 77.3957699,7.35330527 78.0215882,7.36629584 C78.3254507,7.37260279 78.6415516,7.34307673 78.8679755,7.03481453 C79.0067631,6.70274458 78.942756,6.36480261 78.9210052,6.02202533 C78.9075634,5.8102192 78.813643,5.74059061 78.6449212,5.74732983 C78.173509,5.76615709 77.6876974,5.737894 77.2348443,5.8443 C76.1917579,6.08938963 75.3537318,6.67885898 74.7263909,7.55435701 C74.6804092,7.61851912 74.6577898,7.69942079 74.6243186,7.77254265 C74.5959489,7.74569816 74.5675844,7.71885366 74.5392199,7.69200853 C74.5392199,7.26422285 74.5574441,6.83542932 74.5338829,6.40894518 C74.5120903,6.01448423 74.4325327,5.89382469 74.0716587,5.78758281 C73.6563162,5.66530583 73.2415754,5.74147291 72.8393084,5.79807887 Z M66.8902826,7.38966738 C67.4971076,7.65635478 67.9704505,8.10020634 68.3244283,8.66453429 C68.8370347,9.48175919 68.9505606,10.3925186 68.8702913,11.3213818 C68.8132171,11.9817388 68.6108828,12.6126443 68.2130686,13.1706162 C67.6818665,13.9156598 66.9739215,14.3558821 66.0808775,14.5347703 C65.4260877,14.6659318 64.7871676,14.619313 64.1753719,14.3810823 C63.1389254,13.9774955 62.4628295,13.2102747 62.158606,12.1506032 C61.8391774,11.0379673 61.8752753,9.93136108 62.4109144,8.87790686 C62.6432195,8.42101697 62.9486883,8.01838247 63.391715,7.73793078 C63.4269914,7.71559983 63.4527763,7.67826322 63.4965239,7.63936734 C63.9957878,7.33897394 64.513909,7.16856862 65.0840763,7.10631106 C65.7203593,7.03683223 66.3207851,7.1393781 66.8902826,7.38966738 Z M55.6341807,7.90578007 C56.3127933,8.4954201 56.675148,9.2462297 56.7956172,10.1291302 C56.9153539,11.0066571 56.8624236,11.8715079 56.4737921,12.6697499 C55.9897386,13.6639925 55.2072643,14.3189209 54.0912234,14.5324786 C53.2484622,14.6937429 52.4456131,14.5810621 51.691634,14.1837279 C51.0773006,13.8599826 50.5791878,13.4019442 50.2601673,12.7729616 C50.2180575,12.689931 50.1971962,12.5876703 50.1958044,12.4938795 C50.189243,12.0512961 50.1928847,11.608561 50.1928847,11.1444492 C50.1928847,10.551815 50.216718,9.979267 50.1845862,9.40987741 C50.1628198,9.02414269 50.3283446,8.73731736 50.5434981,8.46101749 C51.0609078,7.79654531 51.7387041,7.35973322 52.5555549,7.18204582 C53.6867746,6.93597184 54.734455,7.12401727 55.6341807,7.90578007 Z" id="Shape"></path>
            <path d="M-2.66453526e-15,7.94979246 C0.113696314,7.63591989 0.208081269,7.33279323 0.344806858,7.05014916 C0.715140763,6.2845844 1.3516853,5.80450484 2.11844582,5.48995075 C2.74670013,5.23221685 3.40613751,5.10717 4.08791042,5.09933523 C4.79166301,5.09124801 5.49609683,5.04502983 6.19873103,5.06593498 C6.82873198,5.08467981 7.45663802,5.17260982 8.08558856,5.22866082 C8.27461307,5.245506 8.4643198,5.27188937 8.65320896,5.26818033 C8.83820459,5.26454775 8.9111721,5.374915 8.91059721,5.51765071 C8.90857227,6.02027248 8.96053785,6.52339786 8.75303858,7.01390874 C8.52843943,7.54484136 8.08497441,7.86232357 7.58513558,7.87839794 C6.94742285,7.89890544 6.30771333,7.85936142 5.66891813,7.84355649 C5.16518551,7.8310931 4.66061993,7.7910108 4.1581718,7.80983545 C3.83262915,7.82203202 3.50156545,7.87035062 3.21250197,8.07268817 C3.05345902,8.18401522 2.94844805,8.31575294 2.9641673,8.4961853 C2.98215542,8.70266232 3.1205967,8.85711093 3.32080146,8.91175152 C3.73201959,9.02398573 4.14713125,9.12361522 4.56378058,9.21394818 C5.48801419,9.41432949 6.43894153,9.49404865 7.33605628,9.81628967 C8.18220553,10.1202254 8.87429331,10.6166972 9.27921895,11.4460108 C9.45695474,11.8100267 9.53622782,12.196683 9.5677742,12.6059992 C9.61038307,13.1588409 9.53825469,13.6839041 9.34194282,14.1946595 C9.10264209,14.8172587 8.66444672,15.2812227 8.11620227,15.6394216 C7.62017977,15.9634992 7.06385924,16.1557887 6.48107685,16.2390757 C5.97480227,16.311427 5.46117818,16.3335847 4.9504012,16.3726767 C4.68290244,16.3931508 4.41406588,16.4202295 4.14666232,16.413124 C3.4675811,16.395079 2.78809378,16.3724138 2.11043986,16.3267826 C1.55905294,16.2896527 1.00971402,16.2197239 0.460602315,16.1547462 C0.403501072,16.1479899 0.313115902,16.0810239 0.307319203,16.0335523 C0.224234419,15.353111 0.224576468,14.6865577 0.633275782,14.0836386 C0.899994942,13.6901712 1.29359383,13.5289748 1.73177124,13.5106027 C2.26249829,13.4883483 2.79605084,13.5270257 3.32815714,13.5457039 C4.04278843,13.570785 4.75751487,13.6266886 5.47155521,13.6177622 C5.73913343,13.6144174 6.02104496,13.4989765 6.26787107,13.3769127 C6.68075049,13.1727314 6.59857801,12.6120622 6.22176378,12.4638289 C5.88477737,12.3312625 5.53714514,12.2151911 5.18432636,12.1357315 C4.5365165,11.9898371 3.88444003,11.8568443 3.22845469,11.755167 C2.68382203,11.6707486 2.15955002,11.5371619 1.67835058,11.2709958 C0.948108144,10.8670761 0.392156065,10.3035565 0.126815431,9.4898183 C0.105983069,9.42593086 0.0631702529,9.36921042 0.0152866695,9.30524385 C-2.66453526e-15,8.85751252 -2.66453526e-15,8.41369696 -2.66453526e-15,7.94979246 Z M22.4918188,17.560547 C22.8243465,16.8697405 23.1472495,16.1923889 23.469446,15.5146998 C23.6054474,15.228643 23.7445542,14.9438799 23.8710772,14.6536607 C23.8950492,14.5986754 23.8902381,14.5056118 23.8585171,14.4556182 C23.1007602,13.2613685 22.3353773,12.0719573 21.575933,10.8787684 C20.9798225,9.94219923 20.3898182,9.00174243 19.7823405,8.03963425 C18.9452157,8.9264027 18.1186524,9.80198448 17.2776636,10.6928459 C18.4678334,12.4857236 19.6601682,14.2818616 20.8822945,16.122876 C20.6122708,16.2000517 20.3870438,16.299568 20.1539944,16.3237741 C19.6567802,16.3754224 19.1524069,16.4367571 18.6566343,16.4051695 C17.9190599,16.358174 17.2687608,16.0476848 16.8512036,15.420701 C15.9869532,14.1229792 15.1592662,12.8009088 14.3164343,11.4889185 C14.122524,11.1870705 13.9283456,10.8853958 13.7339514,10.5838584 C13.6655308,10.4777258 13.6657781,10.3996352 13.7665227,10.2936412 C14.2826504,9.75062062 14.7870159,9.1963937 15.2938823,8.64460502 C15.7524884,8.14535221 16.2087413,7.64393978 16.6665573,7.14396099 C16.9862227,6.79485782 17.3022307,6.44225615 17.6279526,6.09888174 C18.1658808,5.53179961 18.8285125,5.1862021 19.5964266,5.06256635 C20.2403043,4.95890073 20.8793958,5.04669374 21.509621,5.19186185 C21.5639156,5.20436875 21.6128864,5.27754749 21.6473177,5.33308868 C22.1813923,6.19463733 22.7132589,7.05755688 23.244406,7.92091457 C23.8405231,8.88987775 24.4352456,9.85969709 25.0309807,10.8288944 C25.1317607,10.9928555 25.2345786,11.155564 25.3578523,11.3531447 C25.488161,11.0625266 25.6065268,10.8094308 25.7158877,10.5525017 C25.9901692,9.90810206 26.2599535,9.26178933 26.5323383,8.61657934 C26.8180471,7.93981247 27.0896628,7.25655294 27.3956286,6.58905315 C27.6430499,6.04927531 27.997721,5.5809757 28.5596577,5.33282838 C29.0166209,5.13103695 29.4986259,5.03266125 30.0031614,5.14158534 C30.28616,5.20268165 30.5714555,5.25336824 30.8537607,5.31736652 C31.0099825,5.35278157 31.0658089,5.42394063 30.9842368,5.60188148 C30.4859016,6.68897698 30.0031902,7.78322053 29.5108722,8.87309443 C29.1514188,9.66884449 28.7806741,10.4595068 28.4231174,11.2560967 C27.9532461,12.302898 27.4944307,13.3546596 27.0250905,14.4017003 C26.6708381,15.1919944 26.3074631,15.9781994 25.9482844,16.7662881 C25.5890115,17.5546004 25.2523842,18.3542839 24.8637632,19.1278503 C24.5410905,19.7701505 24.0103567,20.1318995 23.2633942,20.197751 C22.6078065,20.2555474 21.9962279,20.1434132 21.3667313,19.9185159 C21.7441525,19.1249869 22.1130293,18.3494257 22.4918188,17.560547 Z M13.0540046,16.0656592 C12.233983,16.4665827 11.3817774,16.4532324 10.5015003,16.367842 C10.5015003,16.2916135 10.5015003,16.2220837 10.5015003,16.1525538 C10.5015003,11.8104715 10.4993203,7.46838718 10.5044513,3.12631102 C10.5050458,2.62328817 10.6353505,2.14360103 10.9917855,1.77130471 C11.2544224,1.49698187 11.6066107,1.35683601 11.9796982,1.28741757 C12.4300019,1.20363215 12.8836425,1.1771988 13.3390372,1.24441877 C13.4055572,1.25423755 13.4695185,1.28138796 13.5447922,1.30349336 C13.5447922,1.38277218 13.5447922,1.46052413 13.5447922,1.53827625 C13.5447922,5.99462357 13.5416018,10.4509775 13.5495499,14.9073111 C13.5503738,15.3717943 13.428378,15.7580229 13.0540046,16.0656592 Z" id="Combined-Shape"></path>
        </g>
    </g>
</svg>