<svg version="1.1" id="Layer_1" xmlns="http://www.w3.org/2000/svg" xmlns:xlink="http://www.w3.org/1999/xlink" x="0px" y="0px"
	 width="100%" viewBox="0 0 2333 500" enable-background="new 0 0 2333 500" xml:space="preserve">
<path fill="#000000" opacity="1.000000" stroke="none" 
	d="
M2334.000000,23.999996 
	C2334.000000,175.032730 2334.000000,326.065460 2333.648193,477.646362 
	C2328.984863,489.831055 2320.696289,497.230743 2309.000000,501.000000 
	C1813.967285,501.000000 1318.934570,501.000000 823.353149,500.647644 
	C806.220520,493.657532 798.855408,481.529449 798.881958,463.565338 
	C799.093567,320.455566 798.988159,177.345291 799.038086,34.235195 
	C799.040405,27.703533 800.685669,21.630360 804.374634,15.950831 
	C809.205933,8.512653 816.313965,4.474495 824.000000,1.000000 
	C1318.699341,1.000000 1813.398804,1.000000 2308.666504,1.369632 
	C2314.030273,4.203089 2319.596436,5.830907 2323.418213,9.351743 
	C2327.759277,13.351104 2330.540527,19.043571 2334.000000,23.999996 
M1344.570190,329.945190 
	C1348.449585,322.755798 1352.620117,315.705872 1356.145996,308.347076 
	C1362.855835,294.342957 1365.984253,279.300140 1366.866089,263.936279 
	C1367.628540,250.651459 1366.836426,237.402313 1364.125977,224.206345 
	C1359.559204,201.973419 1349.913940,182.428192 1334.390991,166.040176 
	C1320.329102,151.194656 1303.121826,141.276031 1283.264038,135.943375 
	C1268.360107,131.941040 1253.270752,130.707321 1238.103760,133.136414 
	C1224.050415,135.387146 1210.629517,140.156342 1198.822021,148.178070 
	C1192.052734,152.776901 1186.258179,158.835785 1180.162598,164.388733 
	C1177.516357,166.799408 1175.217285,169.591202 1172.000000,173.020538 
	C1172.000000,164.388107 1171.665771,157.070206 1172.079956,149.794907 
	C1172.668823,139.452316 1165.703125,135.607208 1157.778564,135.112579 
	C1149.647583,134.605042 1141.460083,135.000046 1133.000000,135.000046 
	C1133.000000,138.251602 1133.000000,140.058777 1133.000000,141.865952 
	C1133.000000,227.338013 1133.000000,312.810059 1133.000000,398.282135 
	C1133.000000,413.610474 1133.074585,428.939484 1132.931763,444.266479 
	C1132.905884,447.047577 1133.682495,448.761810 1136.441650,448.951233 
	C1143.012817,449.402313 1149.604126,450.038574 1156.174438,449.914398 
	C1166.804688,449.713440 1172.000000,444.004669 1172.000000,433.333984 
	C1172.000000,403.010559 1172.000000,372.687134 1172.000000,342.363708 
	C1172.000000,340.622101 1172.000000,338.880524 1172.000000,336.384918 
	C1173.517090,337.207520 1174.389282,337.468414 1174.972778,338.029449 
	C1181.173096,343.991364 1186.877441,350.569183 1193.583984,355.885040 
	C1210.047119,368.934113 1229.357300,374.933624 1250.109619,375.833344 
	C1258.223999,376.185181 1266.469727,375.030975 1274.567139,373.919037 
	C1288.635742,371.987030 1301.400635,366.221985 1313.426270,358.960541 
	C1325.570312,351.627655 1335.652832,341.911346 1344.570190,329.945190 
M1530.428711,376.000000 
	C1538.002808,375.007263 1545.632812,374.324158 1553.140869,372.966461 
	C1580.924927,367.942261 1603.760620,354.017487 1621.132080,332.114380 
	C1643.529663,303.873901 1651.362183,271.079803 1646.815796,235.594513 
	C1644.728394,219.302322 1639.497437,203.727386 1630.892090,189.444733 
	C1620.234253,171.755768 1606.221069,157.505905 1588.079346,147.630661 
	C1564.952881,135.042068 1540.323975,129.865189 1513.935303,132.897842 
	C1497.395386,134.798645 1481.836182,139.159164 1467.242798,147.248322 
	C1451.345459,156.060318 1438.173340,167.947968 1428.115845,182.893768 
	C1409.831177,210.065659 1403.907593,240.387329 1408.161133,272.565857 
	C1410.230591,288.221222 1415.455444,303.058838 1423.363647,316.939545 
	C1433.864746,335.371399 1448.340454,349.689606 1466.645630,360.162720 
	C1486.073486,371.278076 1507.133789,376.206970 1530.428711,376.000000 
M2209.010010,257.509033 
	C2206.715576,256.009857 2204.520996,254.322250 2202.110596,253.041107 
	C2182.193115,242.455414 2160.099854,238.400513 2138.802490,231.919205 
	C2126.867432,228.287079 2115.014404,224.255798 2103.443604,219.609161 
	C2097.422363,217.191086 2092.433594,212.670212 2090.003662,206.191132 
	C2084.153809,190.591965 2091.680420,176.418304 2107.597412,170.957153 
	C2124.262695,165.239334 2141.446289,165.196320 2158.464111,167.253510 
	C2173.318115,169.049118 2187.903076,173.014832 2202.639648,175.851959 
	C2215.193848,178.268921 2221.031494,175.440079 2224.492676,163.838196 
	C2225.545410,160.309433 2224.838623,156.265945 2225.010986,152.461487 
	C2225.190430,148.492523 2223.506348,145.942795 2219.576660,145.006042 
	C2208.321045,142.322830 2197.170654,138.992020 2185.780762,137.128723 
	C2171.482422,134.789688 2157.012207,133.362320 2142.565674,132.139862 
	C2136.552002,131.631012 2130.347900,132.243912 2124.337158,133.098511 
	C2115.241455,134.391815 2106.028320,135.616028 2097.242920,138.169601 
	C2080.561523,143.018097 2066.584717,152.169052 2057.245361,167.298584 
	C2050.557129,178.133453 2047.089355,189.914154 2049.108154,202.664307 
	C2050.229980,209.747559 2051.328369,217.235687 2054.485352,223.511124 
	C2060.872070,236.206848 2071.809570,244.614517 2084.400635,251.103210 
	C2102.037842,260.192322 2121.536865,263.238190 2140.184082,269.050751 
	C2153.322998,273.146301 2166.477295,277.290955 2179.308838,282.233459 
	C2185.603516,284.658081 2191.075684,289.065125 2194.111816,295.618530 
	C2200.620850,309.668884 2195.331787,326.582153 2181.485596,333.864380 
	C2169.200684,340.325500 2155.705322,341.016083 2142.317139,341.890015 
	C2137.109131,342.229980 2131.810059,341.443817 2126.570557,340.972260 
	C2119.906250,340.372375 2113.165283,340.049744 2106.625732,338.756226 
	C2093.360352,336.132263 2080.161377,333.125000 2067.031738,329.883698 
	C2061.676025,328.561584 2057.533203,329.954956 2053.923584,333.609528 
	C2047.837524,339.771423 2047.665527,347.603912 2048.259766,355.502991 
	C2048.501221,358.714050 2050.303223,360.395172 2053.747070,361.496368 
	C2070.539307,366.866119 2087.576172,370.841949 2105.086182,373.083984 
	C2121.896240,375.236389 2138.593018,376.876617 2155.619629,375.172760 
	C2168.433594,373.890381 2180.921631,371.732452 2192.827637,366.937927 
	C2217.781494,356.889160 2236.746582,335.727234 2236.175049,306.038696 
	C2235.768555,284.925323 2226.725098,269.418701 2209.010010,257.509033 
M1083.000122,311.375427 
	C1082.459839,304.526123 1082.735474,297.490509 1081.222168,290.863403 
	C1077.124390,272.916718 1064.517456,261.540802 1049.177246,253.110916 
	C1029.426514,242.257339 1007.206177,238.429871 985.923584,231.926636 
	C973.995972,228.281967 962.026306,224.528397 950.573364,219.654160 
	C941.305359,215.709839 935.071350,208.149200 935.100769,197.445755 
	C935.140259,183.099045 941.672058,175.450836 954.489258,171.114792 
	C968.015259,166.538971 981.954041,165.831604 996.337036,166.726379 
	C1014.465698,167.854156 1031.916992,171.783157 1049.478271,175.720261 
	C1059.758545,178.025009 1064.604492,176.572449 1068.922241,170.183945 
	C1073.368774,163.605087 1072.083252,155.994827 1071.707397,148.695786 
	C1071.651367,147.607071 1069.550049,146.185242 1068.123535,145.671768 
	C1049.182251,138.854294 1029.491089,135.089737 1009.570068,133.220490 
	C997.014587,132.042374 984.217224,132.372498 971.606506,133.207184 
	C962.330750,133.821136 952.964050,135.597702 944.024536,138.189713 
	C928.534790,142.680984 915.420532,151.192184 905.920776,164.597473 
	C897.670532,176.239532 894.946838,189.270798 895.962341,203.353653 
	C897.080566,218.859680 904.042664,231.256271 915.848511,240.934265 
	C928.102478,250.979599 942.542114,256.727631 957.633362,261.009247 
	C977.535706,266.655792 997.627625,271.739105 1017.228760,278.289398 
	C1024.930420,280.863098 1033.254883,285.322601 1038.270630,291.414124 
	C1049.140015,304.614868 1044.497314,325.461945 1028.397583,333.966339 
	C1016.547729,340.225830 1003.552856,341.203125 990.701660,341.774384 
	C980.586426,342.224030 970.241089,341.479004 960.249634,339.782532 
	C945.985596,337.360535 931.902405,333.783722 917.834473,330.324127 
	C906.366455,327.503906 899.946106,331.214233 897.081177,340.339996 
	C895.605652,345.039978 895.267822,350.234955 895.298889,355.200775 
	C895.310852,357.126862 895.644165,359.963989 899.024475,361.089966 
	C924.368042,369.531952 950.469055,374.055267 977.003113,375.854736 
	C990.433838,376.765533 1003.853699,375.609070 1017.244690,373.178436 
	C1037.517578,369.498718 1055.533691,362.072876 1069.286743,346.187195 
	C1077.683960,336.487823 1082.128540,325.117218 1083.000122,311.375427 
M1879.000000,256.500000 
	C1879.333008,277.069519 1878.839478,297.696442 1880.262085,318.190308 
	C1881.386963,334.396729 1888.796753,348.232697 1901.477539,359.114532 
	C1914.796875,370.544128 1930.647339,374.836243 1947.465820,375.794678 
	C1956.226318,376.293945 1965.130127,374.878967 1973.929688,373.953339 
	C1987.632812,372.512024 2000.478149,367.821320 2013.265625,362.986816 
	C2017.784912,361.278290 2021.246460,358.946442 2020.296875,353.285950 
	C2020.048462,351.804749 2020.049316,350.275909 2020.006836,348.766968 
	C2019.608154,334.582947 2011.002930,328.696320 1997.253906,332.928070 
	C1982.046509,337.608734 1967.205200,342.961548 1950.522705,341.260345 
	C1928.888916,339.054291 1918.436523,325.681427 1918.178589,306.250763 
	C1917.605835,263.111847 1918.000000,219.960098 1918.000000,176.813583 
	C1918.000000,175.234680 1918.000000,173.655762 1918.000000,172.000000 
	C1944.192383,172.000000 1969.676636,172.003281 1995.160889,171.998154 
	C2003.676025,171.996445 2008.308105,169.401260 2009.767578,160.891113 
	C2011.084106,153.215378 2010.045410,145.135727 2010.045410,136.850754 
	C1979.045898,136.850754 1948.647217,136.850754 1917.909424,136.850754 
	C1917.909424,119.695747 1917.909424,102.928505 1917.909424,85.590004 
	C1910.619873,85.045013 1903.614136,83.938248 1896.646729,84.142525 
	C1887.162109,84.420601 1878.683105,89.275063 1878.798096,101.573784 
	C1879.277710,152.878677 1879.000000,204.190628 1879.000000,256.500000 
M1840.989868,165.122223 
	C1844.227783,157.375031 1842.734497,149.490845 1842.227051,141.493851 
	C1841.913452,136.552414 1839.722290,134.927979 1835.786011,135.085205 
	C1824.787964,135.524445 1813.453979,134.865067 1802.888916,137.347519 
	C1778.553711,143.065460 1759.002563,156.817780 1744.366699,177.243149 
	C1743.293945,178.740051 1742.766235,180.627487 1741.985352,182.333420 
	C1741.323486,181.707138 1740.661743,181.080856 1740.000000,180.454559 
	C1740.000000,170.474319 1740.425171,160.470566 1739.875488,150.520691 
	C1739.367065,141.317917 1737.510986,138.502930 1729.091797,136.024307 
	C1719.401855,133.171585 1709.725952,134.948563 1700.341064,136.269180 
	C1700.341064,215.151810 1700.341064,293.542053 1700.341064,373.000000 
	C1708.104248,373.000000 1715.517578,373.149384 1722.922729,372.965973 
	C1734.904297,372.669189 1739.981445,367.593719 1739.989014,356.068481 
	C1740.016846,313.744141 1739.991699,271.419769 1740.029053,229.095459 
	C1740.030640,227.340454 1740.049316,225.399307 1740.750610,223.859375 
	C1749.103516,205.517227 1761.846436,191.069077 1779.815796,181.752182 
	C1792.723389,175.059769 1806.643311,172.552612 1821.243652,172.855682 
	C1828.332764,173.002823 1835.707397,172.313980 1840.989868,165.122223 
z"/>
<path fill="#FFFFFF" opacity="1.000000" stroke="none" 
	d="
M823.531372,1.000000 
	C816.313965,4.474495 809.205933,8.512653 804.374634,15.950831 
	C800.685669,21.630360 799.040405,27.703533 799.038086,34.235195 
	C798.988159,177.345291 799.093567,320.455566 798.881958,463.565338 
	C798.855408,481.529449 806.220520,493.657532 822.902222,500.647644 
	C549.108521,501.000000 275.217072,501.000000 1.000000,501.000000 
	C1.000000,406.979370 1.000000,312.958344 1.356637,218.559998 
	C2.473761,219.583679 3.472584,220.906967 3.958603,222.397461 
	C10.149000,241.381973 23.119362,254.528885 40.155918,263.952332 
	C51.382301,270.161987 63.613567,273.278564 76.319847,275.248047 
	C91.623985,277.620178 106.836929,280.722900 121.950333,284.126617 
	C130.181595,285.980408 138.291855,288.688354 146.153748,291.781128 
	C154.944824,295.239410 156.861908,308.319824 147.229431,313.083374 
	C141.470978,315.931122 134.893982,318.624359 128.651382,318.702393 
	C111.992821,318.910645 95.318253,317.606415 78.645905,317.021271 
	C66.231865,316.585510 53.784084,315.683167 41.402222,316.202362 
	C31.179543,316.630981 21.996881,320.391693 15.774323,329.571289 
	C6.239368,343.637390 6.231388,359.188080 8.169756,375.062775 
	C8.304993,376.170288 10.413679,377.732605 11.745851,377.890228 
	C24.556627,379.406158 37.372704,381.037598 50.236561,381.903839 
	C66.046227,382.968414 81.898666,383.497192 97.741631,383.918182 
	C103.980156,384.083954 110.252113,383.452209 116.492859,382.974548 
	C128.409286,382.062531 140.392136,381.545593 152.203522,379.857635 
	C165.799835,377.914551 178.778793,373.428436 190.350998,365.867706 
	C203.141541,357.510925 213.364639,346.686646 218.947525,332.161407 
	C223.527481,320.245483 225.210236,307.995758 224.216171,295.097961 
	C223.480194,285.548615 221.630753,276.527924 217.484177,268.035431 
	C208.037262,248.687546 191.890854,237.104858 172.150192,230.014038 
	C151.220505,222.496155 129.035370,220.636307 107.473000,215.961411 
	C97.752571,213.853943 88.068016,211.529587 78.474297,208.911163 
	C73.803520,207.636398 70.573685,204.033112 70.154022,199.216003 
	C69.787292,195.006516 72.237198,191.933075 75.947670,189.335815 
	C82.691521,184.615280 90.415237,183.488007 98.010147,183.203461 
	C109.732262,182.764282 121.503777,183.699402 133.255859,183.990173 
	C148.158951,184.358902 163.083374,185.281464 177.961212,184.803024 
	C189.622452,184.428009 199.968491,177.021149 205.208389,164.634491 
	C210.049347,153.190872 208.836990,141.452957 208.884232,129.726791 
	C208.897644,126.396767 207.195312,123.821899 202.879364,123.906647 
	C198.472580,123.993179 194.046722,123.377655 189.636780,122.984657 
	C174.963364,121.676987 160.314316,119.625580 145.616394,119.188263 
	C129.223938,118.700546 112.789497,119.778816 96.370949,119.967491 
	C80.465187,120.150276 65.080513,123.067619 50.423340,129.080551 
	C32.534817,136.419098 17.684233,147.619354 9.044343,165.479980 
	C5.854535,172.074066 3.652534,179.146011 0.999999,186.000000 
	C1.000000,124.360100 1.000000,62.720200 1.000000,1.000000 
	C275.020874,1.000000 549.041809,1.000000 823.531372,1.000000 
M525.502869,410.998260 
	C516.896973,429.092102 508.291077,447.185944 499.485840,465.698975 
	C514.171997,470.945831 528.440125,473.561920 543.734985,472.213531 
	C561.161621,470.677216 573.543640,462.237610 581.071594,447.252747 
	C590.138123,429.205444 597.991638,410.548828 606.373474,392.157501 
	C614.753113,373.771393 623.230652,355.429230 631.495361,336.991669 
	C642.445068,312.564209 653.149231,288.026611 664.111328,263.604736 
	C672.453125,245.020294 681.102600,226.574142 689.488647,208.009293 
	C700.974426,182.582535 712.236084,157.053833 723.862244,131.691895 
	C725.765320,127.540535 724.462891,125.880394 720.818237,125.054161 
	C714.232056,123.561081 707.576111,122.378563 700.973755,120.953186 
	C689.202942,118.411987 677.957764,120.707092 667.296814,125.414886 
	C654.186829,131.204163 645.912354,142.129593 640.140015,154.722610 
	C633.001831,170.295380 626.665039,186.235825 619.999451,202.024796 
	C613.644714,217.077545 607.350647,232.156021 600.951660,247.189865 
	C598.400269,253.184021 595.638794,259.088745 592.598694,265.868866 
	C589.722717,261.259308 587.323975,257.463318 584.972778,253.638107 
	C571.074280,231.026733 557.199402,208.400848 543.291992,185.794937 
	C530.900330,165.652802 518.491882,145.520889 506.031921,125.420959 
	C505.228638,124.125183 504.086151,122.417923 502.819458,122.126137 
	C488.116302,118.739365 473.206299,116.691154 458.184631,119.109673 
	C440.269196,121.994095 424.809998,130.056885 412.260132,143.286911 
	C404.661041,151.297836 397.288574,159.524033 389.830780,167.668610 
	C379.149933,179.333115 368.505554,191.031067 357.806274,202.678635 
	C345.981079,215.551865 334.214233,228.481979 322.172974,241.150650 
	C319.822601,243.623489 319.816833,245.445343 321.413086,247.921417 
	C325.948303,254.956284 330.478485,261.994354 335.002411,269.036469 
	C354.665680,299.645203 373.975616,330.489105 394.138580,360.764954 
	C403.880188,375.392487 419.051666,382.636200 436.259277,383.732605 
	C447.825653,384.469543 459.592682,383.038605 471.192688,381.833649 
	C476.629730,381.268921 481.884277,378.947205 488.183929,377.146698 
	C459.671722,334.195831 431.854553,292.291931 404.087891,250.464096 
	C423.708160,229.680298 442.991882,209.252975 462.522003,188.564667 
	C476.694458,211.010651 490.459259,232.951508 504.366516,254.801666 
	C522.084351,282.638763 539.940735,310.387726 557.619202,338.249573 
	C558.359253,339.415924 558.471497,341.587097 557.912231,342.869904 
	C554.960449,349.640717 551.715088,356.284241 548.542175,362.957947 
	C541.025330,378.768433 533.492004,394.571045 525.502869,410.998260 
M305.885010,375.644043 
	C314.284058,368.634674 317.130219,359.623962 317.110901,348.787567 
	C316.925568,244.821304 317.000000,140.854568 317.000000,36.887985 
	C317.000000,35.074028 317.000000,33.260075 317.000000,31.410500 
	C315.243866,30.894781 313.751648,30.261362 312.199738,30.032290 
	C301.575378,28.464048 290.991943,29.080738 280.486359,31.035452 
	C271.782227,32.654984 263.565674,35.924587 257.438354,42.324539 
	C249.122726,51.010212 246.082718,62.201313 246.068848,73.936836 
	C245.949142,175.237473 246.000000,276.538300 246.000000,377.839081 
	C246.000000,379.461212 246.000000,381.083344 246.000000,382.861755 
	C266.536865,384.853912 286.418823,385.165375 305.885010,375.644043 
z"/>
<path fill="#000000" opacity="1.000000" stroke="none" 
	d="
M0.999999,186.468658 
	C3.652534,179.146011 5.854535,172.074066 9.044343,165.479980 
	C17.684233,147.619354 32.534817,136.419098 50.423340,129.080551 
	C65.080513,123.067619 80.465187,120.150276 96.370949,119.967491 
	C112.789497,119.778816 129.223938,118.700546 145.616394,119.188263 
	C160.314316,119.625580 174.963364,121.676987 189.636780,122.984657 
	C194.046722,123.377655 198.472580,123.993179 202.879364,123.906647 
	C207.195312,123.821899 208.897644,126.396767 208.884232,129.726791 
	C208.836990,141.452957 210.049347,153.190872 205.208389,164.634491 
	C199.968491,177.021149 189.622452,184.428009 177.961212,184.803024 
	C163.083374,185.281464 148.158951,184.358902 133.255859,183.990173 
	C121.503777,183.699402 109.732262,182.764282 98.010147,183.203461 
	C90.415237,183.488007 82.691521,184.615280 75.947670,189.335815 
	C72.237198,191.933075 69.787292,195.006516 70.154022,199.216003 
	C70.573685,204.033112 73.803520,207.636398 78.474297,208.911163 
	C88.068016,211.529587 97.752571,213.853943 107.473000,215.961411 
	C129.035370,220.636307 151.220505,222.496155 172.150192,230.014038 
	C191.890854,237.104858 208.037262,248.687546 217.484177,268.035431 
	C221.630753,276.527924 223.480194,285.548615 224.216171,295.097961 
	C225.210236,307.995758 223.527481,320.245483 218.947525,332.161407 
	C213.364639,346.686646 203.141541,357.510925 190.350998,365.867706 
	C178.778793,373.428436 165.799835,377.914551 152.203522,379.857635 
	C140.392136,381.545593 128.409286,382.062531 116.492859,382.974548 
	C110.252113,383.452209 103.980156,384.083954 97.741631,383.918182 
	C81.898666,383.497192 66.046227,382.968414 50.236561,381.903839 
	C37.372704,381.037598 24.556627,379.406158 11.745851,377.890228 
	C10.413679,377.732605 8.304993,376.170288 8.169756,375.062775 
	C6.231388,359.188080 6.239368,343.637390 15.774323,329.571289 
	C21.996881,320.391693 31.179543,316.630981 41.402222,316.202362 
	C53.784084,315.683167 66.231865,316.585510 78.645905,317.021271 
	C95.318253,317.606415 111.992821,318.910645 128.651382,318.702393 
	C134.893982,318.624359 141.470978,315.931122 147.229431,313.083374 
	C156.861908,308.319824 154.944824,295.239410 146.153748,291.781128 
	C138.291855,288.688354 130.181595,285.980408 121.950333,284.126617 
	C106.836929,280.722900 91.623985,277.620178 76.319847,275.248047 
	C63.613567,273.278564 51.382301,270.161987 40.155918,263.952332 
	C23.119362,254.528885 10.149000,241.381973 3.958603,222.397461 
	C3.472584,220.906967 2.473761,219.583679 1.356637,218.091339 
	C1.000000,207.645767 1.000000,197.291550 0.999999,186.468658 
z"/>
<path fill="#FFFFFF" opacity="1.000000" stroke="none" 
	d="
M2334.000000,23.531261 
	C2330.540527,19.043571 2327.759277,13.351104 2323.418213,9.351743 
	C2319.596436,5.830907 2314.030273,4.203089 2309.117188,1.369632 
	C2317.256592,1.000000 2325.513184,1.000000 2334.000000,1.000000 
	C2334.000000,8.352580 2334.000000,15.707554 2334.000000,23.531261 
z"/>
<path fill="#FFFFFF" opacity="1.000000" stroke="none" 
	d="
M2309.468750,501.000000 
	C2320.696289,497.230743 2328.984863,489.831055 2333.648193,478.097229 
	C2334.000000,485.596039 2334.000000,493.192108 2334.000000,501.000000 
	C2325.980469,501.000000 2317.958984,501.000000 2309.468750,501.000000 
z"/>
<path fill="#FFFFFF" opacity="1.000000" stroke="none" 
	d="
M1344.300659,330.197571 
	C1335.652832,341.911346 1325.570312,351.627655 1313.426270,358.960541 
	C1301.400635,366.221985 1288.635742,371.987030 1274.567139,373.919037 
	C1266.469727,375.030975 1258.223999,376.185181 1250.109619,375.833344 
	C1229.357300,374.933624 1210.047119,368.934113 1193.583984,355.885040 
	C1186.877441,350.569183 1181.173096,343.991364 1174.972778,338.029449 
	C1174.389282,337.468414 1173.517090,337.207520 1172.000000,336.384918 
	C1172.000000,338.880524 1172.000000,340.622101 1172.000000,342.363708 
	C1172.000000,372.687134 1172.000000,403.010559 1172.000000,433.333984 
	C1172.000000,444.004669 1166.804688,449.713440 1156.174438,449.914398 
	C1149.604126,450.038574 1143.012817,449.402313 1136.441650,448.951233 
	C1133.682495,448.761810 1132.905884,447.047577 1132.931763,444.266479 
	C1133.074585,428.939484 1133.000000,413.610474 1133.000000,398.282135 
	C1133.000000,312.810059 1133.000000,227.338013 1133.000000,141.865952 
	C1133.000000,140.058777 1133.000000,138.251602 1133.000000,135.000046 
	C1141.460083,135.000046 1149.647583,134.605042 1157.778564,135.112579 
	C1165.703125,135.607208 1172.668823,139.452316 1172.079956,149.794907 
	C1171.665771,157.070206 1172.000000,164.388107 1172.000000,173.020538 
	C1175.217285,169.591202 1177.516357,166.799408 1180.162598,164.388733 
	C1186.258179,158.835785 1192.052734,152.776901 1198.822021,148.178070 
	C1210.629517,140.156342 1224.050415,135.387146 1238.103760,133.136414 
	C1253.270752,130.707321 1268.360107,131.941040 1283.264038,135.943375 
	C1303.121826,141.276031 1320.329102,151.194656 1334.390991,166.040176 
	C1349.913940,182.428192 1359.559204,201.973419 1364.125977,224.206345 
	C1366.836426,237.402313 1367.628540,250.651459 1366.866089,263.936279 
	C1365.984253,279.300140 1362.855835,294.342957 1356.145996,308.347076 
	C1352.620117,315.705872 1348.449585,322.755798 1344.300659,330.197571 
M1172.000000,261.500000 
	C1172.000000,271.827728 1171.915039,282.156738 1172.068115,292.482208 
	C1172.100586,294.670349 1172.587280,297.056091 1173.569702,298.993195 
	C1181.012451,313.667358 1192.633423,324.353394 1206.965820,331.906372 
	C1224.556152,341.176178 1243.286621,343.805023 1262.948242,340.042725 
	C1288.985474,335.060425 1307.240601,319.780945 1318.533569,296.585266 
	C1327.600342,277.962280 1328.835205,257.785309 1326.041748,237.312607 
	C1323.231201,216.714539 1314.777466,199.198151 1298.945435,185.441849 
	C1277.954834,167.203323 1253.512451,162.816223 1227.121094,168.557129 
	C1208.063965,172.702576 1192.250977,182.893402 1180.179810,198.395538 
	C1175.160278,204.841614 1171.298584,211.533249 1171.806396,220.532440 
	C1172.556030,233.816299 1172.000000,247.173843 1172.000000,261.500000 
z"/>
<path fill="#FFFFFF" opacity="1.000000" stroke="none" 
	d="
M1529.940918,376.000000 
	C1507.133789,376.206970 1486.073486,371.278076 1466.645630,360.162720 
	C1448.340454,349.689606 1433.864746,335.371399 1423.363647,316.939545 
	C1415.455444,303.058838 1410.230591,288.221222 1408.161133,272.565857 
	C1403.907593,240.387329 1409.831177,210.065659 1428.115845,182.893768 
	C1438.173340,167.947968 1451.345459,156.060318 1467.242798,147.248322 
	C1481.836182,139.159164 1497.395386,134.798645 1513.935303,132.897842 
	C1540.323975,129.865189 1564.952881,135.042068 1588.079346,147.630661 
	C1606.221069,157.505905 1620.234253,171.755768 1630.892090,189.444733 
	C1639.497437,203.727386 1644.728394,219.302322 1646.815796,235.594513 
	C1651.362183,271.079803 1643.529663,303.873901 1621.132080,332.114380 
	C1603.760620,354.017487 1580.924927,367.942261 1553.140869,372.966461 
	C1545.632812,374.324158 1538.002808,375.007263 1529.940918,376.000000 
M1482.057617,179.425476 
	C1481.353271,180.133881 1480.751709,181.004944 1479.928711,181.525925 
	C1469.592896,188.068863 1462.466309,197.462326 1457.046631,208.121567 
	C1444.550171,232.698654 1443.708008,258.515778 1451.160278,284.473572 
	C1458.257812,309.195709 1474.031128,327.094971 1498.211426,336.510651 
	C1512.484619,342.068573 1527.390625,343.156189 1542.666870,340.096191 
	C1563.501587,335.922729 1580.017944,325.652344 1592.410889,308.270477 
	C1601.691895,295.252991 1606.412354,280.533966 1607.743896,265.127838 
	C1609.616577,243.457458 1606.968018,222.209442 1595.008911,203.143585 
	C1586.750610,189.977814 1575.707520,179.622757 1561.550293,173.400940 
	C1548.263916,167.561691 1534.255981,165.169296 1519.411499,166.790237 
	C1506.109497,168.242706 1494.021729,172.218262 1482.057617,179.425476 
z"/>
<path fill="#FFFFFF" opacity="1.000000" stroke="none" 
	d="
M2209.304688,257.736786 
	C2226.725098,269.418701 2235.768555,284.925323 2236.175049,306.038696 
	C2236.746582,335.727234 2217.781494,356.889160 2192.827637,366.937927 
	C2180.921631,371.732452 2168.433594,373.890381 2155.619629,375.172760 
	C2138.593018,376.876617 2121.896240,375.236389 2105.086182,373.083984 
	C2087.576172,370.841949 2070.539307,366.866119 2053.747070,361.496368 
	C2050.303223,360.395172 2048.501221,358.714050 2048.259766,355.502991 
	C2047.665527,347.603912 2047.837524,339.771423 2053.923584,333.609528 
	C2057.533203,329.954956 2061.676025,328.561584 2067.031738,329.883698 
	C2080.161377,333.125000 2093.360352,336.132263 2106.625732,338.756226 
	C2113.165283,340.049744 2119.906250,340.372375 2126.570557,340.972260 
	C2131.810059,341.443817 2137.109131,342.229980 2142.317139,341.890015 
	C2155.705322,341.016083 2169.200684,340.325500 2181.485596,333.864380 
	C2195.331787,326.582153 2200.620850,309.668884 2194.111816,295.618530 
	C2191.075684,289.065125 2185.603516,284.658081 2179.308838,282.233459 
	C2166.477295,277.290955 2153.322998,273.146301 2140.184082,269.050751 
	C2121.536865,263.238190 2102.037842,260.192322 2084.400635,251.103210 
	C2071.809570,244.614517 2060.872070,236.206848 2054.485352,223.511124 
	C2051.328369,217.235687 2050.229980,209.747559 2049.108154,202.664307 
	C2047.089355,189.914154 2050.557129,178.133453 2057.245361,167.298584 
	C2066.584717,152.169052 2080.561523,143.018097 2097.242920,138.169601 
	C2106.028320,135.616028 2115.241455,134.391815 2124.337158,133.098511 
	C2130.347900,132.243912 2136.552002,131.631012 2142.565674,132.139862 
	C2157.012207,133.362320 2171.482422,134.789688 2185.780762,137.128723 
	C2197.170654,138.992020 2208.321045,142.322830 2219.576660,145.006042 
	C2223.506348,145.942795 2225.190430,148.492523 2225.010986,152.461487 
	C2224.838623,156.265945 2225.545410,160.309433 2224.492676,163.838196 
	C2221.031494,175.440079 2215.193848,178.268921 2202.639648,175.851959 
	C2187.903076,173.014832 2173.318115,169.049118 2158.464111,167.253510 
	C2141.446289,165.196320 2124.262695,165.239334 2107.597412,170.957153 
	C2091.680420,176.418304 2084.153809,190.591965 2090.003662,206.191132 
	C2092.433594,212.670212 2097.422363,217.191086 2103.443604,219.609161 
	C2115.014404,224.255798 2126.867432,228.287079 2138.802490,231.919205 
	C2160.099854,238.400513 2182.193115,242.455414 2202.110596,253.041107 
	C2204.520996,254.322250 2206.715576,256.009857 2209.304688,257.736786 
z"/>
<path fill="#FFFFFF" opacity="1.000000" stroke="none" 
	d="
M1083.000000,311.854797 
	C1082.128540,325.117218 1077.683960,336.487823 1069.286743,346.187195 
	C1055.533691,362.072876 1037.517578,369.498718 1017.244690,373.178436 
	C1003.853699,375.609070 990.433838,376.765533 977.003113,375.854736 
	C950.469055,374.055267 924.368042,369.531952 899.024475,361.089966 
	C895.644165,359.963989 895.310852,357.126862 895.298889,355.200775 
	C895.267822,350.234955 895.605652,345.039978 897.081177,340.339996 
	C899.946106,331.214233 906.366455,327.503906 917.834473,330.324127 
	C931.902405,333.783722 945.985596,337.360535 960.249634,339.782532 
	C970.241089,341.479004 980.586426,342.224030 990.701660,341.774384 
	C1003.552856,341.203125 1016.547729,340.225830 1028.397583,333.966339 
	C1044.497314,325.461945 1049.140015,304.614868 1038.270630,291.414124 
	C1033.254883,285.322601 1024.930420,280.863098 1017.228760,278.289398 
	C997.627625,271.739105 977.535706,266.655792 957.633362,261.009247 
	C942.542114,256.727631 928.102478,250.979599 915.848511,240.934265 
	C904.042664,231.256271 897.080566,218.859680 895.962341,203.353653 
	C894.946838,189.270798 897.670532,176.239532 905.920776,164.597473 
	C915.420532,151.192184 928.534790,142.680984 944.024536,138.189713 
	C952.964050,135.597702 962.330750,133.821136 971.606506,133.207184 
	C984.217224,132.372498 997.014587,132.042374 1009.570068,133.220490 
	C1029.491089,135.089737 1049.182251,138.854294 1068.123535,145.671768 
	C1069.550049,146.185242 1071.651367,147.607071 1071.707397,148.695786 
	C1072.083252,155.994827 1073.368774,163.605087 1068.922241,170.183945 
	C1064.604492,176.572449 1059.758545,178.025009 1049.478271,175.720261 
	C1031.916992,171.783157 1014.465698,167.854156 996.337036,166.726379 
	C981.954041,165.831604 968.015259,166.538971 954.489258,171.114792 
	C941.672058,175.450836 935.140259,183.099045 935.100769,197.445755 
	C935.071350,208.149200 941.305359,215.709839 950.573364,219.654160 
	C962.026306,224.528397 973.995972,228.281967 985.923584,231.926636 
	C1007.206177,238.429871 1029.426514,242.257339 1049.177246,253.110916 
	C1064.517456,261.540802 1077.124390,272.916718 1081.222168,290.863403 
	C1082.735474,297.490509 1082.459839,304.526123 1083.000000,311.854797 
z"/>
<path fill="#FFFFFF" opacity="1.000000" stroke="none" 
	d="
M1879.000000,256.000000 
	C1879.000000,204.190628 1879.277710,152.878677 1878.798096,101.573784 
	C1878.683105,89.275063 1887.162109,84.420601 1896.646729,84.142525 
	C1903.614136,83.938248 1910.619873,85.045013 1917.909424,85.590004 
	C1917.909424,102.928505 1917.909424,119.695747 1917.909424,136.850754 
	C1948.647217,136.850754 1979.045898,136.850754 2010.045410,136.850754 
	C2010.045410,145.135727 2011.084106,153.215378 2009.767578,160.891113 
	C2008.308105,169.401260 2003.676025,171.996445 1995.160889,171.998154 
	C1969.676636,172.003281 1944.192383,172.000000 1918.000000,172.000000 
	C1918.000000,173.655762 1918.000000,175.234680 1918.000000,176.813583 
	C1918.000000,219.960098 1917.605835,263.111847 1918.178589,306.250763 
	C1918.436523,325.681427 1928.888916,339.054291 1950.522705,341.260345 
	C1967.205200,342.961548 1982.046509,337.608734 1997.253906,332.928070 
	C2011.002930,328.696320 2019.608154,334.582947 2020.006836,348.766968 
	C2020.049316,350.275909 2020.048462,351.804749 2020.296875,353.285950 
	C2021.246460,358.946442 2017.784912,361.278290 2013.265625,362.986816 
	C2000.478149,367.821320 1987.632812,372.512024 1973.929688,373.953339 
	C1965.130127,374.878967 1956.226318,376.293945 1947.465820,375.794678 
	C1930.647339,374.836243 1914.796875,370.544128 1901.477539,359.114532 
	C1888.796753,348.232697 1881.386963,334.396729 1880.262085,318.190308 
	C1878.839478,297.696442 1879.333008,277.069519 1879.000000,256.000000 
z"/>
<path fill="#FFFFFF" opacity="1.000000" stroke="none" 
	d="
M1840.838257,165.483505 
	C1835.707397,172.313980 1828.332764,173.002823 1821.243652,172.855682 
	C1806.643311,172.552612 1792.723389,175.059769 1779.815796,181.752182 
	C1761.846436,191.069077 1749.103516,205.517227 1740.750610,223.859375 
	C1740.049316,225.399307 1740.030640,227.340454 1740.029053,229.095459 
	C1739.991699,271.419769 1740.016846,313.744141 1739.989014,356.068481 
	C1739.981445,367.593719 1734.904297,372.669189 1722.922729,372.965973 
	C1715.517578,373.149384 1708.104248,373.000000 1700.341064,373.000000 
	C1700.341064,293.542053 1700.341064,215.151810 1700.341064,136.269180 
	C1709.725952,134.948563 1719.401855,133.171585 1729.091797,136.024307 
	C1737.510986,138.502930 1739.367065,141.317917 1739.875488,150.520691 
	C1740.425171,160.470566 1740.000000,170.474319 1740.000000,180.454559 
	C1740.661743,181.080856 1741.323486,181.707138 1741.985352,182.333420 
	C1742.766235,180.627487 1743.293945,178.740051 1744.366699,177.243149 
	C1759.002563,156.817780 1778.553711,143.065460 1802.888916,137.347519 
	C1813.453979,134.865067 1824.787964,135.524445 1835.786011,135.085205 
	C1839.722290,134.927979 1841.913452,136.552414 1842.227051,141.493851 
	C1842.734497,149.490845 1844.227783,157.375031 1840.838257,165.483505 
z"/>
<path fill="#000000" opacity="1.000000" stroke="none" 
	d="
M525.734131,410.687561 
	C533.492004,394.571045 541.025330,378.768433 548.542175,362.957947 
	C551.715088,356.284241 554.960449,349.640717 557.912231,342.869904 
	C558.471497,341.587097 558.359253,339.415924 557.619202,338.249573 
	C539.940735,310.387726 522.084351,282.638763 504.366516,254.801666 
	C490.459259,232.951508 476.694458,211.010651 462.522003,188.564667 
	C442.991882,209.252975 423.708160,229.680298 404.087891,250.464096 
	C431.854553,292.291931 459.671722,334.195831 488.183929,377.146698 
	C481.884277,378.947205 476.629730,381.268921 471.192688,381.833649 
	C459.592682,383.038605 447.825653,384.469543 436.259277,383.732605 
	C419.051666,382.636200 403.880188,375.392487 394.138580,360.764954 
	C373.975616,330.489105 354.665680,299.645203 335.002411,269.036469 
	C330.478485,261.994354 325.948303,254.956284 321.413086,247.921417 
	C319.816833,245.445343 319.822601,243.623489 322.172974,241.150650 
	C334.214233,228.481979 345.981079,215.551865 357.806274,202.678635 
	C368.505554,191.031067 379.149933,179.333115 389.830780,167.668610 
	C397.288574,159.524033 404.661041,151.297836 412.260132,143.286911 
	C424.809998,130.056885 440.269196,121.994095 458.184631,119.109673 
	C473.206299,116.691154 488.116302,118.739365 502.819458,122.126137 
	C504.086151,122.417923 505.228638,124.125183 506.031921,125.420959 
	C518.491882,145.520889 530.900330,165.652802 543.291992,185.794937 
	C557.199402,208.400848 571.074280,231.026733 584.972778,253.638107 
	C587.323975,257.463318 589.722717,261.259308 592.598694,265.868866 
	C595.638794,259.088745 598.400269,253.184021 600.951660,247.189865 
	C607.350647,232.156021 613.644714,217.077545 619.999451,202.024796 
	C626.665039,186.235825 633.001831,170.295380 640.140015,154.722610 
	C645.912354,142.129593 654.186829,131.204163 667.296814,125.414886 
	C677.957764,120.707092 689.202942,118.411987 700.973755,120.953186 
	C707.576111,122.378563 714.232056,123.561081 720.818237,125.054161 
	C724.462891,125.880394 725.765320,127.540535 723.862244,131.691895 
	C712.236084,157.053833 700.974426,182.582535 689.488647,208.009293 
	C681.102600,226.574142 672.453125,245.020294 664.111328,263.604736 
	C653.149231,288.026611 642.445068,312.564209 631.495361,336.991669 
	C623.230652,355.429230 614.753113,373.771393 606.373474,392.157501 
	C597.991638,410.548828 590.138123,429.205444 581.071594,447.252747 
	C573.543640,462.237610 561.161621,470.677216 543.734985,472.213531 
	C528.440125,473.561920 514.171997,470.945831 499.485840,465.698975 
	C508.291077,447.185944 516.896973,429.092102 525.734131,410.687561 
z"/>
<path fill="#000000" opacity="1.000000" stroke="none" 
	d="
M305.549927,375.811829 
	C286.418823,385.165375 266.536865,384.853912 246.000000,382.861755 
	C246.000000,381.083344 246.000000,379.461212 246.000000,377.839081 
	C246.000000,276.538300 245.949142,175.237473 246.068848,73.936836 
	C246.082718,62.201313 249.122726,51.010212 257.438354,42.324539 
	C263.565674,35.924587 271.782227,32.654984 280.486359,31.035452 
	C290.991943,29.080738 301.575378,28.464048 312.199738,30.032290 
	C313.751648,30.261362 315.243866,30.894781 317.000000,31.410500 
	C317.000000,33.260075 317.000000,35.074028 317.000000,36.887985 
	C317.000000,140.854568 316.925568,244.821304 317.110901,348.787567 
	C317.130219,359.623962 314.284058,368.634674 305.549927,375.811829 
z"/>
<path fill="#000000" opacity="1.000000" stroke="none" 
	d="
M1172.000000,261.000000 
	C1172.000000,247.173843 1172.556030,233.816299 1171.806396,220.532440 
	C1171.298584,211.533249 1175.160278,204.841614 1180.179810,198.395538 
	C1192.250977,182.893402 1208.063965,172.702576 1227.121094,168.557129 
	C1253.512451,162.816223 1277.954834,167.203323 1298.945435,185.441849 
	C1314.777466,199.198151 1323.231201,216.714539 1326.041748,237.312607 
	C1328.835205,257.785309 1327.600342,277.962280 1318.533569,296.585266 
	C1307.240601,319.780945 1288.985474,335.060425 1262.948242,340.042725 
	C1243.286621,343.805023 1224.556152,341.176178 1206.965820,331.906372 
	C1192.633423,324.353394 1181.012451,313.667358 1173.569702,298.993195 
	C1172.587280,297.056091 1172.100586,294.670349 1172.068115,292.482208 
	C1171.915039,282.156738 1172.000000,271.827728 1172.000000,261.000000 
z"/>
<path fill="#000000" opacity="1.000000" stroke="none" 
	d="
M1482.373901,179.226440 
	C1494.021729,172.218262 1506.109497,168.242706 1519.411499,166.790237 
	C1534.255981,165.169296 1548.263916,167.561691 1561.550293,173.400940 
	C1575.707520,179.622757 1586.750610,189.977814 1595.008911,203.143585 
	C1606.968018,222.209442 1609.616577,243.457458 1607.743896,265.127838 
	C1606.412354,280.533966 1601.691895,295.252991 1592.410889,308.270477 
	C1580.017944,325.652344 1563.501587,335.922729 1542.666870,340.096191 
	C1527.390625,343.156189 1512.484619,342.068573 1498.211426,336.510651 
	C1474.031128,327.094971 1458.257812,309.195709 1451.160278,284.473572 
	C1443.708008,258.515778 1444.550171,232.698654 1457.046631,208.121567 
	C1462.466309,197.462326 1469.592896,188.068863 1479.928711,181.525925 
	C1480.751709,181.004944 1481.353271,180.133881 1482.373901,179.226440 
z"/>
</svg>