<svg version="1.1" id="Layer_1" xmlns="http://www.w3.org/2000/svg" xmlns:xlink="http://www.w3.org/1999/xlink" x="0px" y="0px"
	 width="100%" viewBox="0 0 2481 600" enable-background="new 0 0 2481 600" xml:space="preserve">
<path fill="#000000" opacity="1.000000" stroke="none" 
	d="
M2482.000000,32.999962 
	C2482.000000,212.366074 2482.000000,391.732147 2481.608887,571.552490 
	C2480.817139,572.401917 2480.312744,572.734680 2480.031250,573.201721 
	C2476.912109,578.377686 2474.162109,583.814758 2470.651123,588.706848 
	C2465.863281,595.378662 2458.130859,597.814026 2451.000000,601.000000 
	C1963.300537,601.000000 1475.601196,601.000000 987.361816,600.645996 
	C985.742432,599.596191 984.750183,598.643433 983.570557,598.243469 
	C968.678894,593.194641 958.851562,576.092468 958.909668,562.111694 
	C959.132629,508.464874 959.000000,454.816559 959.000000,401.168823 
	C959.000000,280.211487 958.935059,159.254059 959.105225,38.296970 
	C959.121399,26.815262 963.941772,16.897493 973.472778,10.040484 
	C978.311829,6.559038 983.803406,3.984510 989.000000,0.999996 
	C1476.032715,1.000000 1963.065430,1.000000 2450.663574,1.367347 
	C2463.141846,4.527884 2471.520264,11.993134 2477.578369,22.207270 
	C2479.540283,25.515400 2480.553223,29.386396 2482.000000,32.999962 
M2051.526611,362.980865 
	C2055.339844,350.056824 2059.243896,337.158752 2062.948486,324.203583 
	C2071.682373,293.660767 2080.343994,263.097290 2088.990234,232.529388 
	C2094.711182,212.303268 2100.098633,191.977051 2106.232910,171.878006 
	C2107.566406,167.508072 2105.432617,166.824814 2102.890137,166.093079 
	C2096.418945,164.230499 2089.916260,161.899750 2083.284668,161.286911 
	C2067.741699,159.850479 2058.323242,163.069550 2054.086914,179.337875 
	C2044.851685,214.802505 2035.974609,250.360886 2027.043091,285.903992 
	C2018.306396,320.671234 2009.693970,355.469696 2000.978882,390.242340 
	C2000.572266,391.865112 1999.693481,393.369537 1999.034668,394.929108 
	C1993.462769,379.929321 1989.230347,365.142242 1984.751343,350.430176 
	C1974.899170,318.068970 1964.922363,285.745697 1954.996338,253.406921 
	C1947.329590,228.428574 1939.718750,203.432846 1931.963867,178.481934 
	C1929.555298,170.733032 1924.288574,165.424118 1916.529297,163.058731 
	C1905.458008,159.683792 1894.157959,160.294205 1883.204834,163.217850 
	C1877.866943,164.642654 1871.300781,165.137833 1869.149414,172.430756 
	C1862.116821,196.269485 1854.901978,220.055374 1847.609863,243.816376 
	C1838.815430,272.473328 1829.829590,301.071503 1821.004028,329.719025 
	C1814.867432,349.638123 1808.898315,369.608887 1802.728882,389.517700 
	C1802.222778,391.150757 1800.750732,392.484406 1799.107910,394.849030 
	C1795.462402,381.393463 1792.134521,369.509766 1789.029175,357.568237 
	C1781.427124,328.334473 1773.935303,299.072083 1766.384888,269.824890 
	C1758.594238,239.647614 1750.822632,209.465286 1742.962646,179.306061 
	C1740.878540,171.309113 1737.110229,164.224152 1728.417236,162.104889 
	C1715.412354,158.934372 1703.067261,162.629501 1690.982788,167.134583 
	C1690.267334,167.401352 1689.552856,169.388977 1689.811279,170.299408 
	C1696.997192,195.608032 1704.267822,220.892883 1711.612427,246.156097 
	C1718.012939,268.171936 1724.598389,290.134186 1730.956787,312.162048 
	C1736.207642,330.352722 1741.124390,348.640106 1746.409058,366.820709 
	C1753.481812,391.152283 1760.956421,415.369263 1767.757080,439.775269 
	C1768.783325,443.458679 1770.249268,444.673889 1773.420410,444.995239 
	C1783.482544,446.014984 1793.559326,447.894958 1803.609375,447.769226 
	C1815.640137,447.618652 1827.098145,441.576660 1831.211670,427.466248 
	C1833.182861,420.704285 1835.794922,414.131775 1837.902222,407.406219 
	C1843.750977,388.739990 1849.390015,370.007812 1855.291138,351.358429 
	C1863.414551,325.685608 1871.731323,300.074066 1879.909302,274.418457 
	C1885.459839,257.005432 1890.906860,239.559464 1896.423218,222.135559 
	C1896.999512,220.315460 1897.731323,218.544678 1898.390991,216.751007 
	C1898.963745,216.746857 1899.536499,216.742706 1900.109253,216.738541 
	C1901.885986,222.472504 1903.659546,228.207443 1905.439819,233.940277 
	C1913.093994,258.588440 1920.724609,283.243866 1928.411865,307.881683 
	C1937.912109,338.330292 1947.450684,368.766937 1956.991455,399.202881 
	C1961.163208,412.511108 1965.570923,425.749847 1969.452759,439.141541 
	C1970.499878,442.754272 1971.875610,444.313599 1975.662964,445.148499 
	C1987.258179,447.704712 1998.756958,448.866913 2010.633789,447.117645 
	C2019.792603,445.768707 2029.371460,439.090546 2031.955200,430.278046 
	C2038.453491,408.114258 2044.695068,385.875183 2051.526611,362.980865 
M1528.666016,158.000000 
	C1526.248901,158.333191 1523.839966,158.867111 1521.413208,158.967361 
	C1504.352783,159.672058 1488.417969,164.710541 1473.235474,172.052872 
	C1453.758667,181.471893 1437.441528,194.802704 1424.229126,212.138107 
	C1405.175903,237.137100 1396.039795,265.576630 1394.112305,296.497864 
	C1393.090088,312.897400 1395.054077,329.207642 1399.042603,345.164795 
	C1405.144287,369.576263 1416.258301,391.384308 1434.014893,409.445251 
	C1445.708008,421.338745 1459.311035,430.435364 1474.589233,437.361267 
	C1493.306030,445.845947 1512.935791,449.837189 1533.220337,450.871887 
	C1541.763306,451.307648 1550.440918,450.867737 1558.945801,449.872650 
	C1571.160645,448.443573 1583.496704,447.021637 1595.376831,444.005157 
	C1612.529419,439.649994 1629.319702,433.868408 1646.996094,428.472137 
	C1645.887451,419.971832 1645.798462,412.476624 1643.800659,405.530334 
	C1640.619507,394.468719 1634.236694,390.070435 1623.421875,392.165070 
	C1614.338501,393.924408 1605.493896,397.013794 1596.630981,399.792999 
	C1582.026001,404.372803 1567.032104,406.903259 1551.837280,407.898285 
	C1537.886108,408.811920 1524.040405,407.348236 1510.404419,404.015961 
	C1494.351318,400.092957 1480.203857,392.413757 1468.664429,380.841827 
	C1460.373169,372.527161 1453.632324,362.719238 1449.715942,351.314240 
	C1446.373779,341.581726 1442.965454,331.889801 1442.972778,320.829559 
	C1516.242432,320.829559 1589.090088,320.829559 1661.776367,320.829559 
	C1662.221069,316.363800 1662.978027,312.447968 1662.930786,308.541870 
	C1662.792603,297.126190 1663.048340,285.634705 1661.788208,274.324646 
	C1660.652466,264.129852 1658.568481,253.857056 1655.378784,244.117752 
	C1650.562134,229.409882 1643.257446,215.902573 1633.434326,203.632553 
	C1623.292847,190.964737 1611.361816,180.673462 1597.210449,173.107468 
	C1576.158813,161.852417 1553.340820,157.747391 1528.666016,158.000000 
M1335.000000,312.500000 
	C1335.000000,304.334900 1334.929932,296.169037 1335.014648,288.004822 
	C1335.188599,271.231140 1335.175171,254.515640 1331.050537,238.046371 
	C1325.197144,214.674805 1314.648438,194.137878 1295.403198,179.037796 
	C1277.648438,165.107254 1256.840332,158.911484 1234.618286,158.223953 
	C1224.421387,157.908478 1213.984985,159.172440 1203.946045,161.170898 
	C1182.362061,165.467590 1163.768433,175.858215 1148.117554,191.392212 
	C1144.287231,195.193832 1140.518555,199.057388 1136.000000,203.621262 
	C1136.000000,194.896683 1136.054321,187.292465 1135.986084,179.689331 
	C1135.904785,170.652924 1130.282715,163.554657 1121.891602,162.040039 
	C1110.496704,159.983246 1099.235107,161.132416 1088.177368,163.420135 
	C1088.177368,257.762848 1088.177368,351.717804 1088.177368,446.521515 
	C1097.103882,447.019104 1105.955200,448.356598 1114.687988,447.807739 
	C1128.912231,446.913696 1135.994873,442.606537 1135.996948,426.817719 
	C1136.004395,368.992889 1135.948486,311.167908 1136.133423,253.343674 
	C1136.144165,250.021851 1137.162842,245.865753 1139.288696,243.536758 
	C1147.417114,234.631531 1155.334961,225.166550 1164.911743,218.031799 
	C1181.781006,205.464096 1201.326660,199.287186 1222.634033,200.071960 
	C1227.476440,200.250320 1232.361694,200.996979 1237.095337,202.065643 
	C1250.470825,205.085266 1262.142578,211.545624 1270.586182,222.337616 
	C1282.880493,238.051483 1287.716797,256.741882 1287.860718,276.280823 
	C1288.261719,330.769836 1288.000000,385.263763 1288.000000,439.755737 
	C1288.000000,441.729218 1288.000000,443.702667 1288.000000,445.695038 
	C1298.965332,447.844025 1309.576660,449.061554 1320.421753,447.061157 
	C1329.028564,445.473663 1335.175293,440.139221 1335.109741,430.482056 
	C1334.845215,391.489563 1335.000000,352.494263 1335.000000,312.500000 
M2293.597168,203.997009 
	C2305.276123,206.420441 2317.075195,208.387054 2328.592529,211.423843 
	C2336.608154,213.537292 2348.386963,208.891968 2349.983398,199.578827 
	C2350.994385,193.679642 2351.747314,187.674576 2351.852051,181.703598 
	C2351.920410,177.793884 2350.195557,174.879959 2345.310547,173.843140 
	C2329.907471,170.573837 2314.772949,165.908051 2299.287109,163.196671 
	C2284.213867,160.557526 2268.859619,159.358765 2253.579834,158.142365 
	C2247.063232,157.623611 2240.425537,158.835953 2233.837402,158.962723 
	C2222.052979,159.189514 2210.707275,161.631821 2199.466553,164.968307 
	C2185.326904,169.165176 2172.476807,175.824066 2161.770508,185.897537 
	C2149.219238,197.706757 2141.914795,212.634369 2140.125000,229.727097 
	C2137.964600,250.358429 2143.844971,268.724548 2158.396729,283.826385 
	C2168.111816,293.908447 2180.069580,301.267548 2193.024414,305.699219 
	C2214.543701,313.060516 2236.632812,318.775818 2258.543945,324.964325 
	C2272.132080,328.802124 2285.877930,332.231445 2298.326416,339.104431 
	C2310.502441,345.827026 2318.354492,355.739960 2317.931396,370.346313 
	C2317.529785,384.207855 2310.551514,394.398926 2298.476807,400.762665 
	C2284.652832,408.048309 2269.307129,409.335907 2254.113770,409.801941 
	C2242.977051,410.143524 2231.607178,409.678436 2220.655762,407.769135 
	C2201.316650,404.397461 2182.191650,399.763794 2163.030518,395.422485 
	C2155.661377,393.752930 2144.565918,396.389191 2142.149902,407.026764 
	C2140.324707,415.062225 2140.073486,423.455170 2138.984131,432.877472 
	C2159.503662,437.454620 2178.855957,442.287445 2198.426758,445.958527 
	C2211.844727,448.475494 2225.529785,449.927917 2239.163574,450.813385 
	C2248.851074,451.442535 2258.678467,450.671082 2268.393311,449.896515 
	C2276.631836,449.239716 2284.893555,448.134521 2292.977051,446.430603 
	C2310.004883,442.841431 2325.781982,436.158752 2339.255859,424.924988 
	C2350.087158,415.894257 2357.673584,404.522522 2362.017334,391.023438 
	C2365.503906,380.189148 2366.523682,368.976624 2364.751465,357.937805 
	C2363.426758,349.686615 2360.917969,341.224182 2357.020996,333.870789 
	C2348.899658,318.545502 2335.406006,308.290588 2319.958496,301.186646 
	C2308.510986,295.922241 2296.452393,291.815765 2284.384521,288.109039 
	C2262.468262,281.377167 2240.274414,275.551025 2218.336426,268.885620 
	C2209.012207,266.052704 2199.966553,261.715973 2193.733887,254.009964 
	C2183.636230,241.525757 2185.565674,220.157272 2200.849854,210.045364 
	C2211.387695,203.073532 2223.462158,200.535095 2235.750977,200.166855 
	C2249.144287,199.765518 2262.588867,200.423553 2275.985596,201.115936 
	C2281.595947,201.405884 2287.139893,202.972946 2293.597168,203.997009 
z"/>
<path fill="#FFFFFF" opacity="1.000000" stroke="none" 
	d="
M988.531372,0.999996 
	C983.803406,3.984510 978.311829,6.559038 973.472778,10.040484 
	C963.941772,16.897493 959.121399,26.815262 959.105225,38.296970 
	C958.935059,159.254059 959.000000,280.211487 959.000000,401.168823 
	C959.000000,454.816559 959.132629,508.464874 958.909668,562.111694 
	C958.851562,576.092468 968.678894,593.194641 983.570557,598.243469 
	C984.750183,598.643433 985.742432,599.596191 986.910889,600.645996 
	C658.441528,601.000000 329.883057,601.000000 1.000000,601.000000 
	C1.000000,487.312653 1.000000,373.624969 1.407690,259.473694 
	C2.667224,261.632874 3.410744,264.296814 4.387880,266.872101 
	C12.981953,289.522186 28.042427,306.321167 49.690964,317.320435 
	C60.244686,322.682617 71.313812,326.242249 82.896515,328.462067 
	C97.321732,331.226685 111.737587,334.047974 126.119789,337.026794 
	C139.991455,339.899933 153.909302,342.643646 167.605774,346.215271 
	C172.040649,347.371765 175.967819,350.779999 179.901337,353.486542 
	C186.629868,358.116150 185.188385,371.192291 176.559570,376.162079 
	C168.259781,380.942291 159.369781,383.118011 150.122803,382.877441 
	C125.529106,382.237671 100.955208,380.872131 76.364723,380.058105 
	C65.717827,379.705658 54.934155,379.012024 44.418934,380.240051 
	C29.928288,381.932312 19.929346,390.337463 13.837957,403.979889 
	C7.871182,417.343170 9.055186,431.234985 9.136161,445.080872 
	C9.160227,449.195801 9.842826,453.636902 16.018721,454.086914 
	C30.539778,455.145020 45.013187,456.851044 59.532345,457.942963 
	C72.013664,458.881653 84.536606,459.961090 97.032310,459.862152 
	C119.366974,459.685303 141.700119,458.803558 164.024002,457.955933 
	C179.813126,457.356445 195.032425,453.688416 209.707870,447.951874 
	C226.129837,441.532654 240.657455,432.111969 251.393845,417.971436 
	C268.369720,395.613007 272.399536,369.678711 267.688202,342.949677 
	C261.797455,309.529388 239.770996,289.038055 209.038055,276.980682 
	C194.557663,271.299622 179.454330,268.271088 164.129257,265.881378 
	C149.932083,263.667511 135.812912,260.876953 121.747986,257.919037 
	C112.659180,256.007629 103.592812,253.755829 94.775803,250.865265 
	C88.575897,248.832703 83.056305,243.314102 83.923546,236.950882 
	C84.681831,231.387146 88.421997,228.500015 92.611038,225.899445 
	C101.473076,220.397858 111.651329,219.311768 121.556419,219.219299 
	C137.549652,219.070007 153.552994,220.422333 169.557846,220.972000 
	C183.135574,221.438324 196.739151,222.246765 210.298721,221.834045 
	C223.418213,221.434708 234.849060,216.680069 242.035934,204.668381 
	C252.517853,187.149506 252.421417,168.415680 249.055542,149.158203 
	C240.173508,148.403427 231.859283,147.656433 223.538025,146.998260 
	C206.371094,145.640411 189.217499,143.995636 172.025330,143.115601 
	C160.239883,142.512329 148.382980,142.617081 136.586243,143.097870 
	C122.157600,143.685913 107.705223,144.519562 93.359695,146.115265 
	C74.420982,148.221878 56.657242,154.395584 40.818707,165.099716 
	C25.989536,175.121704 14.001392,187.821014 7.571986,204.956085 
	C5.213705,211.241165 3.181142,217.648453 0.999998,224.000000 
	C1.000000,149.693512 1.000000,75.387032 1.000000,1.000000 
	C330.020905,1.000000 659.041809,1.000000 988.531372,0.999996 
M741.039124,248.570679 
	C731.105347,272.081757 721.171509,295.592834 711.108337,319.410217 
	C703.410156,307.163696 696.121826,295.780884 689.045227,284.268005 
	C673.638611,259.203064 658.385681,234.043732 642.982422,208.976746 
	C630.856262,189.242752 618.656677,169.552902 606.301941,149.961853 
	C605.188354,148.196060 602.865173,146.603333 600.818970,146.109146 
	C584.972290,142.282059 569.013855,141.088394 552.653259,142.845169 
	C531.686584,145.096527 513.522339,153.301270 498.876678,167.938538 
	C481.854706,184.950760 466.010590,203.142334 449.675781,220.840973 
	C442.298981,228.833694 435.003906,236.901978 427.614990,244.883423 
	C414.609009,258.932343 401.615295,272.993500 388.500366,286.940369 
	C383.323364,292.445709 382.981049,292.438934 387.024994,298.866760 
	C403.989380,325.831604 421.096069,352.706818 438.127045,379.629791 
	C447.156281,393.903473 456.011810,408.288849 465.184631,422.469269 
	C471.121582,431.647400 477.724396,440.419006 486.683655,446.897003 
	C500.368042,456.791412 515.994507,460.886475 532.709717,460.942657 
	C538.958191,460.963623 545.207703,460.310577 551.458679,460.004974 
	C563.019409,459.439728 573.917603,456.192108 584.893555,452.057861 
	C584.331360,450.850922 584.001770,449.820374 583.425354,448.953979 
	C572.087830,431.910736 560.694397,414.904663 549.367004,397.854675 
	C528.322266,366.178070 507.287811,334.494568 486.393646,302.718903 
	C485.674835,301.625793 485.868073,298.965027 486.723541,297.966675 
	C491.232056,292.705048 496.036041,287.691040 500.838013,282.687622 
	C510.601166,272.514954 520.433350,262.408569 530.219360,252.257767 
	C530.889648,251.562454 531.350769,250.666779 532.013794,249.962860 
	C539.515991,241.998383 547.038696,234.053177 554.815735,225.827927 
	C557.220703,229.848602 559.281250,233.485123 561.521118,237.007553 
	C578.446899,263.625122 595.379639,290.238251 612.365173,316.817657 
	C631.347412,346.521637 650.406921,376.176300 669.330505,405.917480 
	C670.073181,407.084625 670.393311,409.218628 669.842102,410.406281 
	C661.663391,428.026398 653.370544,445.594482 644.971985,463.111267 
	C632.742920,488.617279 620.373352,514.055908 608.140930,539.560364 
	C605.180542,545.732849 602.523010,552.050537 599.620667,558.537292 
	C610.387085,562.539368 620.897644,565.020691 631.939087,566.264221 
	C643.049316,567.515503 653.732422,566.848267 664.423096,564.139160 
	C682.564026,559.542053 692.932922,546.221313 700.618286,530.597290 
	C708.185486,515.213562 714.714417,499.320251 721.746887,483.672119 
	C728.057434,469.630188 734.493835,455.644684 740.766846,441.586182 
	C751.674683,417.140228 762.468201,392.643250 773.368103,368.193756 
	C783.357483,345.786774 793.372925,323.391022 803.474426,301.034424 
	C810.474792,285.541199 817.726685,270.161591 824.712891,254.662140 
	C836.110474,229.375473 847.395508,204.038025 858.701477,178.710159 
	C862.585083,170.010071 866.389160,161.274536 870.267029,152.470245 
	C850.998230,143.852219 831.497925,141.424850 811.660461,146.299530 
	C792.963684,150.893906 779.725708,163.218399 771.120300,180.088318 
	C764.643799,192.784760 759.168579,206.000626 753.468750,219.081573 
	C749.309204,228.627762 745.509644,238.330811 741.039124,248.570679 
M380.000000,126.500000 
	C380.000000,96.708260 380.000000,66.916527 380.000000,36.712570 
	C373.602600,36.117210 367.590363,35.020901 361.600098,35.129959 
	C353.265839,35.281696 344.810944,35.618389 336.655884,37.175640 
	C324.917084,39.417236 313.880646,43.973446 306.141785,53.670109 
	C297.709625,64.235443 295.135254,77.066399 295.114502,90.078659 
	C294.921112,211.372940 295.000000,332.667633 295.000000,453.962219 
	C295.000000,455.584412 295.000000,457.206635 295.000000,460.000000 
	C305.218903,460.000000 314.945343,459.945190 324.670868,460.014557 
	C335.660126,460.092926 346.412598,458.581848 356.776398,454.951599 
	C371.940369,449.639954 379.882019,439.798004 379.912628,422.905487 
	C380.091034,324.437256 380.000000,225.968552 380.000000,126.500000 
z"/>
<path fill="#000000" opacity="1.000000" stroke="none" 
	d="
M0.999998,224.468658 
	C3.181142,217.648453 5.213705,211.241165 7.571986,204.956085 
	C14.001392,187.821014 25.989536,175.121704 40.818707,165.099716 
	C56.657242,154.395584 74.420982,148.221878 93.359695,146.115265 
	C107.705223,144.519562 122.157600,143.685913 136.586243,143.097870 
	C148.382980,142.617081 160.239883,142.512329 172.025330,143.115601 
	C189.217499,143.995636 206.371094,145.640411 223.538025,146.998260 
	C231.859283,147.656433 240.173508,148.403427 249.055542,149.158203 
	C252.421417,168.415680 252.517853,187.149506 242.035934,204.668381 
	C234.849060,216.680069 223.418213,221.434708 210.298721,221.834045 
	C196.739151,222.246765 183.135574,221.438324 169.557846,220.972000 
	C153.552994,220.422333 137.549652,219.070007 121.556419,219.219299 
	C111.651329,219.311768 101.473076,220.397858 92.611038,225.899445 
	C88.421997,228.500015 84.681831,231.387146 83.923546,236.950882 
	C83.056305,243.314102 88.575897,248.832703 94.775803,250.865265 
	C103.592812,253.755829 112.659180,256.007629 121.747986,257.919037 
	C135.812912,260.876953 149.932083,263.667511 164.129257,265.881378 
	C179.454330,268.271088 194.557663,271.299622 209.038055,276.980682 
	C239.770996,289.038055 261.797455,309.529388 267.688202,342.949677 
	C272.399536,369.678711 268.369720,395.613007 251.393845,417.971436 
	C240.657455,432.111969 226.129837,441.532654 209.707870,447.951874 
	C195.032425,453.688416 179.813126,457.356445 164.024002,457.955933 
	C141.700119,458.803558 119.366974,459.685303 97.032310,459.862152 
	C84.536606,459.961090 72.013664,458.881653 59.532345,457.942963 
	C45.013187,456.851044 30.539778,455.145020 16.018721,454.086914 
	C9.842826,453.636902 9.160227,449.195801 9.136161,445.080872 
	C9.055186,431.234985 7.871182,417.343170 13.837957,403.979889 
	C19.929346,390.337463 29.928288,381.932312 44.418934,380.240051 
	C54.934155,379.012024 65.717827,379.705658 76.364723,380.058105 
	C100.955208,380.872131 125.529106,382.237671 150.122803,382.877441 
	C159.369781,383.118011 168.259781,380.942291 176.559570,376.162079 
	C185.188385,371.192291 186.629868,358.116150 179.901337,353.486542 
	C175.967819,350.779999 172.040649,347.371765 167.605774,346.215271 
	C153.909302,342.643646 139.991455,339.899933 126.119789,337.026794 
	C111.737587,334.047974 97.321732,331.226685 82.896515,328.462067 
	C71.313812,326.242249 60.244686,322.682617 49.690964,317.320435 
	C28.042427,306.321167 12.981953,289.522186 4.387880,266.872101 
	C3.410744,264.296814 2.667224,261.632874 1.407690,259.005005 
	C1.000000,247.645767 1.000000,236.291550 0.999998,224.468658 
z"/>
<path fill="#FFFFFF" opacity="1.000000" stroke="none" 
	d="
M2482.000000,32.531303 
	C2480.553223,29.386396 2479.540283,25.515400 2477.578369,22.207270 
	C2471.520264,11.993134 2463.141846,4.527884 2451.114746,1.367347 
	C2461.260986,1.000000 2471.522217,1.000000 2482.000000,1.000000 
	C2482.000000,11.353221 2482.000000,21.707952 2482.000000,32.531303 
z"/>
<path fill="#FFFFFF" opacity="1.000000" stroke="none" 
	d="
M2451.468750,601.000000 
	C2458.130859,597.814026 2465.863281,595.378662 2470.651123,588.706848 
	C2474.162109,583.814758 2476.912109,578.377686 2480.031250,573.201721 
	C2480.312744,572.734680 2480.817139,572.401917 2481.608887,572.003357 
	C2482.000000,581.595581 2482.000000,591.191162 2482.000000,601.000000 
	C2471.980225,601.000000 2461.958740,601.000000 2451.468750,601.000000 
z"/>
<path fill="#FFFFFF" opacity="1.000000" stroke="none" 
	d="
M2051.283203,363.323578 
	C2044.695068,385.875183 2038.453491,408.114258 2031.955200,430.278046 
	C2029.371460,439.090546 2019.792603,445.768707 2010.633789,447.117645 
	C1998.756958,448.866913 1987.258179,447.704712 1975.662964,445.148499 
	C1971.875610,444.313599 1970.499878,442.754272 1969.452759,439.141541 
	C1965.570923,425.749847 1961.163208,412.511108 1956.991455,399.202881 
	C1947.450684,368.766937 1937.912109,338.330292 1928.411865,307.881683 
	C1920.724609,283.243866 1913.093994,258.588440 1905.439819,233.940277 
	C1903.659546,228.207443 1901.885986,222.472504 1900.109253,216.738541 
	C1899.536499,216.742706 1898.963745,216.746857 1898.390991,216.751007 
	C1897.731323,218.544678 1896.999512,220.315460 1896.423218,222.135559 
	C1890.906860,239.559464 1885.459839,257.005432 1879.909302,274.418457 
	C1871.731323,300.074066 1863.414551,325.685608 1855.291138,351.358429 
	C1849.390015,370.007812 1843.750977,388.739990 1837.902222,407.406219 
	C1835.794922,414.131775 1833.182861,420.704285 1831.211670,427.466248 
	C1827.098145,441.576660 1815.640137,447.618652 1803.609375,447.769226 
	C1793.559326,447.894958 1783.482544,446.014984 1773.420410,444.995239 
	C1770.249268,444.673889 1768.783325,443.458679 1767.757080,439.775269 
	C1760.956421,415.369263 1753.481812,391.152283 1746.409058,366.820709 
	C1741.124390,348.640106 1736.207642,330.352722 1730.956787,312.162048 
	C1724.598389,290.134186 1718.012939,268.171936 1711.612427,246.156097 
	C1704.267822,220.892883 1696.997192,195.608032 1689.811279,170.299408 
	C1689.552856,169.388977 1690.267334,167.401352 1690.982788,167.134583 
	C1703.067261,162.629501 1715.412354,158.934372 1728.417236,162.104889 
	C1737.110229,164.224152 1740.878540,171.309113 1742.962646,179.306061 
	C1750.822632,209.465286 1758.594238,239.647614 1766.384888,269.824890 
	C1773.935303,299.072083 1781.427124,328.334473 1789.029175,357.568237 
	C1792.134521,369.509766 1795.462402,381.393463 1799.107910,394.849030 
	C1800.750732,392.484406 1802.222778,391.150757 1802.728882,389.517700 
	C1808.898315,369.608887 1814.867432,349.638123 1821.004028,329.719025 
	C1829.829590,301.071503 1838.815430,272.473328 1847.609863,243.816376 
	C1854.901978,220.055374 1862.116821,196.269485 1869.149414,172.430756 
	C1871.300781,165.137833 1877.866943,164.642654 1883.204834,163.217850 
	C1894.157959,160.294205 1905.458008,159.683792 1916.529297,163.058731 
	C1924.288574,165.424118 1929.555298,170.733032 1931.963867,178.481934 
	C1939.718750,203.432846 1947.329590,228.428574 1954.996338,253.406921 
	C1964.922363,285.745697 1974.899170,318.068970 1984.751343,350.430176 
	C1989.230347,365.142242 1993.462769,379.929321 1999.034668,394.929108 
	C1999.693481,393.369537 2000.572266,391.865112 2000.978882,390.242340 
	C2009.693970,355.469696 2018.306396,320.671234 2027.043091,285.903992 
	C2035.974609,250.360886 2044.851685,214.802505 2054.086914,179.337875 
	C2058.323242,163.069550 2067.741699,159.850479 2083.284668,161.286911 
	C2089.916260,161.899750 2096.418945,164.230499 2102.890137,166.093079 
	C2105.432617,166.824814 2107.566406,167.508072 2106.232910,171.878006 
	C2100.098633,191.977051 2094.711182,212.303268 2088.990234,232.529388 
	C2080.343994,263.097290 2071.682373,293.660767 2062.948486,324.203583 
	C2059.243896,337.158752 2055.339844,350.056824 2051.283203,363.323578 
z"/>
<path fill="#FFFFFF" opacity="1.000000" stroke="none" 
	d="
M1529.148315,158.000000 
	C1553.340820,157.747391 1576.158813,161.852417 1597.210449,173.107468 
	C1611.361816,180.673462 1623.292847,190.964737 1633.434326,203.632553 
	C1643.257446,215.902573 1650.562134,229.409882 1655.378784,244.117752 
	C1658.568481,253.857056 1660.652466,264.129852 1661.788208,274.324646 
	C1663.048340,285.634705 1662.792603,297.126190 1662.930786,308.541870 
	C1662.978027,312.447968 1662.221069,316.363800 1661.776367,320.829559 
	C1589.090088,320.829559 1516.242432,320.829559 1442.972778,320.829559 
	C1442.965454,331.889801 1446.373779,341.581726 1449.715942,351.314240 
	C1453.632324,362.719238 1460.373169,372.527161 1468.664429,380.841827 
	C1480.203857,392.413757 1494.351318,400.092957 1510.404419,404.015961 
	C1524.040405,407.348236 1537.886108,408.811920 1551.837280,407.898285 
	C1567.032104,406.903259 1582.026001,404.372803 1596.630981,399.792999 
	C1605.493896,397.013794 1614.338501,393.924408 1623.421875,392.165070 
	C1634.236694,390.070435 1640.619507,394.468719 1643.800659,405.530334 
	C1645.798462,412.476624 1645.887451,419.971832 1646.996094,428.472137 
	C1629.319702,433.868408 1612.529419,439.649994 1595.376831,444.005157 
	C1583.496704,447.021637 1571.160645,448.443573 1558.945801,449.872650 
	C1550.440918,450.867737 1541.763306,451.307648 1533.220337,450.871887 
	C1512.935791,449.837189 1493.306030,445.845947 1474.589233,437.361267 
	C1459.311035,430.435364 1445.708008,421.338745 1434.014893,409.445251 
	C1416.258301,391.384308 1405.144287,369.576263 1399.042603,345.164795 
	C1395.054077,329.207642 1393.090088,312.897400 1394.112305,296.497864 
	C1396.039795,265.576630 1405.175903,237.137100 1424.229126,212.138107 
	C1437.441528,194.802704 1453.758667,181.471893 1473.235474,172.052872 
	C1488.417969,164.710541 1504.352783,159.672058 1521.413208,158.967361 
	C1523.839966,158.867111 1526.248901,158.333191 1529.148315,158.000000 
M1481.014160,214.476868 
	C1458.081909,232.349014 1445.883301,255.932541 1442.723877,284.739166 
	C1501.312988,284.739166 1559.026245,284.739166 1616.917969,284.739166 
	C1617.352539,275.449646 1615.630371,266.839905 1613.152710,258.139557 
	C1606.001099,233.026947 1591.440918,214.452805 1567.201416,204.041687 
	C1550.601807,196.911957 1533.146484,196.410538 1515.757202,199.299683 
	C1503.380371,201.356049 1491.854126,206.510498 1481.014160,214.476868 
z"/>
<path fill="#FFFFFF" opacity="1.000000" stroke="none" 
	d="
M1335.000000,313.000000 
	C1335.000000,352.494263 1334.845215,391.489563 1335.109741,430.482056 
	C1335.175293,440.139221 1329.028564,445.473663 1320.421753,447.061157 
	C1309.576660,449.061554 1298.965332,447.844025 1288.000000,445.695038 
	C1288.000000,443.702667 1288.000000,441.729218 1288.000000,439.755737 
	C1288.000000,385.263763 1288.261719,330.769836 1287.860718,276.280823 
	C1287.716797,256.741882 1282.880493,238.051483 1270.586182,222.337616 
	C1262.142578,211.545624 1250.470825,205.085266 1237.095337,202.065643 
	C1232.361694,200.996979 1227.476440,200.250320 1222.634033,200.071960 
	C1201.326660,199.287186 1181.781006,205.464096 1164.911743,218.031799 
	C1155.334961,225.166550 1147.417114,234.631531 1139.288696,243.536758 
	C1137.162842,245.865753 1136.144165,250.021851 1136.133423,253.343674 
	C1135.948486,311.167908 1136.004395,368.992889 1135.996948,426.817719 
	C1135.994873,442.606537 1128.912231,446.913696 1114.687988,447.807739 
	C1105.955200,448.356598 1097.103882,447.019104 1088.177368,446.521515 
	C1088.177368,351.717804 1088.177368,257.762848 1088.177368,163.420135 
	C1099.235107,161.132416 1110.496704,159.983246 1121.891602,162.040039 
	C1130.282715,163.554657 1135.904785,170.652924 1135.986084,179.689331 
	C1136.054321,187.292465 1136.000000,194.896683 1136.000000,203.621262 
	C1140.518555,199.057388 1144.287231,195.193832 1148.117554,191.392212 
	C1163.768433,175.858215 1182.362061,165.467590 1203.946045,161.170898 
	C1213.984985,159.172440 1224.421387,157.908478 1234.618286,158.223953 
	C1256.840332,158.911484 1277.648438,165.107254 1295.403198,179.037796 
	C1314.648438,194.137878 1325.197144,214.674805 1331.050537,238.046371 
	C1335.175171,254.515640 1335.188599,271.231140 1335.014648,288.004822 
	C1334.929932,296.169037 1335.000000,304.334900 1335.000000,313.000000 
z"/>
<path fill="#FFFFFF" opacity="1.000000" stroke="none" 
	d="
M2293.155762,203.978195 
	C2287.139893,202.972946 2281.595947,201.405884 2275.985596,201.115936 
	C2262.588867,200.423553 2249.144287,199.765518 2235.750977,200.166855 
	C2223.462158,200.535095 2211.387695,203.073532 2200.849854,210.045364 
	C2185.565674,220.157272 2183.636230,241.525757 2193.733887,254.009964 
	C2199.966553,261.715973 2209.012207,266.052704 2218.336426,268.885620 
	C2240.274414,275.551025 2262.468262,281.377167 2284.384521,288.109039 
	C2296.452393,291.815765 2308.510986,295.922241 2319.958496,301.186646 
	C2335.406006,308.290588 2348.899658,318.545502 2357.020996,333.870789 
	C2360.917969,341.224182 2363.426758,349.686615 2364.751465,357.937805 
	C2366.523682,368.976624 2365.503906,380.189148 2362.017334,391.023438 
	C2357.673584,404.522522 2350.087158,415.894257 2339.255859,424.924988 
	C2325.781982,436.158752 2310.004883,442.841431 2292.977051,446.430603 
	C2284.893555,448.134521 2276.631836,449.239716 2268.393311,449.896515 
	C2258.678467,450.671082 2248.851074,451.442535 2239.163574,450.813385 
	C2225.529785,449.927917 2211.844727,448.475494 2198.426758,445.958527 
	C2178.855957,442.287445 2159.503662,437.454620 2138.984131,432.877472 
	C2140.073486,423.455170 2140.324707,415.062225 2142.149902,407.026764 
	C2144.565918,396.389191 2155.661377,393.752930 2163.030518,395.422485 
	C2182.191650,399.763794 2201.316650,404.397461 2220.655762,407.769135 
	C2231.607178,409.678436 2242.977051,410.143524 2254.113770,409.801941 
	C2269.307129,409.335907 2284.652832,408.048309 2298.476807,400.762665 
	C2310.551514,394.398926 2317.529785,384.207855 2317.931396,370.346313 
	C2318.354492,355.739960 2310.502441,345.827026 2298.326416,339.104431 
	C2285.877930,332.231445 2272.132080,328.802124 2258.543945,324.964325 
	C2236.632812,318.775818 2214.543701,313.060516 2193.024414,305.699219 
	C2180.069580,301.267548 2168.111816,293.908447 2158.396729,283.826385 
	C2143.844971,268.724548 2137.964600,250.358429 2140.125000,229.727097 
	C2141.914795,212.634369 2149.219238,197.706757 2161.770508,185.897537 
	C2172.476807,175.824066 2185.326904,169.165176 2199.466553,164.968307 
	C2210.707275,161.631821 2222.052979,159.189514 2233.837402,158.962723 
	C2240.425537,158.835953 2247.063232,157.623611 2253.579834,158.142365 
	C2268.859619,159.358765 2284.213867,160.557526 2299.287109,163.196671 
	C2314.772949,165.908051 2329.907471,170.573837 2345.310547,173.843140 
	C2350.195557,174.879959 2351.920410,177.793884 2351.852051,181.703598 
	C2351.747314,187.674576 2350.994385,193.679642 2349.983398,199.578827 
	C2348.386963,208.891968 2336.608154,213.537292 2328.592529,211.423843 
	C2317.075195,208.387054 2305.276123,206.420441 2293.155762,203.978195 
z"/>
<path fill="#000000" opacity="1.000000" stroke="none" 
	d="
M741.294312,248.267303 
	C745.509644,238.330811 749.309204,228.627762 753.468750,219.081573 
	C759.168579,206.000626 764.643799,192.784760 771.120300,180.088318 
	C779.725708,163.218399 792.963684,150.893906 811.660461,146.299530 
	C831.497925,141.424850 850.998230,143.852219 870.267029,152.470245 
	C866.389160,161.274536 862.585083,170.010071 858.701477,178.710159 
	C847.395508,204.038025 836.110474,229.375473 824.712891,254.662140 
	C817.726685,270.161591 810.474792,285.541199 803.474426,301.034424 
	C793.372925,323.391022 783.357483,345.786774 773.368103,368.193756 
	C762.468201,392.643250 751.674683,417.140228 740.766846,441.586182 
	C734.493835,455.644684 728.057434,469.630188 721.746887,483.672119 
	C714.714417,499.320251 708.185486,515.213562 700.618286,530.597290 
	C692.932922,546.221313 682.564026,559.542053 664.423096,564.139160 
	C653.732422,566.848267 643.049316,567.515503 631.939087,566.264221 
	C620.897644,565.020691 610.387085,562.539368 599.620667,558.537292 
	C602.523010,552.050537 605.180542,545.732849 608.140930,539.560364 
	C620.373352,514.055908 632.742920,488.617279 644.971985,463.111267 
	C653.370544,445.594482 661.663391,428.026398 669.842102,410.406281 
	C670.393311,409.218628 670.073181,407.084625 669.330505,405.917480 
	C650.406921,376.176300 631.347412,346.521637 612.365173,316.817657 
	C595.379639,290.238251 578.446899,263.625122 561.521118,237.007553 
	C559.281250,233.485123 557.220703,229.848602 554.815735,225.827927 
	C547.038696,234.053177 539.515991,241.998383 532.013794,249.962860 
	C531.350769,250.666779 530.889648,251.562454 530.219360,252.257767 
	C520.433350,262.408569 510.601166,272.514954 500.838013,282.687622 
	C496.036041,287.691040 491.232056,292.705048 486.723541,297.966675 
	C485.868073,298.965027 485.674835,301.625793 486.393646,302.718903 
	C507.287811,334.494568 528.322266,366.178070 549.367004,397.854675 
	C560.694397,414.904663 572.087830,431.910736 583.425354,448.953979 
	C584.001770,449.820374 584.331360,450.850922 584.893555,452.057861 
	C573.917603,456.192108 563.019409,459.439728 551.458679,460.004974 
	C545.207703,460.310577 538.958191,460.963623 532.709717,460.942657 
	C515.994507,460.886475 500.368042,456.791412 486.683655,446.897003 
	C477.724396,440.419006 471.121582,431.647400 465.184631,422.469269 
	C456.011810,408.288849 447.156281,393.903473 438.127045,379.629791 
	C421.096069,352.706818 403.989380,325.831604 387.024994,298.866760 
	C382.981049,292.438934 383.323364,292.445709 388.500366,286.940369 
	C401.615295,272.993500 414.609009,258.932343 427.614990,244.883423 
	C435.003906,236.901978 442.298981,228.833694 449.675781,220.840973 
	C466.010590,203.142334 481.854706,184.950760 498.876678,167.938538 
	C513.522339,153.301270 531.686584,145.096527 552.653259,142.845169 
	C569.013855,141.088394 584.972290,142.282059 600.818970,146.109146 
	C602.865173,146.603333 605.188354,148.196060 606.301941,149.961853 
	C618.656677,169.552902 630.856262,189.242752 642.982422,208.976746 
	C658.385681,234.043732 673.638611,259.203064 689.045227,284.268005 
	C696.121826,295.780884 703.410156,307.163696 711.108337,319.410217 
	C721.171509,295.592834 731.105347,272.081757 741.294312,248.267303 
z"/>
<path fill="#000000" opacity="1.000000" stroke="none" 
	d="
M380.000000,127.000000 
	C380.000000,225.968552 380.091034,324.437256 379.912628,422.905487 
	C379.882019,439.798004 371.940369,449.639954 356.776398,454.951599 
	C346.412598,458.581848 335.660126,460.092926 324.670868,460.014557 
	C314.945343,459.945190 305.218903,460.000000 295.000000,460.000000 
	C295.000000,457.206635 295.000000,455.584412 295.000000,453.962219 
	C295.000000,332.667633 294.921112,211.372940 295.114502,90.078659 
	C295.135254,77.066399 297.709625,64.235443 306.141785,53.670109 
	C313.880646,43.973446 324.917084,39.417236 336.655884,37.175640 
	C344.810944,35.618389 353.265839,35.281696 361.600098,35.129959 
	C367.590363,35.020901 373.602600,36.117210 380.000000,36.712570 
	C380.000000,66.916527 380.000000,96.708260 380.000000,127.000000 
z"/>
<path fill="#000000" opacity="1.000000" stroke="none" 
	d="
M1481.282959,214.222290 
	C1491.854126,206.510498 1503.380371,201.356049 1515.757202,199.299683 
	C1533.146484,196.410538 1550.601807,196.911957 1567.201416,204.041687 
	C1591.440918,214.452805 1606.001099,233.026947 1613.152710,258.139557 
	C1615.630371,266.839905 1617.352539,275.449646 1616.917969,284.739166 
	C1559.026245,284.739166 1501.312988,284.739166 1442.723877,284.739166 
	C1445.883301,255.932541 1458.081909,232.349014 1481.282959,214.222290 
z"/>
</svg>