<?xml version="1.0" encoding="UTF-8"?>
<svg width="101px" height="25px" viewBox="0 0 101 25" version="1.1" xmlns="http://www.w3.org/2000/svg" xmlns:xlink="http://www.w3.org/1999/xlink">
    <title>Artboard Copy</title>
    <g id="Artboard-Copy" stroke="none" stroke-width="1" fill="none" fill-rule="evenodd">
        <g id="sky-news" transform="translate(0.000000, 0.000000)" fill-rule="nonzero">
            <path d="M100,1.28980113 C100,8.51939049 100,15.7489783 99.9842358,22.996876 C99.9523233,23.0311133 99.931993,23.0445258 99.920647,23.0633505 C99.7949259,23.2719746 99.6840835,23.491123 99.5425685,23.6883052 C99.3495882,23.9572215 99.0379227,24.0553821 98.7505039,24.183797 C79.0931293,24.183797 59.4357597,24.183797 39.7566231,24.1695284 C39.6913516,24.1272146 39.6513577,24.0888125 39.6038113,24.0726914 C39.0035831,23.8691917 38.6074794,23.1798659 38.6098111,22.6163522 C38.6188082,20.4540459 38.6134624,18.2916793 38.6134624,16.129336 C38.6134624,11.25399 38.6108449,6.37864019 38.6177036,1.50330407 C38.6183555,1.04051858 38.8126471,0.64076973 39.1968069,0.364388875 C39.3918513,0.224064571 39.6131966,0.1202948 39.8226522,0 C59.4531526,0 79.083653,0 98.7369438,0.0148065699 C99.2398971,0.142196211 99.5776004,0.443093027 99.8217804,0.854787344 C99.9008579,0.988125917 99.9416858,1.14415155 100,1.28980113" id="Shape" fill="#515151"></path>
            <path d="M0,9.00720121 C0.0879139057,8.73230379 0.169839057,8.47404954 0.264892705,8.22072104 C0.524038452,7.53006925 1.00723652,7.01820669 1.60494595,6.61425715 C2.24333914,6.1828129 2.95933027,5.93397348 3.72268025,5.84906364 C4.30089581,5.78474672 4.88341806,5.75114538 5.46498368,5.72744353 C5.94046683,5.70806469 6.41837505,5.70384252 6.89340314,5.7281582 C7.58635635,5.76362918 8.27775478,5.82992402 8.96969073,5.88465393 C9.30509008,5.91118247 9.64020597,5.94129105 9.99820814,5.9717133 C10.1338742,6.74791149 10.1377612,7.50300322 9.71527352,8.20912475 C9.42559702,8.69327179 8.96486155,8.88491383 8.436063,8.90100963 C7.88952652,8.91764486 7.34121628,8.88505957 6.79394792,8.86626376 C6.14885111,8.84410871 5.50381516,8.78960141 4.85918666,8.79561882 C4.45994885,8.79934591 4.04970085,8.84312221 3.69250464,9.06487098 C3.52365977,9.16969041 3.37290742,9.28606006 3.34234373,9.51031383 C3.30738843,9.76679186 3.52986292,9.9892264 3.77975836,10.0711515 C4.13513962,10.1876595 4.50057162,10.2784213 4.86690802,10.3554632 C5.43381354,10.4746859 6.00290548,10.587163 6.57514143,10.6763959 C7.19283886,10.7727163 7.80159875,10.8947854 8.38525018,11.1237681 C9.62398218,11.6097565 10.5117879,12.4356869 10.7492222,13.782736 C10.9391188,14.8600852 10.7766917,15.9054015 10.0924565,16.8065877 C9.65971209,17.3765406 9.07415715,17.7562538 8.41224796,18.014989 C7.82073466,18.246208 7.2073006,18.3940528 6.57089899,18.4182159 C5.67110524,18.4523806 4.77093817,18.4879205 3.87070988,18.4950486 C3.36705393,18.4990364 2.86230012,18.4555283 2.35922398,18.4176931 C1.77401004,18.3736819 1.19064006,18.3049183 0.605349577,18.26227 C0.356421927,18.2441316 0.328908867,18.0651272 0.327938855,17.8992695 C0.32467505,17.3411926 0.276952197,16.7812646 0.517450988,16.2426398 C0.762972511,15.6927637 1.16599315,15.3539829 1.75005788,15.2857741 C2.17388783,15.2362768 2.60853805,15.2642347 3.03767533,15.2784405 C4.02882749,15.3112509 5.01931108,15.3662908 6.0105927,15.3920776 C6.38330443,15.4017741 6.74162769,15.3140788 7.07616171,15.121406 C7.42395756,14.9210921 7.48205844,14.3940409 7.21085607,14.2074384 C7.0523104,14.0983476 6.8940206,13.9609742 6.71526707,13.9143601 C6.16321258,13.770401 5.60223527,13.6598121 5.04311935,13.5440064 C4.46342559,13.4239411 3.88237541,13.3102253 3.30094788,13.1987937 C2.83409166,13.109321 2.38793583,12.9658453 1.96255405,12.7497154 C1.08998102,12.3063753 0.482948609,11.6292701 0.136553083,10.7163283 C0.0971683192,10.6125279 0.0671997582,10.5051543 0.0164325675,10.3992345 C0,9.94138537 0,9.48373857 0,9.00720121 Z M29.8385455,9.9664372 C30.0084501,9.5659337 30.1615964,9.17483942 30.3292524,8.79006759 C30.5589916,8.26282265 30.7796776,7.73013962 31.0407216,7.21839266 C31.387574,6.53842817 31.9211482,6.04167312 32.6747466,5.85649069 C33.4743219,5.66001024 34.2603076,5.75784857 35.0369622,6.10520955 C34.8806595,6.46007819 34.7273311,6.81217553 34.5707972,7.16284414 C34.1150951,8.18371741 33.6602368,9.2049769 33.2008421,10.2241896 C32.9192538,10.8489156 32.6269566,11.4688111 32.3447976,12.0932861 C31.9376432,12.9943985 31.5339575,13.897089 31.1313222,14.8002322 C30.6919872,15.7857015 30.2569401,16.7730847 29.8172853,17.7584114 C29.5644432,18.325058 29.3050156,18.8887623 29.0506606,19.454741 C28.7672075,20.0854597 28.5040503,20.7260607 28.1990443,21.3461223 C27.8892755,21.9758693 27.4713433,22.5127794 26.7401491,22.6980719 C26.3092472,22.8072661 25.8786505,22.8341599 25.4308379,22.7837253 C24.9857979,22.7336032 24.5621559,22.6335902 24.1282011,22.4722812 C24.2451839,22.2108239 24.3522992,21.9561811 24.4716216,21.7073909 C24.9646656,20.6793999 25.4632375,19.6540622 25.9561462,18.6260085 C26.2946613,17.9199712 26.6289155,17.2118663 26.9585693,16.501664 C26.9807865,16.4537941 26.9678832,16.3677803 26.9379487,16.320737 C26.1752085,15.1219792 25.4069897,13.9267086 24.6418853,12.7294503 C23.9572608,11.658132 23.2747642,10.5854545 22.5925482,9.51259802 C22.5022673,9.37062181 22.4192142,9.224047 22.3222788,9.06198835 C22.0088149,9.39351798 21.7056023,9.71376006 21.4032163,10.0347789 C21.3764922,10.0631513 21.3579061,10.0992526 21.3308892,10.1272782 C20.9364511,10.5364197 20.5401519,10.943771 20.146635,11.3537939 C19.9530852,11.5554633 19.7594542,11.7575595 19.5777325,11.9696364 C19.5432517,12.0098763 19.535463,12.117122 19.5644356,12.1611813 C20.4066027,13.4419416 21.2544243,14.7189873 22.1026605,15.9957549 C22.5592261,16.6829773 23.0184535,17.3684297 23.4754275,18.0553802 C23.4986607,18.0903014 23.5119453,18.131839 23.5346053,18.1804863 C23.092205,18.3471226 22.6529388,18.4780222 22.1869682,18.5008052 C21.9350143,18.513123 21.6831194,18.5394449 21.4312664,18.5385998 C20.7575376,18.5363353 20.1276922,18.3712784 19.5761248,17.9724711 C19.21501,17.7113668 18.9488748,17.3578156 18.7095781,16.9878788 C18.3398554,16.4163181 17.9829215,15.8364965 17.6189862,15.2611767 C16.9325301,14.1760106 16.2430222,13.0927694 15.5592501,12.0059155 C15.3962536,11.7468335 15.410051,11.7471065 15.618717,11.5252065 C16.1473316,10.9630594 16.6710605,10.3963058 17.1952838,9.83004543 C17.4931039,9.50834268 17.7871416,9.18313978 18.0844733,8.86098255 C18.7428695,8.1476154 19.3814876,7.41437985 20.0675808,6.72867965 C20.6578936,6.13870512 21.3900277,5.80800206 22.2351173,5.71725808 C22.8945529,5.64644893 23.5377788,5.69456119 24.1765003,5.84881701 C24.2589752,5.86873587 24.3526141,5.93293285 24.3974987,6.00410548 C24.8954728,6.79374873 25.3871932,7.58737428 25.8759542,8.38277912 C26.496803,9.39313728 27.1115926,10.4072176 27.7325767,11.4174933 C28.0178085,11.8815352 28.3115743,12.3403345 28.6218597,12.8339468 C29.0274692,11.8739556 29.4278657,10.9263104 29.8385455,9.9664372 Z M15.2760984,5.0785975 C15.2760984,9.06765643 15.2797677,13.0365683 15.2725768,17.0054611 C15.271343,17.6863365 14.9512443,18.0830293 14.3400403,18.2971222 C13.9223136,18.4434443 13.4889209,18.5043503 13.0459843,18.501308 C12.6539841,18.4983956 12.261947,18.5006048 11.8500605,18.5006048 C11.8500605,18.3880145 11.8500605,18.3226286 11.8500605,18.257244 C11.8500605,13.3683046 11.8468809,8.4793609 11.8546757,3.59043382 C11.8555121,3.0659574 11.9592756,2.54878867 12.299145,2.12293886 C12.6110701,1.73210198 13.0559083,1.54845788 13.5290563,1.45810738 C13.8577568,1.39534031 14.1985426,1.38176945 14.5344659,1.37565349 C14.7759115,1.37125776 15.0182427,1.41544595 15.2760984,1.43944272 C15.2760984,2.65685333 15.2760984,3.85764869 15.2760984,5.0785975 Z" id="Combined-Shape" fill="#515151"></path>
            <path d="M82.6491984,14.5901197 C82.8028958,14.069199 82.9602538,13.5493251 83.1095723,13.0271498 C83.4616032,11.7960811 83.8107213,10.5641795 84.1592195,9.33209964 C84.3898099,8.51685901 84.6069583,7.69758384 84.8542085,6.88746514 C84.9079568,6.71132914 84.8219516,6.68378952 84.7194736,6.65429597 C84.4586436,6.57922221 84.1965442,6.48527827 83.9292491,6.46057699 C83.3027691,6.40267969 82.9231457,6.53242862 82.7523948,7.18814506 C82.3801567,8.61759407 82.0223543,10.0508218 81.6623576,11.4834339 C81.3102135,12.8847738 80.9630783,14.287372 80.6118051,15.6889296 C80.5954159,15.7543376 80.5599953,15.8149755 80.533441,15.877836 C80.3088582,15.2732497 80.1382648,14.6772368 79.9577326,14.0842475 C79.5606277,12.7798861 79.1584992,11.4770536 78.7584176,10.1735963 C78.4493991,9.16681088 78.1426341,8.15932487 77.8300632,7.15364522 C77.7329827,6.84131544 77.5207004,6.62733261 77.2079524,6.53199254 C76.7617094,6.39596114 76.3062459,6.42056465 75.8647657,6.53840605 C75.6496149,6.59583466 75.384957,6.61579351 75.2982433,6.90974446 C75.0147853,7.87059609 74.7239815,8.82931794 74.4300631,9.78703668 C74.0755918,10.9420932 73.7134056,12.0947806 73.3576796,13.249457 C73.1103359,14.0523227 72.8697427,14.8572709 72.6210755,15.659722 C72.6006763,15.7255446 72.5413436,15.7792991 72.4751274,15.8746084 C72.3281904,15.3322639 72.1940557,14.8532757 72.0688906,14.3719565 C71.7624799,13.1936508 71.4605121,12.0141913 71.1561826,10.8353444 C70.8421701,9.61900919 70.5289252,8.40247037 70.212118,7.18686276 C70.1281154,6.86453515 69.9762286,6.57896638 69.6258459,6.49354667 C69.1016669,6.36575478 68.6040815,6.51469186 68.1170008,6.69627517 C68.0881635,6.70702765 68.0593655,6.78714152 68.0697816,6.82383765 C68.3594193,7.84393535 68.6524717,8.86307485 68.9485058,9.88134224 C69.2064869,10.7687199 69.4719222,11.6539375 69.7282059,12.5417998 C69.9398486,13.274999 70.1380247,14.0120963 70.3510302,14.7448897 C70.636107,15.7256061 70.937381,16.7017036 71.2114906,17.6854201 C71.2528548,17.8338848 71.3119416,17.8828655 71.4397586,17.8958179 C71.8453263,17.9369201 72.2514844,18.012695 72.656565,18.0076272 C73.1414808,18.0015581 73.603311,17.7580276 73.7691121,17.1892887 C73.8485636,16.9167388 73.9538462,16.651825 74.0387837,16.3807426 C74.2745256,15.6283754 74.5018145,14.8733501 74.7396671,14.121662 C75.067092,13.0868848 75.4023106,12.0545776 75.7319349,11.0204942 C75.9556566,10.3186391 76.175206,9.61545619 76.3975502,8.91316256 C76.4207785,8.83980105 76.4502751,8.76842733 76.4768639,8.69613104 C76.4999495,8.69596376 76.5230351,8.69579645 76.5461207,8.69562858 C76.6177343,8.92674357 76.68922,9.1578979 76.7609763,9.38896739 C77.0694879,10.3824443 77.37705,11.376214 77.6868951,12.369274 C78.069815,13.5965456 78.45428,14.823335 78.8388334,16.0500961 C79.0069815,16.5865019 79.1846403,17.1201069 79.3411028,17.6598769 C79.3833083,17.8054928 79.438759,17.8683435 79.5914134,17.9019953 C80.0587739,18.0050268 80.5222475,18.0518709 81.0009589,17.9813643 C81.3701171,17.9269936 81.7562056,17.6578214 81.8603467,17.3026219 C82.122269,16.409281 82.373844,15.5129056 82.6491984,14.5901197" id="Path" fill="#3D3D3D"></path>
            <path d="M61.5746077,6.32809367 C61.4771827,6.34152338 61.3800874,6.36304373 61.2822737,6.36708444 C60.5946306,6.39548819 59.9523568,6.59857094 59.3404061,6.89451334 C58.5553676,7.27415949 57.8976836,7.81147553 57.3651402,8.51020198 C56.5971747,9.51781959 56.2289318,10.6641126 56.1512417,11.910434 C56.1100399,12.5714391 56.1892011,13.2288451 56.3499639,13.8720193 C56.5959004,14.8559559 57.0438655,15.7349582 57.7595685,16.4629285 C58.2308751,16.9423115 58.7791631,17.3089628 59.3949712,17.5881206 C60.1493765,17.9301069 60.9405801,18.0909792 61.7581757,18.132684 C62.1025114,18.150248 62.4522741,18.1325168 62.7950747,18.0924085 C63.2874102,18.0348076 63.7846314,17.9774946 64.2634757,17.8559114 C64.9548336,17.6803707 65.6315882,17.4473362 66.3440587,17.2298324 C66.2993734,16.8872163 66.2957865,16.585112 66.2152624,16.3051325 C66.0870419,15.8592794 65.8297741,15.6820008 65.3938685,15.7664278 C65.027751,15.8373403 64.6712575,15.9618621 64.3140259,16.0738816 C63.7253528,16.2584767 63.1210039,16.3604701 62.5085563,16.4005759 C61.9462358,16.4374012 61.3881663,16.3784055 60.8385498,16.2440937 C60.1915083,16.0859718 59.6212761,15.7764515 59.1561641,15.3100295 C58.8219738,14.9748958 58.5502751,14.5795744 58.3924202,14.1198809 C58.2577098,13.727599 58.1203328,13.336953 58.120628,12.8911553 C61.0738587,12.8911553 64.0100802,12.8911553 66.9397972,12.8911553 C66.9577215,12.711157 66.9882317,12.5533241 66.9864127,12.3958837 C66.980758,11.9357595 66.9910658,11.47258 66.9402745,11.016713 C66.8944969,10.6057983 66.8104991,10.1917396 66.6819341,9.79918404 C66.4877927,9.2063638 66.1933675,8.66193378 65.7974336,8.16737432 C65.3886678,7.65678118 64.9077718,7.24197767 64.3373821,6.93702023 C63.488868,6.48337046 62.5691585,6.31791193 61.5746077,6.32809367" id="Path" fill="#3D3D3D"></path>
            <path d="M53.7686418,12.5554214 C53.7686418,12.2263162 53.7658176,11.8971802 53.7692322,11.5681107 C53.7762435,10.8920252 53.7757023,10.2182847 53.6094534,9.55446896 C53.3735246,8.61244696 52.948345,7.78467884 52.1726401,7.17604998 C51.4570109,6.61456098 50.6183125,6.36483225 49.7226235,6.3371204 C49.3116239,6.32440476 48.8909709,6.37535042 48.486338,6.45590093 C47.6163669,6.6290848 46.866926,7.04789274 46.2360966,7.67401112 C46.0817103,7.82724047 45.9298088,7.98296622 45.7476825,8.16691923 C45.7476825,7.81526348 45.7498719,7.50876538 45.7471216,7.20231096 C45.7438447,6.83808658 45.5172397,6.5519815 45.1790247,6.49093281 C44.7197383,6.40803104 44.2658246,6.45434986 43.8201278,6.54655941 C43.8201278,10.3491678 43.8201278,14.136147 43.8201278,17.9573365 C44.1799228,17.9773925 44.5366869,18.031302 44.8886735,18.0091795 C45.4620005,17.9731439 45.7474758,17.7995381 45.7475595,17.1631489 C45.7478596,14.8324423 45.7456061,12.5017296 45.7530603,10.1710471 C45.7534932,10.0371566 45.7945524,9.86963954 45.8802377,9.7757663 C46.2078644,9.4168293 46.5270037,9.03533067 46.9130087,8.74775506 C47.5929467,8.2411971 48.3807603,7.99222854 49.2395822,8.0238599 C49.4347619,8.03104893 49.6316685,8.06114401 49.8224643,8.10421794 C50.3615811,8.22592785 50.8320266,8.48632116 51.1723573,8.92130673 C51.6678958,9.55467501 51.8628295,10.3080164 51.8686304,11.0955593 C51.8847933,13.2918114 51.8742443,15.4882615 51.8742443,17.6846328 C51.8742443,17.7641766 51.8742443,17.8437191 51.8742443,17.9240243 C52.3162166,18.010642 52.7439203,18.0597162 53.1810462,17.9790875 C53.5279551,17.9151015 53.7757072,17.7000897 53.7730859,17.3108448 C53.7624029,15.7392006 53.7686418,14.1674432 53.7686418,12.5554214" id="Path" fill="#3D3D3D"></path>
            <path d="M92.4061737,8.18206421 C92.8769095,8.27974385 93.3524868,8.3590108 93.8167082,8.48141262 C94.1397886,8.56659798 94.6145492,8.37936203 94.6788956,8.00398351 C94.7196448,7.76620903 94.7499926,7.52416687 94.7542141,7.28349867 C94.7569694,7.12591245 94.687447,7.00846284 94.4905501,6.96667247 C93.8697087,6.83489887 93.2596917,6.64683817 92.6355143,6.5375524 C92.0279673,6.43117815 91.409094,6.3828605 90.7932219,6.33383188 C90.5305616,6.31292281 90.2630205,6.36178787 89.997477,6.3668975 C89.5224902,6.37603861 89.0651865,6.47447904 88.6121143,6.60896054 C88.0421969,6.77812092 87.5242567,7.04651632 87.0927251,7.45254095 C86.5868295,7.92852725 86.2924142,8.53020447 86.2202742,9.21914958 C86.1331964,10.0507228 86.3702125,10.7909936 86.9567405,11.3996932 C87.34832,11.8060641 87.8302935,12.1026825 88.3524553,12.2813069 C89.2198187,12.5780137 90.1101497,12.8083765 90.993307,13.0578125 C91.5409948,13.2125001 92.0950396,13.3507235 92.5967923,13.6277483 C93.0875632,13.8987114 93.4040505,14.2982654 93.3869971,14.8869938 C93.3708096,15.4457017 93.0895412,15.8564663 92.6028541,16.1129653 C92.0456604,16.4066229 91.4271314,16.4585212 90.8147429,16.4773053 C90.3658627,16.4910733 89.9075848,16.4723273 89.4661735,16.3953704 C88.6866849,16.2594706 87.9158264,16.0727045 87.1435115,15.8977222 C86.8464885,15.8304286 86.3992713,15.9366866 86.3018905,16.3654481 C86.2283236,16.6893281 86.2181978,17.0276168 86.1742899,17.4073952 C87.0013569,17.5918833 87.7813768,17.7866767 88.570204,17.9346445 C89.111033,18.0360942 89.6626274,18.0946361 90.2121554,18.130326 C90.602623,18.1556848 90.9987291,18.1245903 91.3902988,18.0933704 C91.7223635,18.0668972 92.055363,18.0223509 92.3811791,17.9536722 C93.0675085,17.8090058 93.7034254,17.5396516 94.2465079,17.0868598 C94.6830778,16.7228642 94.9888588,16.2645113 95.1639394,15.7204128 C95.3044703,15.2837224 95.3455737,14.8317867 95.2741422,14.3868524 C95.2207481,14.0542773 95.119628,13.7131877 94.9625553,13.4167994 C94.635214,12.7990933 94.0913345,12.3857554 93.4687021,12.0994216 C93.007295,11.8872328 92.5212574,11.7217158 92.0348457,11.5723113 C91.1514818,11.3009742 90.2569293,11.0661439 89.3726896,10.7974859 C88.9968645,10.6833014 88.6322674,10.5085037 88.3810516,10.1979028 C87.9740521,9.69471024 88.0518209,8.83342507 88.6678701,8.42585119 C89.0926117,8.14484224 89.579289,8.04252717 90.0746062,8.02768476 C90.6144413,8.01150834 91.156343,8.03803132 91.6963159,8.06593873 C91.9224486,8.07762547 92.1459047,8.14078799 92.4061737,8.18206421 Z" id="Path" fill="#3D3D3D"></path>
            <path d="M82.6393875,14.6039332 C82.373844,15.5129056 82.122269,16.409281 81.8603467,17.3026219 C81.7562056,17.6578214 81.3701171,17.9269936 81.0009589,17.9813643 C80.5222475,18.0518709 80.0587739,18.0050268 79.5914134,17.9019953 C79.438759,17.8683435 79.3833083,17.8054928 79.3411028,17.6598769 C79.1846403,17.1201069 79.0069815,16.5865019 78.8388334,16.0500961 C78.45428,14.823335 78.069815,13.5965456 77.6868951,12.369274 C77.37705,11.376214 77.0694879,10.3824443 76.7609763,9.38896739 C76.68922,9.1578979 76.6177343,8.92674357 76.5461207,8.69562858 C76.5230351,8.69579645 76.4999495,8.69596376 76.4768639,8.69613104 C76.4502751,8.76842733 76.4207785,8.83980105 76.3975502,8.91316256 C76.175206,9.61545619 75.9556566,10.3186391 75.7319349,11.0204942 C75.4023106,12.0545776 75.067092,13.0868848 74.7396671,14.121662 C74.5018145,14.8733501 74.2745256,15.6283754 74.0387837,16.3807426 C73.9538462,16.651825 73.8485636,16.9167388 73.7691121,17.1892887 C73.603311,17.7580276 73.1414808,18.0015581 72.656565,18.0076272 C72.2514844,18.012695 71.8453263,17.9369201 71.4397586,17.8958179 C71.3119416,17.8828655 71.2528548,17.8338848 71.2114906,17.6854201 C70.937381,16.7017036 70.636107,15.7256061 70.3510302,14.7448897 C70.1380247,14.0120963 69.9398486,13.274999 69.7282059,12.5417998 C69.4719222,11.6539375 69.2064869,10.7687199 68.9485058,9.88134224 C68.6524717,8.86307485 68.3594193,7.84393535 68.0697816,6.82383765 C68.0593655,6.78714152 68.0881635,6.70702765 68.1170008,6.69627517 C68.6040815,6.51469186 69.1016669,6.36575478 69.6258459,6.49354667 C69.9762286,6.57896638 70.1281154,6.86453515 70.212118,7.18686276 C70.5289252,8.40247037 70.8421701,9.61900919 71.1561826,10.8353444 C71.4605121,12.0141913 71.7624799,13.1936508 72.0688906,14.3719565 C72.1940557,14.8532757 72.3281904,15.3322639 72.4751274,15.8746084 C72.5413436,15.7792991 72.6006763,15.7255446 72.6210755,15.659722 C72.8697427,14.8572709 73.1103359,14.0523227 73.3576796,13.249457 C73.7134056,12.0947806 74.0755918,10.9420932 74.4300631,9.78703668 C74.7239815,8.82931794 75.0147853,7.87059609 75.2982433,6.90974446 C75.384957,6.61579351 75.6496149,6.59583466 75.8647657,6.53840605 C76.3062459,6.42056465 76.7617094,6.39596114 77.2079524,6.53199254 C77.5207004,6.62733261 77.7329827,6.84131544 77.8300632,7.15364522 C78.1426341,8.15932487 78.4493991,9.16681088 78.7584176,10.1735963 C79.1584992,11.4770536 79.5606277,12.7798861 79.9577326,14.0842475 C80.1382648,14.6772368 80.3088582,15.2732497 80.533441,15.877836 C80.5599953,15.8149755 80.5954159,15.7543376 80.6118051,15.6889296 C80.9630783,14.287372 81.3102135,12.8847738 81.6623576,11.4834339 C82.0223543,10.0508218 82.3801567,8.61759407 82.7523948,7.18814506 C82.9231457,6.53242862 83.3027691,6.40267969 83.9292491,6.46057699 C84.1965442,6.48527827 84.4586436,6.57922221 84.7194736,6.65429597 C84.8219516,6.68378952 84.9079568,6.71132914 84.8542085,6.88746514 C84.6069583,7.69758384 84.3898099,8.51685901 84.1592195,9.33209964 C83.8107213,10.5641795 83.4616032,11.7960811 83.1095723,13.0271498 C82.9602538,13.5493251 82.8028958,14.069199 82.6393875,14.6039332 Z" id="Path" fill="#FFFFFF"></path>
            <path d="M61.5940474,6.32809367 C62.5691585,6.31791193 63.488868,6.48337046 64.3373821,6.93702023 C64.9077718,7.24197767 65.3886678,7.65678118 65.7974336,8.16737432 C66.1933675,8.66193378 66.4877927,9.2063638 66.6819341,9.79918404 C66.8104991,10.1917396 66.8944969,10.6057983 66.9402745,11.016713 C66.9910658,11.47258 66.980758,11.9357595 66.9864127,12.3958837 C66.9882317,12.5533241 66.9577215,12.711157 66.9397972,12.8911553 C64.0100802,12.8911553 61.0738587,12.8911553 58.120628,12.8911553 C58.1203328,13.336953 58.2577098,13.727599 58.3924202,14.1198809 C58.5502751,14.5795744 58.8219738,14.9748958 59.1561641,15.3100295 C59.6212761,15.7764515 60.1915083,16.0859718 60.8385498,16.2440937 C61.3881663,16.3784055 61.9462358,16.4374012 62.5085563,16.4005759 C63.1210039,16.3604701 63.7253528,16.2584767 64.3140259,16.0738816 C64.6712575,15.9618621 65.027751,15.8373403 65.3938685,15.7664278 C65.8297741,15.6820008 66.0870419,15.8592794 66.2152624,16.3051325 C66.2957865,16.585112 66.2993734,16.8872163 66.3440587,17.2298324 C65.6315882,17.4473362 64.9548336,17.6803707 64.2634757,17.8559114 C63.7846314,17.9774946 63.2874102,18.0348076 62.7950747,18.0924085 C62.4522741,18.1325168 62.1025114,18.150248 61.7581757,18.132684 C60.9405801,18.0909792 60.1493765,17.9301069 59.3949712,17.5881206 C58.7791631,17.3089628 58.2308751,16.9423115 57.7595685,16.4629285 C57.0438655,15.7349582 56.5959004,14.8559559 56.3499639,13.8720193 C56.1892011,13.2288451 56.1100399,12.5714391 56.1512417,11.910434 C56.2289318,10.6641126 56.5971747,9.51781959 57.3651402,8.51020198 C57.8976836,7.81147553 58.5553676,7.27415949 59.3404061,6.89451334 C59.9523568,6.59857094 60.5946306,6.39548819 61.2822737,6.36708444 C61.3800874,6.36304373 61.4771827,6.34152338 61.5940474,6.32809367" id="Shape" fill="#FFFFFF"></path>
            <path d="M53.7686418,12.5755745 C53.7686418,14.1674432 53.7624029,15.7392006 53.7730859,17.3108448 C53.7757072,17.7000897 53.5279551,17.9151015 53.1810462,17.9790875 C52.7439203,18.0597162 52.3162166,18.010642 51.8742443,17.9240243 C51.8742443,17.8437191 51.8742443,17.7641766 51.8742443,17.6846328 C51.8742443,15.4882615 51.8847933,13.2918114 51.8686304,11.0955593 C51.8628295,10.3080164 51.6678958,9.55467501 51.1723573,8.92130673 C50.8320266,8.48632116 50.3615811,8.22592785 49.8224643,8.10421794 C49.6316685,8.06114401 49.4347619,8.03104893 49.2395822,8.0238599 C48.3807603,7.99222854 47.5929467,8.2411971 46.9130087,8.74775506 C46.5270037,9.03533067 46.2078644,9.4168293 45.8802377,9.7757663 C45.7945524,9.86963954 45.7534932,10.0371566 45.7530603,10.1710471 C45.7456061,12.5017296 45.7478596,14.8324423 45.7475595,17.1631489 C45.7474758,17.7995381 45.4620005,17.9731439 44.8886735,18.0091795 C44.5366869,18.031302 44.1799228,17.9773925 43.8201278,17.9573365 C43.8201278,14.136147 43.8201278,10.3491678 43.8201278,6.54655941 C44.2658246,6.45434986 44.7197383,6.40803104 45.1790247,6.49093281 C45.5172397,6.5519815 45.7438447,6.83808658 45.7471216,7.20231096 C45.7498719,7.50876538 45.7476825,7.81526348 45.7476825,8.16691923 C45.9298088,7.98296622 46.0817103,7.82724047 46.2360966,7.67401112 C46.866926,7.04789274 47.6163669,6.6290848 48.486338,6.45590093 C48.8909709,6.37535042 49.3116239,6.32440476 49.7226235,6.3371204 C50.6183125,6.36483225 51.4570109,6.61456098 52.1726401,7.17604998 C52.948345,7.78467884 53.3735246,8.61244696 53.6094534,9.55446896 C53.7757023,10.2182847 53.7762435,10.8920252 53.7692322,11.5681107 C53.7658176,11.8971802 53.7686418,12.2263162 53.7686418,12.5755745 Z" id="Path" fill="#FFFFFF"></path>
            <path d="M92.3883823,8.18130588 C92.1459047,8.14078799 91.9224486,8.07762547 91.6963159,8.06593873 C91.156343,8.03803132 90.6144413,8.01150834 90.0746062,8.02768476 C89.579289,8.04252717 89.0926117,8.14484224 88.6678701,8.42585119 C88.0518209,8.83342507 87.9740521,9.69471024 88.3810516,10.1979028 C88.6322674,10.5085037 88.9968645,10.6833014 89.3726896,10.7974859 C90.2569293,11.0661439 91.1514818,11.3009742 92.0348457,11.5723113 C92.5212574,11.7217158 93.007295,11.8872328 93.4687021,12.0994216 C94.0913345,12.3857554 94.635214,12.7990933 94.9625553,13.4167994 C95.119628,13.7131877 95.2207481,14.0542773 95.2741422,14.3868524 C95.3455737,14.8317867 95.3044703,15.2837224 95.1639394,15.7204128 C94.9888588,16.2645113 94.6830778,16.7228642 94.2465079,17.0868598 C93.7034254,17.5396516 93.0675085,17.8090058 92.3811791,17.9536722 C92.055363,18.0223509 91.7223635,18.0668972 91.3902988,18.0933704 C90.9987291,18.1245903 90.602623,18.1556848 90.2121554,18.130326 C89.6626274,18.0946361 89.111033,18.0360942 88.570204,17.9346445 C87.7813768,17.7866767 87.0013569,17.5918833 86.1742899,17.4073952 C86.2181978,17.0276168 86.2283236,16.6893281 86.3018905,16.3654481 C86.3992713,15.9366866 86.8464885,15.8304286 87.1435115,15.8977222 C87.9158264,16.0727045 88.6866849,16.2594706 89.4661735,16.3953704 C89.9075848,16.4723273 90.3658627,16.4910733 90.8147429,16.4773053 C91.4271314,16.4585212 92.0456604,16.4066229 92.6028541,16.1129653 C93.0895412,15.8564663 93.3708096,15.4457017 93.3869971,14.8869938 C93.4040505,14.2982654 93.0875632,13.8987114 92.5967923,13.6277483 C92.0950396,13.3507235 91.5409948,13.2125001 90.993307,13.0578125 C90.1101497,12.8083765 89.2198187,12.5780137 88.3524553,12.2813069 C87.8302935,12.1026825 87.34832,11.8060641 86.9567405,11.3996932 C86.3702125,10.7909936 86.1331964,10.0507228 86.2202742,9.21914958 C86.2924142,8.53020447 86.5868295,7.92852725 87.0927251,7.45254095 C87.5242567,7.04651632 88.0421969,6.77812092 88.6121143,6.60896054 C89.0651865,6.47447904 89.5224902,6.37603861 89.997477,6.3668975 C90.2630205,6.36178787 90.5305616,6.31292281 90.7932219,6.33383188 C91.409094,6.3828605 92.0279673,6.43117815 92.6355143,6.5375524 C93.2596917,6.64683817 93.8697087,6.83489887 94.4905501,6.96667247 C94.687447,7.00846284 94.7569694,7.12591245 94.7542141,7.28349867 C94.7499926,7.52416687 94.7196448,7.76620903 94.6788956,8.00398351 C94.6145492,8.37936203 94.1397886,8.56659798 93.8167082,8.48141262 C93.3524868,8.3590108 92.8769095,8.27974385 92.3883823,8.18130588 Z" id="Path" fill="#FFFFFF"></path>
            <path d="M59.6647707,8.59420774 C60.0908556,8.28337372 60.5554362,8.07561681 61.0543008,7.99273225 C61.755199,7.87628142 62.4587589,7.89649178 63.1278282,8.18386501 C64.1048335,8.60349895 64.691701,9.35215441 64.9799561,10.3643515 C65.0798216,10.7150306 65.1492358,11.0620576 65.1317199,11.4364841 C62.7983171,11.4364841 60.4721076,11.4364841 58.1105957,11.4364841 C58.2379405,10.2753948 58.7296216,9.32482942 59.6647707,8.59420774 Z" id="Path" fill="#515151"></path>
        </g>
    </g>
</svg>