<?xml version="1.0" encoding="UTF-8"?>
<svg width="90px" height="34.6234588px" viewBox="0 0 90 34.6234588" version="1.1" xmlns="http://www.w3.org/2000/svg" xmlns:xlink="http://www.w3.org/1999/xlink">
    <title>yorkshire-water-logo-vector</title>
    <g id="Page-1" stroke="none" stroke-width="1" fill="none" fill-rule="evenodd">
        <g id="yorkshire-water-logo-vector" fill-rule="nonzero">
            <path d="M41.4461846,25.7464179 C41.8060646,25.7464179 42.0759747,25.4765078 42.0759747,25.1166278 C42.0759747,24.7567478 41.7910696,24.5018327 41.4461846,24.5018327 C41.1012996,24.5018327 40.8163945,24.7567478 40.8163945,25.1166278 C40.8013995,25.4765078 41.0863046,25.7464179 41.4461846,25.7464179 M12.3258914,30.8447184 C12.3258914,32.6741086 11.4561813,33.7837388 10.1066311,33.7837388 C8.78707098,33.7837388 7.88737088,32.6741086 7.88737088,30.8447184 C7.88737088,29.0003332 8.75708097,27.9056981 10.1066311,27.9056981 C11.4261913,27.9056981 12.3258914,29.0003332 12.3258914,30.8447184 M13.5854715,30.8447184 C13.5854715,28.7004332 12.2809064,27.110963 10.1216261,27.110963 C8.00733089,27.110963 6.62779074,28.7004332 6.62779074,30.8447184 C6.62779074,32.9740087 7.94735088,34.5784738 10.0916361,34.5784738 C12.1909364,34.5784738 13.5854715,32.9890037 13.5854715,30.8447184 M41.4311896,27.320893 C41.0863046,27.320893 40.8163945,27.5908031 40.8163945,27.9356881 L40.8163945,33.7987338 C40.8163945,34.1436188 41.0863046,34.3985338 41.4311896,34.3985338 C41.7610796,34.3985338 42.0459847,34.1286238 42.0459847,33.7987338 L42.0459847,27.9356881 C42.0459847,27.5908031 41.7610796,27.320893 41.4311896,27.320893 M38.4621793,28.0556481 C38.1172942,27.4858381 37.4875042,27.110963 36.6177941,27.110963 C35.568144,27.110963 34.7884039,27.6657781 34.1736088,28.3705432 L34.1436188,28.3705432 L34.1436188,24.9816728 C34.1436188,24.6517827 33.8737088,24.3818727 33.5288237,24.3818727 C33.1989337,24.3818727 32.9290237,24.6517827 32.9290237,24.9816728 L32.9290237,33.7987338 C32.9290237,34.1286238 33.1989337,34.3835388 33.5288237,34.3835388 C33.8737088,34.3835388 34.1436188,34.1286238 34.1436188,33.7987338 L34.1436188,29.0753082 C34.6684439,28.5204932 35.4181939,28.0706431 36.152949,28.0706431 C36.6777741,28.0706431 37.1426191,28.2655781 37.3975342,28.7304232 C37.5474842,29.0003332 37.6224592,29.3602133 37.6224592,29.8850383 L37.6224592,33.7837388 C37.6224592,34.1286238 37.9073642,34.3835388 38.2372542,34.3835388 C38.5821393,34.3835388 38.8520493,34.1136288 38.8520493,33.7837388 L38.8520493,29.7350883 C38.8670443,29.0003332 38.7470843,28.4755082 38.4621793,28.0556481 M27.9056981,28.9703432 C27.9056981,28.2955681 28.4755082,27.9956681 29.3302233,27.9956681 C29.9600133,27.9956681 30.2599134,28.0706431 30.6647784,28.1606131 C30.9796734,28.2355881 31.1146285,28.0106631 31.1596135,27.9056981 C31.2195935,27.6957681 31.1146285,27.4858381 30.9046984,27.410863 C30.5748084,27.275908 29.9900033,27.110963 29.1352882,27.110963 C27.7857381,27.110963 26.691103,27.8157281 26.691103,29.0753082 C26.691103,31.5044985 30.1849384,30.7697434 30.1849384,32.5091636 C30.1849384,33.1239587 29.7500833,33.7087637 28.4605132,33.7087637 C27.7257581,33.7087637 27.4558481,33.6337887 27.170943,33.5588137 C26.901033,33.4838387 26.736088,33.6337887 26.676108,33.7837388 C26.631123,33.9186938 26.631123,34.1286238 26.901033,34.2635788 C27.215928,34.4285238 27.9656781,34.5784738 28.6554482,34.5784738 C30.0499833,34.5784738 31.3995335,33.9186938 31.3995335,32.4041986 C31.4295235,29.8850383 27.9056981,30.5898034 27.9056981,28.9703432 M18.4888371,27.110963 C16.8393869,27.110963 15.0549817,27.5008331 15.0549817,30.4248584 L15.0549817,33.7987338 C15.0549817,34.1286238 15.3248917,34.3835388 15.6697767,34.3835388 C16.0146618,34.3835388 16.2695768,34.1286238 16.2695768,33.7987338 L16.2695768,30.2749084 C16.2695768,29.4051983 16.2545818,28.7904032 16.4645118,28.5804732 C16.7194269,28.3255581 17.3192269,28.3405531 18.5038321,28.3405531 C18.8337221,28.3405531 19.1186271,28.0706431 19.1186271,27.7257581 C19.1036321,27.380873 18.8187271,27.110963 18.4888371,27.110963 M47.4441853,27.110963 C45.7947351,27.110963 44.0103299,27.5008331 44.0103299,30.4248584 L44.0103299,33.7987338 C44.0103299,34.1286238 44.2802399,34.3835388 44.625125,34.3835388 C44.955015,34.3835388 45.224925,34.1286238 45.224925,33.7987338 L45.224925,30.2749084 C45.224925,29.4051983 45.20993,28.7904032 45.404865,28.5804732 C45.6597801,28.3255581 46.2595801,28.3405531 47.4441853,28.3405531 C47.7890703,28.3405531 48.0739753,28.0706431 48.0739753,27.7257581 C48.0739753,27.380873 47.7890703,27.110963 47.4441853,27.110963 M89.3702099,27.110963 C87.7207597,27.110963 85.9363545,27.5008331 85.9363545,30.4248584 L85.9363545,33.7987338 C85.9363545,34.1286238 86.2062646,34.3835388 86.5511496,34.3835388 C86.8810397,34.3835388 87.1509497,34.1286238 87.1509497,33.7987338 L87.1509497,30.2749084 C87.1509497,29.4051983 87.1359547,28.7904032 87.3458847,28.5804732 C87.6007997,28.3255581 88.1856048,28.3405531 89.3702099,28.3405531 C89.715095,28.3405531 90,28.0706431 90,27.7257581 C89.985005,27.380873 89.715095,27.110963 89.3702099,27.110963 M6.71776075,24.4568477 C6.40286571,24.2919027 6.02799067,24.4418527 5.87804065,24.7267577 C5.77307564,24.9366878 3.5838054,29.3002333 3.5838054,29.3002333 L3.55381539,29.3002333 C3.55381539,29.3002333 1.33455515,24.9366878 1.21459513,24.7117627 C1.12462512,24.5318227 0.749750083,24.2469177 0.329890037,24.4868377 C-0.0149950017,24.6967677 -0.0599800067,25.0866378 0.104965012,25.3715428 C0.194935022,25.5214928 2.93902033,30.3648784 2.93902033,30.3648784 L2.93902033,33.8137288 C2.93902033,34.0086638 3.10396534,34.4135288 3.5688104,34.4135288 C4.00366544,34.4135288 4.18360546,34.0236588 4.18360546,33.8137288 L4.18360546,30.3198934 C4.18360546,30.3198934 6.92769077,25.4465178 7.00266578,25.2965678 C7.13762079,25.0416528 7.06264578,24.6217927 6.71776075,24.4568477 M25.2665778,33.4388537 C25.0566478,33.2139287 22.6274575,30.5748084 22.6274575,30.5748084 L22.6274575,30.5598134 C22.6274575,30.5598134 25.0716428,28.3255581 25.1766078,28.2355881 C25.2965678,28.1306231 25.4465178,27.7557481 25.1466178,27.4708431 C24.9666778,27.305898 24.6217927,27.245918 24.3818727,27.5008331 C24.2919027,27.6057981 21.6677774,30.3498834 21.6677774,30.3498834 L21.6527824,30.3498834 L21.6527824,24.9666778 C21.6527824,24.6367877 21.3828724,24.3668777 21.0529823,24.3668777 C20.7230923,24.3668777 20.4531823,24.6367877 20.4531823,24.9666778 L20.4531823,33.7837388 C20.4531823,34.1136288 20.7230923,34.3685438 21.0529823,34.3685438 C21.3828724,34.3685438 21.6527824,34.1136288 21.6527824,33.7837388 L21.6527824,30.8447184 L21.6677774,30.8597134 C21.6677774,30.8597134 24.2469177,34.0236588 24.3968677,34.2035988 C24.5768077,34.4135288 24.9816728,34.4585138 25.2365878,34.2485838 C25.4765078,34.0386538 25.4765078,33.6637787 25.2665778,33.4388537 M54.371876,30.4998334 C54.371876,28.9403532 53.577141,27.110963 51.5828057,27.110963 C49.7384205,27.110963 48.5238254,28.6404532 48.5238254,30.9496834 C48.5238254,33.4538487 50.0683106,34.5634788 52.0026658,34.5634788 C53.0823059,34.5634788 53.682106,34.2935688 53.907031,34.1736088 C54.131956,34.0686438 54.176941,33.9036988 54.116961,33.7237587 C54.056981,33.5438187 53.862046,33.4538487 53.667111,33.5138287 C53.3672109,33.6037987 53.0973009,33.6937687 52.3025658,33.6937687 C50.6681106,33.6937687 49.7834055,32.8540487 49.7534155,30.9796734 L53.847051,30.9796734 C54.341886,31.0096634 54.371876,30.7097634 54.371876,30.4998334 M52.8273909,30.2449184 L49.7534155,30.4098634 C49.7684105,28.6854382 50.5331556,27.9206931 51.5078307,27.9206931 C52.5874708,27.9206931 53.0523159,28.8653782 53.1272909,29.9150283 C53.1422859,30.1699434 53.1422859,30.2299234 52.8273909,30.2449184 M84.5118294,30.4998334 C84.5118294,28.9403532 83.7170943,27.110963 81.7227591,27.110963 C79.8783739,27.110963 78.6637787,28.6404532 78.6637787,30.9496834 C78.6637787,33.4538487 80.1932689,34.5634788 82.1426191,34.5634788 C83.2222592,34.5634788 83.8220593,34.2935688 84.0469843,34.1736088 C84.2719094,34.0686438 84.3168944,33.9036988 84.2569144,33.7237587 C84.1969344,33.5438187 84.0019993,33.4538487 83.8070643,33.5138287 C83.5071643,33.6037987 83.2372542,33.6937687 82.4275242,33.6937687 C80.793069,33.6937687 79.9233589,32.8540487 79.8933689,30.9796734 L83.9870043,30.9796734 C84.4668444,31.0096634 84.5118294,30.7097634 84.5118294,30.4998334 M82.9523492,30.2449184 L79.8783739,30.4098634 C79.8933689,28.6854382 80.658114,27.9206931 81.6327891,27.9206931 C82.7124292,27.9206931 83.1772742,28.8653782 83.2522493,29.9150283 C83.2672443,30.1699434 83.2822393,30.2299234 82.9523492,30.2449184 M67.7024325,27.6807731 C68.1222926,27.425858 68.7520826,27.170943 69.8017328,27.170943 C70.9863379,27.170943 72.200933,28.1606131 72.200933,30.0349883 L72.200933,31.7444185 C72.200933,33.7987338 72.110963,34.6234588 68.8570477,34.6234588 C67.8223925,34.6234588 66.8627124,34.0536488 66.8627124,32.6891036 C66.8627124,30.9346884 68.4371876,30.4698434 70.9863379,30.3948684 L70.9863379,30.0049983 C70.9863379,28.2655781 69.9816728,28.0406531 69.5618127,28.0406531 C68.8870377,28.0406531 68.5721426,28.0856381 68.0023326,28.3405531 C67.4775075,28.5654782 67.2825725,27.9356881 67.7024325,27.6807731 M70.9413529,30.9946684 C70.2815728,30.9946684 68.0773076,31.0546485 68.0773076,32.5841386 C68.0773076,33.2739087 68.4821726,33.8287238 69.2169277,33.8287238 C71.1962679,33.8287238 70.9413529,33.1989337 70.9413529,30.9946684 M77.7340886,33.7837388 C77.6741086,33.5888037 77.5241586,33.5438187 77.3892036,33.5738087 C77.1492836,33.6187937 77.0293236,33.6487837 76.6694435,33.6487837 C76.0996335,33.6487837 75.6347884,33.4688437 75.6347884,32.6741086 L75.6347884,28.2355881 L77.2692436,28.2355881 C77.5241586,28.2355881 77.7190936,28.0256581 77.7190936,27.7857381 C77.7190936,27.5308231 77.5091636,27.335888 77.2692436,27.335888 L75.6347884,27.335888 L75.6347884,25.9563479 C75.6347884,25.6114628 75.3648784,25.3565478 75.0199933,25.3565478 C74.6751083,25.3565478 74.4051983,25.6114628 74.4051983,25.9563479 L74.4051983,27.335888 L73.2205931,27.335888 C72.9056981,27.335888 72.8757081,27.9206931 73.2055981,27.9956681 C73.4305232,28.0406531 74.4051983,28.2505831 74.4051983,28.2505831 L74.4051983,32.8090636 C74.4051983,34.1736088 75.1849384,34.5334888 76.2345885,34.5334888 C76.7894035,34.5334888 77.1492836,34.4585138 77.4791736,34.3085638 C77.7340886,34.1736088 77.7790736,33.9486838 77.7340886,33.7837388 M66.3528824,24.7717428 C66.0979673,24.6967677 65.6931023,24.8017328 65.5731423,25.2215928 C65.4231923,25.7164279 63.4588471,32.5841386 63.4588471,32.5841386 L63.428857,32.5841386 C63.428857,32.5841386 61.6444518,25.8513829 61.4945018,25.2515828 C61.3445518,24.5768077 60.3398867,24.5318227 60.1749417,25.2515828 C60.0099967,26.0013329 58.3905365,32.6141286 58.3905365,32.6141286 L58.3455515,32.6141286 C58.3455515,32.6141286 56.1862712,25.3565478 56.1562812,25.2065978 C56.0363212,24.7867378 55.6614462,24.6817727 55.4065312,24.7567478 C54.9866711,24.8617128 54.8817061,25.2965678 54.9416861,25.5064978 C55.0766411,25.8813729 57.3258914,32.6291236 57.7307564,33.8587138 C58.0156614,34.6984339 58.8703765,34.4585138 59.0203266,33.8587138 C59.1702766,33.2439187 60.8047318,26.5111629 60.8047318,26.5111629 L60.8347218,26.5111629 C60.8347218,26.5111629 62.724092,33.7237587 62.769077,33.8887038 C62.934022,34.5034988 63.7887371,34.6384538 64.0436521,33.8887038 C64.0886371,33.7537488 66.7577474,25.6114628 66.7877374,25.5214928 C66.8927024,25.2815728 66.7577474,24.8617128 66.3528824,24.7717428" id="Shape" fill="#3D3D3D"></path>
            <path d="M41.4461846,25.7464179 C41.8060646,25.7464179 42.0759747,25.4765078 42.0759747,25.1166278 C42.0759747,24.7567478 41.7910696,24.5018327 41.4461846,24.5018327 C41.1012996,24.5018327 40.8163945,24.7567478 40.8163945,25.1166278 C40.8013995,25.4765078 41.0863046,25.7464179 41.4461846,25.7464179 M12.3258914,30.8447184 C12.3258914,32.6741086 11.4561813,33.7837388 10.1066311,33.7837388 C8.78707098,33.7837388 7.88737088,32.6741086 7.88737088,30.8447184 C7.88737088,29.0003332 8.75708097,27.9056981 10.1066311,27.9056981 C11.4261913,27.9056981 12.3258914,29.0003332 12.3258914,30.8447184 M13.5854715,30.8447184 C13.5854715,28.7004332 12.2809064,27.110963 10.1216261,27.110963 C8.00733089,27.110963 6.62779074,28.7004332 6.62779074,30.8447184 C6.62779074,32.9740087 7.94735088,34.5784738 10.0916361,34.5784738 C12.1909364,34.5784738 13.5854715,32.9890037 13.5854715,30.8447184 M41.4311896,27.320893 C41.0863046,27.320893 40.8163945,27.5908031 40.8163945,27.9356881 L40.8163945,33.7987338 C40.8163945,34.1436188 41.0863046,34.3985338 41.4311896,34.3985338 C41.7610796,34.3985338 42.0459847,34.1286238 42.0459847,33.7987338 L42.0459847,27.9356881 C42.0459847,27.5908031 41.7610796,27.320893 41.4311896,27.320893 M38.4621793,28.0556481 C38.1172942,27.4858381 37.4875042,27.110963 36.6177941,27.110963 C35.568144,27.110963 34.7884039,27.6657781 34.1736088,28.3705432 L34.1436188,28.3705432 L34.1436188,24.9816728 C34.1436188,24.6517827 33.8737088,24.3818727 33.5288237,24.3818727 C33.1989337,24.3818727 32.9290237,24.6517827 32.9290237,24.9816728 L32.9290237,33.7987338 C32.9290237,34.1286238 33.1989337,34.3835388 33.5288237,34.3835388 C33.8737088,34.3835388 34.1436188,34.1286238 34.1436188,33.7987338 L34.1436188,29.0753082 C34.6684439,28.5204932 35.4181939,28.0706431 36.152949,28.0706431 C36.6777741,28.0706431 37.1426191,28.2655781 37.3975342,28.7304232 C37.5474842,29.0003332 37.6224592,29.3602133 37.6224592,29.8850383 L37.6224592,33.7837388 C37.6224592,34.1286238 37.9073642,34.3835388 38.2372542,34.3835388 C38.5821393,34.3835388 38.8520493,34.1136288 38.8520493,33.7837388 L38.8520493,29.7350883 C38.8670443,29.0003332 38.7470843,28.4755082 38.4621793,28.0556481 M27.9056981,28.9703432 C27.9056981,28.2955681 28.4755082,27.9956681 29.3302233,27.9956681 C29.9600133,27.9956681 30.2599134,28.0706431 30.6647784,28.1606131 C30.9796734,28.2355881 31.1146285,28.0106631 31.1596135,27.9056981 C31.2195935,27.6957681 31.1146285,27.4858381 30.9046984,27.410863 C30.5748084,27.275908 29.9900033,27.110963 29.1352882,27.110963 C27.7857381,27.110963 26.691103,27.8157281 26.691103,29.0753082 C26.691103,31.5044985 30.1849384,30.7697434 30.1849384,32.5091636 C30.1849384,33.1239587 29.7500833,33.7087637 28.4605132,33.7087637 C27.7257581,33.7087637 27.4558481,33.6337887 27.170943,33.5588137 C26.901033,33.4838387 26.736088,33.6337887 26.676108,33.7837388 C26.631123,33.9186938 26.631123,34.1286238 26.901033,34.2635788 C27.215928,34.4285238 27.9656781,34.5784738 28.6554482,34.5784738 C30.0499833,34.5784738 31.3995335,33.9186938 31.3995335,32.4041986 C31.4295235,29.8850383 27.9056981,30.5898034 27.9056981,28.9703432 M18.4888371,27.110963 C16.8393869,27.110963 15.0549817,27.5008331 15.0549817,30.4248584 L15.0549817,33.7987338 C15.0549817,34.1286238 15.3248917,34.3835388 15.6697767,34.3835388 C16.0146618,34.3835388 16.2695768,34.1286238 16.2695768,33.7987338 L16.2695768,30.2749084 C16.2695768,29.4051983 16.2545818,28.7904032 16.4645118,28.5804732 C16.7194269,28.3255581 17.3192269,28.3405531 18.5038321,28.3405531 C18.8337221,28.3405531 19.1186271,28.0706431 19.1186271,27.7257581 C19.1036321,27.380873 18.8187271,27.110963 18.4888371,27.110963 M47.4441853,27.110963 C45.7947351,27.110963 44.0103299,27.5008331 44.0103299,30.4248584 L44.0103299,33.7987338 C44.0103299,34.1286238 44.2802399,34.3835388 44.625125,34.3835388 C44.955015,34.3835388 45.224925,34.1286238 45.224925,33.7987338 L45.224925,30.2749084 C45.224925,29.4051983 45.20993,28.7904032 45.404865,28.5804732 C45.6597801,28.3255581 46.2595801,28.3405531 47.4441853,28.3405531 C47.7890703,28.3405531 48.0739753,28.0706431 48.0739753,27.7257581 C48.0739753,27.380873 47.7890703,27.110963 47.4441853,27.110963 M89.3702099,27.110963 C87.7207597,27.110963 85.9363545,27.5008331 85.9363545,30.4248584 L85.9363545,33.7987338 C85.9363545,34.1286238 86.2062646,34.3835388 86.5511496,34.3835388 C86.8810397,34.3835388 87.1509497,34.1286238 87.1509497,33.7987338 L87.1509497,30.2749084 C87.1509497,29.4051983 87.1359547,28.7904032 87.3458847,28.5804732 C87.6007997,28.3255581 88.1856048,28.3405531 89.3702099,28.3405531 C89.715095,28.3405531 90,28.0706431 90,27.7257581 C89.985005,27.380873 89.715095,27.110963 89.3702099,27.110963 M6.71776075,24.4568477 C6.40286571,24.2919027 6.02799067,24.4418527 5.87804065,24.7267577 C5.77307564,24.9366878 3.5838054,29.3002333 3.5838054,29.3002333 L3.55381539,29.3002333 C3.55381539,29.3002333 1.33455515,24.9366878 1.21459513,24.7117627 C1.12462512,24.5318227 0.749750083,24.2469177 0.329890037,24.4868377 C-0.0149950017,24.6967677 -0.0599800067,25.0866378 0.104965012,25.3715428 C0.194935022,25.5214928 2.93902033,30.3648784 2.93902033,30.3648784 L2.93902033,33.8137288 C2.93902033,34.0086638 3.10396534,34.4135288 3.5688104,34.4135288 C4.00366544,34.4135288 4.18360546,34.0236588 4.18360546,33.8137288 L4.18360546,30.3198934 C4.18360546,30.3198934 6.92769077,25.4465178 7.00266578,25.2965678 C7.13762079,25.0416528 7.06264578,24.6217927 6.71776075,24.4568477 M25.2665778,33.4388537 C25.0566478,33.2139287 22.6274575,30.5748084 22.6274575,30.5748084 L22.6274575,30.5598134 C22.6274575,30.5598134 25.0716428,28.3255581 25.1766078,28.2355881 C25.2965678,28.1306231 25.4465178,27.7557481 25.1466178,27.4708431 C24.9666778,27.305898 24.6217927,27.245918 24.3818727,27.5008331 C24.2919027,27.6057981 21.6677774,30.3498834 21.6677774,30.3498834 L21.6527824,30.3498834 L21.6527824,24.9666778 C21.6527824,24.6367877 21.3828724,24.3668777 21.0529823,24.3668777 C20.7230923,24.3668777 20.4531823,24.6367877 20.4531823,24.9666778 L20.4531823,33.7837388 C20.4531823,34.1136288 20.7230923,34.3685438 21.0529823,34.3685438 C21.3828724,34.3685438 21.6527824,34.1136288 21.6527824,33.7837388 L21.6527824,30.8447184 L21.6677774,30.8597134 C21.6677774,30.8597134 24.2469177,34.0236588 24.3968677,34.2035988 C24.5768077,34.4135288 24.9816728,34.4585138 25.2365878,34.2485838 C25.4765078,34.0386538 25.4765078,33.6637787 25.2665778,33.4388537 M54.371876,30.4998334 C54.371876,28.9403532 53.577141,27.110963 51.5828057,27.110963 C49.7384205,27.110963 48.5238254,28.6404532 48.5238254,30.9496834 C48.5238254,33.4538487 50.0683106,34.5634788 52.0026658,34.5634788 C53.0823059,34.5634788 53.682106,34.2935688 53.907031,34.1736088 C54.131956,34.0686438 54.176941,33.9036988 54.116961,33.7237587 C54.056981,33.5438187 53.862046,33.4538487 53.667111,33.5138287 C53.3672109,33.6037987 53.0973009,33.6937687 52.3025658,33.6937687 C50.6681106,33.6937687 49.7834055,32.8540487 49.7534155,30.9796734 L53.847051,30.9796734 C54.341886,31.0096634 54.371876,30.7097634 54.371876,30.4998334 M52.8273909,30.2449184 L49.7534155,30.4098634 C49.7684105,28.6854382 50.5331556,27.9206931 51.5078307,27.9206931 C52.5874708,27.9206931 53.0523159,28.8653782 53.1272909,29.9150283 C53.1422859,30.1699434 53.1422859,30.2299234 52.8273909,30.2449184 M84.5118294,30.4998334 C84.5118294,28.9403532 83.7170943,27.110963 81.7227591,27.110963 C79.8783739,27.110963 78.6637787,28.6404532 78.6637787,30.9496834 C78.6637787,33.4538487 80.1932689,34.5634788 82.1426191,34.5634788 C83.2222592,34.5634788 83.8220593,34.2935688 84.0469843,34.1736088 C84.2719094,34.0686438 84.3168944,33.9036988 84.2569144,33.7237587 C84.1969344,33.5438187 84.0019993,33.4538487 83.8070643,33.5138287 C83.5071643,33.6037987 83.2372542,33.6937687 82.4275242,33.6937687 C80.793069,33.6937687 79.9233589,32.8540487 79.8933689,30.9796734 L83.9870043,30.9796734 C84.4668444,31.0096634 84.5118294,30.7097634 84.5118294,30.4998334 M82.9523492,30.2449184 L79.8783739,30.4098634 C79.8933689,28.6854382 80.658114,27.9206931 81.6327891,27.9206931 C82.7124292,27.9206931 83.1772742,28.8653782 83.2522493,29.9150283 C83.2672443,30.1699434 83.2822393,30.2299234 82.9523492,30.2449184 M67.7024325,27.6807731 C68.1222926,27.425858 68.7520826,27.170943 69.8017328,27.170943 C70.9863379,27.170943 72.200933,28.1606131 72.200933,30.0349883 L72.200933,31.7444185 C72.200933,33.7987338 72.110963,34.6234588 68.8570477,34.6234588 C67.8223925,34.6234588 66.8627124,34.0536488 66.8627124,32.6891036 C66.8627124,30.9346884 68.4371876,30.4698434 70.9863379,30.3948684 L70.9863379,30.0049983 C70.9863379,28.2655781 69.9816728,28.0406531 69.5618127,28.0406531 C68.8870377,28.0406531 68.5721426,28.0856381 68.0023326,28.3405531 C67.4775075,28.5654782 67.2825725,27.9356881 67.7024325,27.6807731 M70.9413529,30.9946684 C70.2815728,30.9946684 68.0773076,31.0546485 68.0773076,32.5841386 C68.0773076,33.2739087 68.4821726,33.8287238 69.2169277,33.8287238 C71.1962679,33.8287238 70.9413529,33.1989337 70.9413529,30.9946684 M77.7340886,33.7837388 C77.6741086,33.5888037 77.5241586,33.5438187 77.3892036,33.5738087 C77.1492836,33.6187937 77.0293236,33.6487837 76.6694435,33.6487837 C76.0996335,33.6487837 75.6347884,33.4688437 75.6347884,32.6741086 L75.6347884,28.2355881 L77.2692436,28.2355881 C77.5241586,28.2355881 77.7190936,28.0256581 77.7190936,27.7857381 C77.7190936,27.5308231 77.5091636,27.335888 77.2692436,27.335888 L75.6347884,27.335888 L75.6347884,25.9563479 C75.6347884,25.6114628 75.3648784,25.3565478 75.0199933,25.3565478 C74.6751083,25.3565478 74.4051983,25.6114628 74.4051983,25.9563479 L74.4051983,27.335888 L73.2205931,27.335888 C72.9056981,27.335888 72.8757081,27.9206931 73.2055981,27.9956681 C73.4305232,28.0406531 74.4051983,28.2505831 74.4051983,28.2505831 L74.4051983,32.8090636 C74.4051983,34.1736088 75.1849384,34.5334888 76.2345885,34.5334888 C76.7894035,34.5334888 77.1492836,34.4585138 77.4791736,34.3085638 C77.7340886,34.1736088 77.7790736,33.9486838 77.7340886,33.7837388 M66.3528824,24.7717428 C66.0979673,24.6967677 65.6931023,24.8017328 65.5731423,25.2215928 C65.4231923,25.7164279 63.4588471,32.5841386 63.4588471,32.5841386 L63.428857,32.5841386 C63.428857,32.5841386 61.6444518,25.8513829 61.4945018,25.2515828 C61.3445518,24.5768077 60.3398867,24.5318227 60.1749417,25.2515828 C60.0099967,26.0013329 58.3905365,32.6141286 58.3905365,32.6141286 L58.3455515,32.6141286 C58.3455515,32.6141286 56.1862712,25.3565478 56.1562812,25.2065978 C56.0363212,24.7867378 55.6614462,24.6817727 55.4065312,24.7567478 C54.9866711,24.8617128 54.8817061,25.2965678 54.9416861,25.5064978 C55.0766411,25.8813729 57.3258914,32.6291236 57.7307564,33.8587138 C58.0156614,34.6984339 58.8703765,34.4585138 59.0203266,33.8587138 C59.1702766,33.2439187 60.8047318,26.5111629 60.8047318,26.5111629 L60.8347218,26.5111629 C60.8347218,26.5111629 62.724092,33.7237587 62.769077,33.8887038 C62.934022,34.5034988 63.7887371,34.6384538 64.0436521,33.8887038 C64.0886371,33.7537488 66.7577474,25.6114628 66.7877374,25.5214928 C66.8927024,25.2815728 66.7577474,24.8617128 66.3528824,24.7717428" id="Shape" fill="#3D3D3D"></path>
            <path d="M87.7357547,21.2779074 C87.7357547,21.2779074 89.865045,21.2779074 89.865045,19.1486171 L89.865045,2.12929024 C89.865045,2.12929024 89.865045,0 87.7357547,0 L2.14428524,0 C2.14428524,0 0.0149950017,0 0.0149950017,2.12929024 L0.0149950017,19.1336221 C0.0149950017,19.1336221 0.0149950017,21.2629124 2.14428524,21.2629124" id="Path" fill="#D1D1D1"></path>
            <path d="M2.14428524,21.2779074 L87.7357547,21.2779074 C87.7357547,21.2779074 89.865045,21.2779074 89.865045,19.1486171 L89.865045,13.7204265 C84.3618794,13.0906365 73.5654782,11.9660113 66.2779074,11.9660113 C53.832056,11.9660113 32.8540487,5.93802066 5.68310563,5.93802066 C4.18360546,5.93802066 2.27924025,6.02799067 0.0299900033,6.22292569 L0.0299900033,19.1486171 C0.0149950017,19.1486171 0.0149950017,21.2779074 2.14428524,21.2779074" id="Path" fill="#939393"></path>
            <path d="M4.64845052,12.6857714 C23.0773076,12.6857714 37.8473842,11.2762413 39.6317894,11.2762413 C50.4581806,11.2762413 77.2242586,14.6051316 89.85005,15.2499167 L89.85005,5.18827058 C89.3402199,5.18827058 88.8303899,5.17327557 88.2755748,5.17327557 C74.7800733,5.17327557 43.3205598,10.9763412 39.8717094,10.9763412 C34.5034988,10.9763412 18.263912,5.95301566 3.70376541,5.95301566 C2.56414528,5.95301566 1.30456514,5.98300566 0.0149950017,6.04298567 L0.0149950017,12.5958014 C1.87437521,12.6557814 3.71876041,12.6857714 4.64845052,12.6857714" id="Path" fill="#3D3D3D"></path>
            <path d="M4.39353549,17.1542819 C36.422859,17.1542819 52.4075308,12.1459513 65.2432522,8.1272909 C73.3105631,5.59313562 79.6684439,3.5988004 87.7657448,3.5988004 L89.85005,3.5988004 L89.85005,3.13395535 L87.7657448,3.13395535 C79.5934688,3.13395535 73.2055981,5.14328557 65.0933022,7.67744085 C52.2875708,11.6961013 36.347884,16.6894369 4.37854049,16.6894369 C4.33355548,16.6894369 2.21926025,16.6894369 0,16.6744419 L0,17.1392869 C2.15928024,17.1542819 4.21359547,17.1542819 4.39353549,17.1542819" id="Path" fill="#FFFFFF"></path>
            <path d="M4.96334555,3.50883039 C8.27724092,3.52382539 15.0099967,3.97367544 22.9123625,6.79273575 C23.0473176,6.83772076 36.9176941,12.2059314 46.3045651,13.3755415 C46.6344552,13.4205265 69.5618127,16.5244918 88.1856048,16.8093969 L89.85005,16.8093969 L89.85005,16.3895368 L88.1856048,16.3295568 C72.365878,16.5094968 46.6644452,13.1206265 46.3345551,13.0906365 C36.9926691,11.9210263 23.1522826,6.58280573 23.0173276,6.52282572 C15.0699767,3.68877041 8.29223592,3.23892036 4.96334555,3.22392536 L0.0149950017,3.22392536 L0.0149950017,3.50883039" id="Path" fill="#FFFFFF"></path>
        </g>
    </g>
</svg>